<svg width="182" height="68" viewBox="0 0 182 68" fill="none" xmlns="http://www.w3.org/2000/svg">
<path d="M21.2198 19.6607C20.4118 19.0905 19.7354 17.6576 19.2269 16.7664C19.2176 16.7501 19.2083 16.7339 19.1988 16.7176C19.1349 16.5903 19.2408 16.7474 19.3636 16.8555C19.4618 16.9995 20.0318 17.0624 19.0342 16.5286C18.7133 16.4715 18.2988 16.4151 17.806 16.355C17.2226 16.2862 15.9803 16.1326 15.4973 16.0471C15.3911 16.0851 16.0617 15.9952 15.9323 15.9846C15.8689 15.9356 15.0871 16.4169 14.3666 17.2148C12.8626 18.8337 11.3536 21.2716 9.84794 23.8267C9.81602 23.8962 9.78367 23.9668 9.75111 24.038C8.97136 25.6303 9.07522 25.9197 8.78061 26.8634C8.4764 27.869 8.34061 28.764 8.22935 29.4692C8.09086 30.8351 8.76419 32.3503 9.99966 34.0518C11.4028 35.9856 11.7252 35.9096 13.8543 36.2158C15.0605 36.3173 16.4293 36.2257 17.8402 36.0444C19.143 35.8773 20.4907 35.6373 21.8937 35.399C22.701 35.1807 23.4868 34.9562 24.2522 34.7667C25.2997 34.5005 26.4633 34.3028 27.313 34.2784C28.5417 34.1221 31.193 35.1079 32.1998 36.2687C33.3539 37.4271 33.8763 38.5628 34.2546 39.4453C34.3761 39.7362 34.4772 40.0049 34.5652 40.2493C35.1998 41.5832 35.5761 42.6195 36.0582 43.8524C36.052 43.9562 36.0453 44.0676 36.037 44.1808C35.9333 45.6567 36.2754 47.157 36.0488 49.6371C35.9422 50.7011 35.6956 51.9194 35.2019 53.2197C34.8807 54.0572 34.5161 54.3834 34.2277 54.6456C34.143 54.7208 34.0618 54.7939 33.9888 54.8674C33.7379 55.1214 33.7018 55.49 33.6513 55.9223C33.5698 56.4784 33.5832 57.1521 32.5861 58.0584C29.5521 60.3924 28.3812 60.6306 27.4769 61.369C27.2113 61.55 26.9639 61.7061 26.7028 61.8161C25.848 62.18 24.5907 62.168 23.704 61.9947C22.9942 61.8666 21.6558 62.0777 20.6587 62.2874C20.2817 62.3685 19.7758 62.3589 19.1964 62.3419C18.595 62.3245 17.9142 62.2986 17.2102 62.3728C16.766 62.4199 16.4078 62.4649 16.079 62.5085C15.773 62.5215 16.3438 62.5887 15.1931 62.5471C14.1205 62.4437 13.5317 62.0463 13.4796 62.0582C12.8175 61.7977 12.3211 61.5647 11.8994 61.3593C11.658 61.2411 11.4358 61.1268 11.2168 61.0118C10.5221 60.6478 9.71322 60.1378 8.93816 59.5933C8.00797 58.942 7.12271 58.2427 6.43608 57.7317C4.92845 56.1589 3.5819 54.2089 2.50735 52.6984C1.93301 51.8902 1.64517 50.9024 1.71345 49.9212C1.78172 48.9392 2.20221 48.05 2.90829 47.4366C3.61633 46.826 4.56215 46.5362 5.56226 46.6378C6.56019 46.7378 7.52595 47.2268 8.23959 47.9696C9.72559 49.5204 10.8649 50.7541 12.3177 51.9469C13.1729 52.6637 14.0361 53.3263 14.895 53.9087C15.324 54.1996 15.7515 54.4699 16.1741 54.7153C16.3823 54.8363 16.6075 54.9609 16.7919 55.0576C16.8862 55.1072 16.9881 55.1599 17.1055 55.2185C17.647 55.3923 15.5092 54.775 15.7152 54.895C17.6688 54.8992 19.3777 55.0424 20.9806 55.0946C21.145 55.1004 21.3085 55.1056 21.4705 55.1098C22.7972 54.8816 23.9564 54.5758 24.6455 54.3764C25.2171 54.2146 25.5888 54.2307 25.8966 54.2345C26.1068 54.2367 26.2811 54.2314 26.4085 54.1571C26.4768 54.1173 26.5604 54.0568 26.6418 53.9859C27.0006 53.6765 27.0419 53.4452 28.014 51.9175C28.3678 51.3803 28.7972 50.8013 29.1421 50.2219C29.641 49.4004 29.9442 48.5542 29.8615 48.1277C29.724 47.3766 29.7181 46.5948 29.5771 45.8055C29.3662 44.8686 29.1529 43.9589 28.8562 43.6164C28.4963 43.1865 28.4116 42.7679 28.2597 42.2222C28.1578 41.8538 27.9991 41.4028 27.7652 41.1048C27.5214 40.7874 27.4455 40.6912 27.4801 40.57C27.2887 40.3614 26.3341 40.2718 25.5607 40.5559C24.6025 40.8778 23.5567 41.1829 22.6767 41.2396C22.2769 41.2653 21.8203 41.3453 21.3398 41.4291C20.7029 41.5402 20.0201 41.6577 19.3715 41.6622C18.837 41.6661 18.3731 41.5429 17.9641 41.4294C17.836 41.394 17.7134 41.3598 17.5952 41.3304C17.1701 41.379 16.7381 41.4229 16.2986 41.4596C16.2296 41.4938 16.157 41.531 16.0809 41.5693C15.699 41.7607 15.2112 41.9916 14.5774 42.0954C13.5671 42.2574 12.631 42.0963 11.6394 41.8112C10.8635 41.5846 10.0577 41.292 9.09563 40.8971C8.45116 40.6334 7.64155 40.2536 6.8985 39.7244C5.81942 38.9378 5.29646 38.3751 4.89569 37.799C4.75791 37.5889 4.71369 37.3482 4.67444 37.1105L4.67438 37.107C4.67172 37.0908 4.66889 37.0748 4.66622 37.0586C3.6149 35.8152 2.60001 34.3958 1.91317 32.5846C1.83465 32.4338 1.75875 32.2776 1.68689 32.1191C1.33061 31.369 1.09383 30.3867 0.880439 30.0584C0.636053 29.5904 0.423631 28.4145 0.36182 27.0266C0.319199 26.1219 0.35329 25.1356 0.412906 24.2913C0.44675 23.7972 0.6805 23.3602 0.942035 22.9298C1.18946 22.5209 1.44335 22.1538 1.6451 21.6173C1.73947 21.3632 1.83041 21.0661 1.86419 20.8821C1.90366 20.6992 1.94822 20.4994 2.01114 20.3052C2.07042 20.1235 2.318 19.7664 2.63945 19.3062C2.83914 19.0198 3.0685 18.6913 3.29987 18.3432C3.73919 17.3276 4.21073 16.2976 4.74467 15.2597C4.77864 14.9984 4.77386 14.7466 4.71539 14.5122C4.6735 14.344 4.60257 14.1781 4.53199 14.0062C4.43589 13.7724 4.3385 13.5288 4.3128 13.2555C4.29273 13.0419 4.36062 12.8413 4.48188 12.7571C4.5384 12.7179 4.60572 12.7035 4.66666 12.6906C4.7365 12.6757 4.79846 12.6629 4.82879 12.6157C4.85053 12.5816 4.84475 12.5271 4.83852 12.4602C4.82857 12.3535 4.81684 12.2143 4.90907 12.0764C5.25414 11.5608 5.70465 10.9983 6.20307 10.4375C6.7527 9.81739 7.36144 9.20815 7.8768 8.68831C8.45394 8.10592 9.486 7.38597 10.8248 6.80446C11.7547 6.39759 12.8343 6.08761 13.8261 5.92955C14.7505 5.7589 16.2142 5.66283 16.9613 5.71706C17.7531 5.75365 17.8658 5.67597 18.3645 5.8507C18.4518 5.88424 18.5484 6.03802 18.6765 6.23155C18.7664 6.36865 18.8734 6.52597 19.001 6.67508C19.6286 6.75239 20.3267 6.85335 21.096 7.02774C21.1272 7.01473 21.1597 7.00168 21.1924 6.98837L21.194 6.98731C21.9146 6.69544 23.1253 6.29388 24.5725 7.43647C24.9315 7.72972 25.0946 8.03523 25.2284 8.30758C25.3604 8.57703 25.4665 8.8168 25.7149 9.04765C26.0022 9.31688 26.3737 9.50905 26.8635 9.88362C27.5859 10.4553 27.9718 10.8006 28.0746 11.2042C28.0824 11.2336 28.0905 11.2654 28.0993 11.2984C28.1833 11.6111 28.3143 12.0914 28.3004 12.6577C28.9655 13.8565 29.5509 15.0717 30.0725 16.3401C30.9347 18.4559 31.6277 20.6488 31.9679 23.1082C32.1301 24.2977 31.8351 25.6467 31.0866 26.563C30.3379 27.5089 29.2773 27.731 28.4214 27.4148C27.5565 27.1016 26.7716 26.6715 26.0974 26.2884C25.4294 25.8945 24.9528 25.3816 24.6969 24.689C24.281 23.5547 23.6564 22.324 22.9472 21.1364C22.8998 21.079 22.8526 21.0208 22.8061 20.9622C22.4613 20.5294 22.0028 20.196 21.5393 19.8784C21.432 19.804 21.3261 19.7338 21.2198 19.6607Z" fill="#2E160C"/>
<path d="M51.7219 21.6591C51.6308 22.0994 51.7086 21.9018 51.4661 21.8218C51.4624 21.8206 51.4587 21.8193 51.4551 21.8181C51.4063 21.7997 51.3547 21.8004 51.2863 21.8055C51.1122 21.8267 50.9044 21.8132 49.9828 21.8798C49.7469 21.9873 49.4943 22.1067 49.2265 22.2359C46.3032 23.5335 45.3421 24.7844 44.212 27.896C44.2095 27.9267 44.2075 27.9562 44.2056 27.9858C44.1564 28.596 44.208 29.4851 44.1082 30.0602C43.9753 30.8023 43.9049 31.3703 43.8521 31.8474C44.2206 34.6913 44.8852 36.5545 47.2411 38.3087C47.9333 38.8303 48.7936 39.3963 49.2745 39.5557C49.8477 39.7721 50.5655 39.9069 51.3368 39.959C51.7953 39.91 52.2423 39.8177 52.6598 39.7193C53.246 39.5807 53.7741 39.4306 54.217 39.3631C55.2536 39.2057 56.7255 39.1992 56.8942 39.2079C56.9581 39.2065 57.0455 39.1929 57.1153 39.1804C57.4536 38.9693 57.756 38.6916 58.0514 38.3276C58.0991 38.3331 58.1486 38.3387 58.1996 38.3436C58.8388 38.3986 59.2662 37.9315 59.7978 37.0159C60.0303 36.6135 60.285 36.1176 60.5927 35.5014C60.7904 35.1036 61.054 34.9555 61.2717 34.8312C61.3356 34.7945 61.3954 34.7594 61.4476 34.7205C61.6265 34.5867 61.5735 34.3533 61.506 34.0813C61.4188 33.727 61.306 33.3118 61.656 32.9074C62.7704 31.5956 62.4825 30.7408 62.2705 30.1377C62.2073 29.9602 62.1508 29.796 62.135 29.6389C62.1188 28.6036 62.3016 30.4681 62.3637 29.4278C62.4485 29.03 62.0659 28.3707 61.6622 27.9236C61.5105 27.7545 61.4119 27.4918 61.2865 27.1858C61.1571 26.8694 60.9978 26.5048 60.7303 26.1699C60.0504 25.3247 59.661 24.9378 59.3519 24.6233C59.2636 24.5351 59.1806 24.4533 59.0966 24.3742C58.8315 24.1239 58.523 23.8102 58.2019 23.5201C57.8183 23.1716 57.4158 22.86 57.0786 22.6854C56.3939 21.8844 56.2167 21.5417 55.2235 20.9481C54.7802 20.6732 54.4125 20.0985 54.1929 19.2973C53.9763 18.4968 53.9787 17.5526 54.2709 16.6657C54.5626 15.7792 55.0951 15.0028 55.8069 14.5119C56.5158 14.0214 57.3932 13.8816 58.2026 14.1533C59.7428 14.6064 61.741 15.8106 62.9867 16.9296C64.6116 18.3455 65.9127 20.0095 66.8899 21.806C67.5737 23.0652 68.1174 24.3745 68.5374 25.7124C68.5803 25.8495 68.622 25.9874 68.6627 26.1262C68.9527 26.6396 69.2339 27.2121 69.4585 27.7191C69.5853 28.044 69.6072 27.8999 69.7959 28.6319C69.9584 29.3407 69.8799 30.3123 69.7807 30.7225C69.7716 30.8194 69.7612 30.9131 69.7495 31.0027C69.673 31.5936 69.4445 32.0094 69.2488 32.3561C69.114 32.5951 68.9929 32.8086 68.9417 33.0432C68.9141 33.1698 68.8825 33.3444 68.8426 33.5557C68.6814 34.4162 68.3647 35.9266 67.6256 37.2172C67.3001 37.7878 66.8204 38.4207 66.3262 39.0066C65.6222 39.8495 64.874 40.5859 64.6406 41.061C64.2347 41.9048 63.4228 42.7165 62.5912 43.3329C61.8002 43.9282 61.0103 44.3357 60.6366 44.721C60.1805 45.1846 59.6757 45.3461 58.8374 45.5026C58.2437 45.6135 57.5073 45.6796 56.8162 45.7128C56.0683 45.754 55.4895 45.6718 55.0243 45.5933C54.3604 45.4818 53.8722 45.3886 53.125 45.6106C52.2949 45.8568 51.3713 45.9662 50.6448 45.8105C50.3163 45.7407 49.9311 45.6983 49.5219 45.6351C48.9822 45.5522 48.3967 45.4283 47.8886 45.181C47.4702 44.9776 47.1694 44.6687 46.9224 44.3876C46.8439 44.2992 46.7627 44.2102 46.6865 44.1279C46.3199 43.9586 46.031 43.794 45.7786 43.6527C45.7218 43.6532 45.6608 43.6548 45.5966 43.6555C45.2728 43.6578 44.8713 43.6543 44.4559 43.507C43.7972 43.2722 43.3519 42.8325 42.9075 42.3486C42.5607 41.9701 42.2135 41.5656 41.7424 41.163C41.4211 40.8881 41.0263 40.5912 40.6433 40.2636C40.0741 39.7808 39.536 39.2159 39.3098 38.7226C39.2247 38.5384 39.2345 38.3305 39.2505 38.128L39.2512 38.125C39.2522 38.1113 39.2532 38.0976 39.2542 38.0838C38.4827 36.8486 38.1214 36.0275 37.6518 34.9533C37.5937 34.8683 37.5365 34.7834 37.4802 34.6971C37.2046 34.2773 36.9508 33.8498 36.6892 33.5873C36.4047 33.3034 36.0879 32.4723 35.8371 31.538C35.6711 30.9271 35.5337 30.2734 35.4015 29.7274C35.3239 29.4079 35.44 29.097 35.568 28.7857C35.6877 28.4955 35.8172 28.2039 35.8134 27.8759C35.8116 27.7115 35.779 27.5297 35.748 27.3344C35.7204 27.1634 35.6947 26.9744 35.6941 26.7688C35.693 26.5789 35.822 26.1684 35.9909 25.7641C36.0924 25.5241 36.2229 25.2055 36.3586 24.8691C36.5164 23.9697 36.737 23.0805 37.0407 22.1885C37.021 21.9692 36.9684 21.7572 36.8687 21.5612C36.7972 21.4203 36.6995 21.2811 36.6012 21.1362C36.4675 20.9395 36.3315 20.7332 36.2609 20.4967C36.2055 20.3122 36.2362 20.1383 36.3377 20.0636C36.385 20.0289 36.4466 20.0157 36.5022 20.0042C36.566 19.9909 36.6227 19.9794 36.6433 19.9389C36.6581 19.9098 36.6435 19.863 36.6265 19.8054C36.5994 19.7137 36.5657 19.5929 36.6302 19.4746C36.8707 19.0323 37.2043 18.5556 37.559 18.1036C37.9531 17.5996 38.3737 17.1267 38.6918 16.7276C39.0466 16.2792 39.7178 15.7756 40.4278 15.3432C40.9264 15.0368 41.4187 14.7782 41.8656 14.5182C42.3193 14.2518 42.7362 13.9175 43.0539 13.6636C43.3792 13.3891 43.73 13.1113 44.1143 13.0454C44.192 13.0323 44.3403 13.1164 44.5247 13.2232C44.6554 13.2989 44.8057 13.3854 44.9617 13.4573C45.39 13.2508 45.8407 13.0535 46.3177 12.8714C46.3271 12.8468 46.3369 12.8217 46.3468 12.7962L46.347 12.7946C46.563 12.2228 46.941 11.4086 47.9508 11.5045C48.2059 11.5303 48.396 11.6608 48.5644 11.7796C48.73 11.8965 48.874 12.0031 49.0497 11.9949C49.2491 11.9858 49.4609 11.8489 49.7077 11.7063C50.0527 11.5062 50.4784 11.2944 50.9408 11.4177C50.9722 11.426 51.006 11.4355 51.041 11.445C51.3725 11.5342 51.8729 11.6855 52.3342 12.0346C53.7044 12.1847 55.4476 12.8535 56.3765 13.5292C57.5306 14.3707 58.6642 15.2495 59.7171 16.0338C60.2284 16.4153 60.5157 17.0299 60.5452 17.773C60.5632 18.5141 60.4431 19.3791 60.5243 20.2987C60.6037 21.2275 59.732 22.0671 58.8069 22.4406C57.8765 22.8291 56.9708 22.8571 56.2594 22.5996C55.1024 22.1758 54.0514 21.7697 53.0051 21.3618C52.9453 21.3504 52.8854 21.3382 52.826 21.325C52.4074 21.2397 51.8074 21.2018 51.7475 21.4757C51.7258 21.5325 51.7234 21.5974 51.7219 21.6591Z" fill="#2E160C"/>
<path d="M86.0435 13.1531C86.5064 13.3432 86.3805 13.8169 86.3166 14.086C86.3158 14.0909 86.3144 14.0958 86.3137 14.1007C86.2988 14.164 86.3002 14.2229 86.3023 14.2909C86.3087 14.4533 86.3158 14.6714 86.1082 15.1738C86.1388 15.3057 86.1658 15.44 86.1872 15.5741C86.436 17.106 86.2959 18.2406 86.2959 20.2981C86.303 20.3217 86.3102 20.3458 86.3173 20.3703C86.4545 20.8413 86.6016 21.3922 86.4943 21.7572C86.3599 22.2334 86.2099 22.5448 86.0791 22.8023C85.9085 24.2149 85.7215 25.5541 85.7002 26.873C85.6938 27.2876 85.7037 27.7016 85.7336 28.1062C85.7613 28.4832 85.8011 28.8553 85.8523 29.2326C85.9625 29.4426 86.0898 29.6434 86.2071 29.8315C86.372 30.0926 86.5177 30.3247 86.5732 30.5238C86.7047 30.9955 86.5718 31.5491 86.4715 31.9612C86.4559 32.029 86.4403 32.0914 86.4267 32.1494C86.5035 32.4641 86.5839 32.7849 86.6649 33.0997C86.6294 33.1228 86.5924 33.1461 86.5547 33.1698C86.0798 33.4677 86.1018 33.798 86.1345 34.3286C86.1488 34.5561 86.1644 34.8213 86.1424 35.1379C86.1274 35.3389 85.9383 35.4502 85.7841 35.5411C85.7386 35.5678 85.6959 35.5928 85.6618 35.6178C85.5452 35.7036 85.6781 35.7839 85.836 35.8794C86.04 36.0032 86.2846 36.1484 86.077 36.3642C85.4144 37.0536 85.8907 37.3212 86.2511 37.5312C86.3571 37.5922 86.453 37.6461 86.5071 37.7036C86.682 37.8895 86.5241 38.1673 86.3016 38.3815C86.1253 38.5493 86.3158 38.8656 86.5533 39.1021C86.6429 39.1919 86.6486 39.3153 86.655 39.4623C86.6621 39.6143 86.6692 39.7909 86.7723 39.9765C87.0438 40.4215 87.181 40.5978 87.2905 40.7789C87.3218 40.8294 87.351 40.882 87.3808 40.9311C87.4754 41.0849 87.5607 41.2853 87.6467 41.4862C87.7505 41.7288 87.8572 41.9787 87.9865 42.1703C87.9162 42.7358 87.855 43.179 87.7086 44.2441C87.5955 44.7062 87.2749 46.1878 85.2772 47.0369C83.3114 47.5027 83.2496 46.09 83.1948 45.2505C83.1372 44.3837 83.3989 43.1172 82.0637 43.134C80.6788 43.4525 80.3553 44.1965 80.2679 44.0946C80.1257 44.0122 79.9252 43.4043 79.7567 42.8989C79.5484 42.2405 79.3885 41.5978 79.3316 40.7994C79.2861 40.2544 79.3117 39.8162 79.3337 39.3331C79.3366 39.2839 79.3394 39.2347 79.3423 39.1856C79.0998 38.7964 78.8766 38.4072 78.7927 38.1349C78.723 37.9104 78.8403 37.7436 78.9406 37.5998C79.0095 37.501 79.0707 37.4138 79.0572 37.3285C79.0501 37.2826 79.0337 37.2202 79.0138 37.1453C78.9328 36.8386 78.7948 36.318 79.0003 35.8273C79.0913 35.6105 79.2776 35.3567 79.4553 35.1112C79.7098 34.762 79.9458 34.4364 79.8612 34.2801C79.7141 34.0072 79.8129 33.6817 79.901 33.3941C79.9842 33.1215 80.0567 32.8793 79.8939 32.7533C79.6991 32.6019 79.7688 32.466 79.8698 32.2543C79.9402 32.1086 80.0262 31.9302 80.0518 31.6954C80.0809 31.4211 80.2004 31.221 80.3013 31.053C80.4442 30.8175 80.5508 30.6319 80.3191 30.3905C80.0617 30.1227 79.8897 29.8302 79.9501 29.5947C79.9778 29.4845 79.9608 29.3624 79.9437 29.2364C79.9202 29.0699 79.8961 28.8955 79.97 28.727C80.0312 28.5888 80.2046 28.4665 80.3582 28.3583C80.4058 28.3245 80.4513 28.2927 80.4911 28.2609C80.4812 28.1539 80.4691 28.0477 80.4556 27.9424C80.425 27.9275 80.3916 27.9121 80.3568 27.8959C80.1819 27.8146 79.9679 27.7182 79.8541 27.5814C79.6735 27.366 79.7589 27.1665 79.8477 26.9449C79.9174 26.7734 79.9906 26.6025 79.9409 26.4087C79.9074 26.2775 79.8193 26.1346 79.7318 25.9956C79.6017 25.7842 79.4731 25.5795 79.5257 25.4245C79.5456 25.3649 79.6536 25.3044 79.7617 25.2444L79.7638 25.2435C79.7709 25.2395 79.7781 25.2354 79.7859 25.2313C79.6608 24.8748 79.5243 24.5262 79.3799 24.1749C79.3465 24.1474 79.3145 24.1196 79.2818 24.0923C79.1254 23.9605 78.9719 23.8271 78.7692 23.7584C78.5496 23.6849 78.3946 23.4404 78.2303 23.2005C78.1216 23.0351 78.0107 22.8805 77.8727 22.7535C77.7931 22.6811 77.8962 22.5856 78.0028 22.4875C78.1017 22.3959 78.2026 22.296 78.1593 22.2195C78.1379 22.181 78.0818 22.1457 78.0228 22.1102C77.9701 22.0779 77.914 22.0433 77.8763 22.0054C77.8415 21.9689 77.8884 21.874 77.9438 21.7391C77.978 21.6562 78.0164 21.5619 78.0427 21.4646C77.9182 21.2465 77.7825 20.9741 77.6545 20.6797C77.54 20.638 77.3971 20.6106 77.2201 20.6024C77.0928 20.5964 76.9428 20.6 76.79 20.6032C76.581 20.6072 76.3656 20.6107 76.1885 20.5901C76.0499 20.574 75.988 20.534 76.035 20.4895C76.057 20.4688 76.1018 20.4472 76.1423 20.4276C76.1885 20.4052 76.2298 20.3854 76.2255 20.3724C76.2227 20.363 76.1857 20.3601 76.1416 20.3564C76.0705 20.3506 75.9788 20.3425 75.9681 20.3049C75.9276 20.1653 75.9234 20.0007 75.9198 19.8371C75.9155 19.6561 75.9113 19.4789 75.8594 19.3472C75.8011 19.2002 75.8892 18.957 75.9774 18.7137C76.0392 18.5442 76.1011 18.3755 76.1146 18.2373C76.1281 18.1026 76.0328 17.9801 75.9411 17.8615C75.8302 17.72 75.7236 17.5798 75.8167 17.4334C75.8352 17.4038 75.9703 17.3484 76.1395 17.2794C76.2596 17.2306 76.3961 17.1747 76.522 17.1165C76.4957 16.9545 76.4758 16.7896 76.4615 16.6256C76.4416 16.6228 76.4217 16.6198 76.4004 16.6169L76.399 16.6169C75.9312 16.5501 75.2899 16.4524 75.6184 16.1366C75.7023 16.0568 75.8679 15.9913 76.0172 15.9318C76.1637 15.8735 76.2952 15.8218 76.3172 15.7696C76.3421 15.7103 76.2397 15.6591 76.1288 15.6013C75.9731 15.5201 75.7989 15.4288 75.9333 15.2977C75.9425 15.2887 75.9525 15.279 75.9625 15.2689C76.0577 15.1735 76.1985 15.0344 76.4985 14.8771C76.5397 14.5129 76.5995 14.1475 76.672 13.7789C76.7935 13.1664 76.9528 12.5488 77.1291 11.9321C77.2158 11.6308 77.6381 11.3289 78.3242 11.1113C79.011 10.8932 79.8996 10.7801 80.8182 10.7745C81.7374 10.7682 82.6254 10.862 83.3199 11.0118C84.0131 11.1631 84.451 11.3598 84.5627 11.5813C84.7425 11.9421 84.9316 12.3043 85.1144 12.6678C85.1357 12.6858 85.1556 12.7039 85.1748 12.722C85.3163 12.8579 85.5864 12.9694 85.858 13.0782C85.9206 13.1031 85.9831 13.128 86.0435 13.1531Z" fill="#2E160C"/>
<path d="M100.691 23.648C101.134 23.8367 100.96 24.1961 100.866 24.4044C100.864 24.408 100.862 24.4117 100.861 24.4153C100.839 24.4627 100.833 24.5076 100.827 24.5609C100.814 24.6887 100.796 24.8621 100.523 25.2219C100.535 25.3254 100.543 25.4317 100.545 25.5338C100.57 26.6602 100.234 27.7897 99.8304 28.9331C99.8326 28.9472 99.8354 28.9614 99.8383 28.9758C99.8923 29.2567 99.9598 29.6044 99.807 29.8328C99.6115 30.1174 99.4288 30.3181 99.2709 30.4786C98.9553 31.3782 98.6389 32.3332 98.5898 33.0506C98.5714 33.2806 98.5799 33.5657 98.6105 33.8223C98.6396 34.0632 98.6844 34.3014 98.7441 34.541C98.8586 34.6684 98.9908 34.788 99.1138 34.8979C99.2859 35.0525 99.4401 35.1909 99.5034 35.3161C99.6541 35.617 99.5525 36.0136 99.4771 36.3159C99.4643 36.3652 99.4529 36.412 99.443 36.4551C99.5382 36.6724 99.6371 36.8939 99.7373 37.1198C99.7032 37.1409 99.6676 37.1623 99.6314 37.184C99.1778 37.4553 99.2197 37.6995 99.2795 38.0959C99.3051 38.2665 99.3349 38.4752 99.3257 38.7193C99.32 38.8766 99.1351 38.9701 98.9837 39.0482C98.9396 39.0709 98.8984 39.092 98.865 39.1127C98.7512 39.1833 98.8863 39.2339 99.0463 39.2951C99.2532 39.3736 99.5027 39.4766 99.3008 39.654C98.6545 40.2067 99.1323 40.3784 99.4956 40.522C99.6015 40.5635 99.6975 40.6016 99.7522 40.6432C99.9293 40.7779 99.7743 40.9941 99.5532 41.1597C99.3776 41.291 99.5695 41.5252 99.8063 41.7006C99.8958 41.7668 99.9022 41.8613 99.9086 41.9725C99.915 42.0874 99.9221 42.2201 100.024 42.3589C100.282 42.7094 100.406 42.8974 100.505 43.0478C100.534 43.0909 100.559 43.1309 100.586 43.1708C100.671 43.2967 100.741 43.4548 100.812 43.6143C100.898 43.8049 100.984 43.9989 101.096 44.1449C100.986 44.5309 100.846 44.9145 100.706 45.2931C100.633 45.4886 100.214 45.6758 99.5226 45.8168C98.8309 45.9566 97.9273 46.0387 96.991 46.045C96.0539 46.0521 95.1503 45.9824 94.4557 45.8537C93.7626 45.7238 93.3403 45.5471 93.2642 45.3595C93.1121 44.9833 92.9585 44.609 92.8341 44.2389C92.6827 43.7885 92.5732 43.3409 92.5597 42.8958C92.5504 42.5841 92.5618 42.2737 92.5881 41.9646C92.591 41.9328 92.5945 41.901 92.5974 41.8692C92.3556 41.6215 92.1324 41.3798 92.0478 41.2076C91.9774 41.0657 92.094 40.953 92.1928 40.8558C92.2611 40.7889 92.3215 40.7297 92.3073 40.6751C92.3002 40.6456 92.2831 40.6059 92.2625 40.5584C92.1779 40.3571 92.0364 40.0695 92.2284 39.7298C92.3137 39.577 92.4929 39.405 92.6628 39.2411C92.9066 39.0071 93.127 38.764 93.0374 38.6718C92.8796 38.5089 92.9628 38.2843 93.0353 38.0802C93.1043 37.8862 93.1626 37.7122 92.9941 37.6442C92.7929 37.5628 92.8533 37.4575 92.9422 37.2984C93.004 37.188 93.0794 37.052 93.0907 36.8786C93.1035 36.6786 93.2109 36.5191 93.3026 36.3841C93.4313 36.1936 93.528 36.0502 93.2855 35.8928C93.0168 35.7174 92.8327 35.5128 92.8839 35.3259C92.9066 35.2401 92.886 35.1492 92.864 35.0532C92.8355 34.9263 92.8064 34.7922 92.8768 34.6587C92.9343 34.548 93.105 34.4426 93.2564 34.3501C93.3033 34.3212 93.3488 34.2935 93.3879 34.2672C93.3765 34.1865 93.3637 34.108 93.3495 34.0272C93.319 34.0173 93.2855 34.0067 93.2507 33.9962C93.0758 33.9427 92.8618 33.8769 92.7481 33.7723C92.5682 33.6052 92.6528 33.4153 92.7445 33.2318C92.8163 33.0907 92.8903 32.9458 92.8554 32.8034C92.8305 32.7045 92.7516 32.595 92.6741 32.4864C92.5583 32.3265 92.4445 32.1602 92.5085 32.0413C92.5327 31.9965 92.645 31.954 92.7573 31.9122L92.7595 31.9117C92.7673 31.9088 92.7744 31.906 92.7822 31.9032C92.6848 31.6281 92.5789 31.3481 92.468 31.0802C92.4381 31.0575 92.4083 31.0347 92.3791 31.012C92.2355 30.9014 92.0969 30.795 91.9021 30.7294C91.6916 30.6599 91.5637 30.4604 91.4293 30.2573C91.3411 30.1252 91.2501 29.9827 91.1314 29.871C91.0617 29.8056 91.1769 29.7379 91.2964 29.6687C91.4073 29.605 91.5217 29.5357 91.4904 29.4674C91.4748 29.4329 91.425 29.3969 91.3717 29.3586C91.3248 29.3248 91.275 29.2893 91.2444 29.2515C91.2153 29.2162 91.2771 29.1357 91.3554 29.0281C91.4037 28.9621 91.4584 28.8875 91.5032 28.8103C91.4236 28.614 91.3475 28.41 91.2764 28.2133C91.1719 28.1748 91.0376 28.1421 90.8648 28.1176C90.7411 28.1 90.5932 28.0862 90.4418 28.0721C90.2363 28.0529 90.0238 28.033 89.8539 28.0023C89.7209 27.9782 89.6676 27.9472 89.7216 27.9239C89.7472 27.9131 89.7948 27.904 89.8382 27.8957C89.888 27.8863 89.9321 27.8779 89.9306 27.8691C89.9292 27.8628 89.8937 27.8572 89.851 27.8502C89.7821 27.8392 89.6939 27.8247 89.6896 27.7993C89.6754 27.7061 89.701 27.5918 89.7259 27.4849C89.7536 27.3654 89.7806 27.2498 89.7522 27.1563C89.7195 27.0514 89.8475 26.9061 89.9747 26.7509C90.0629 26.6443 90.1517 26.5392 90.1866 26.451C90.2214 26.3637 90.146 26.2722 90.0735 26.1867C89.9861 26.0841 89.9015 25.985 90.0145 25.8952C90.038 25.8772 90.1795 25.8523 90.3572 25.8213C90.4823 25.7993 90.6266 25.7741 90.7589 25.7463C90.7567 25.6389 90.7596 25.5266 90.7681 25.4172C90.7489 25.4138 90.729 25.4103 90.7091 25.4067L90.7077 25.4065C90.2534 25.3274 89.6313 25.2146 89.9975 25.0345C90.0906 24.989 90.2634 24.9584 90.419 24.9309C90.5719 24.9043 90.7084 24.8786 90.7368 24.8455C90.7688 24.8079 90.6736 24.7664 90.5705 24.7215C90.4254 24.6581 90.2634 24.591 90.4119 24.5119C90.4219 24.5066 90.4333 24.5009 90.4439 24.495C90.5499 24.4388 90.7056 24.3566 91.0205 24.2741C91.1008 24.0359 91.1961 23.8044 91.3006 23.5675C91.4755 23.1765 91.6753 22.7837 91.8765 22.3905C91.976 22.2033 92.4054 22.0137 93.095 21.8757C93.7846 21.7337 94.6726 21.6566 95.5918 21.6512C96.5104 21.6435 97.399 21.7088 98.0915 21.8367C98.7825 21.9607 99.2155 22.1354 99.3186 22.3142C99.4842 22.6103 99.6513 22.9127 99.8056 23.2067C99.8248 23.2225 99.844 23.2383 99.861 23.2543C99.9918 23.365 100.252 23.4768 100.512 23.5766C100.573 23.6001 100.632 23.6239 100.691 23.648Z" fill="#2E160C"/>
<path d="M90.7703 12.1362C90.0203 12.8946 91.0177 15.6781 91.873 16.1424C91.8872 16.1547 91.9014 16.1667 91.9157 16.1787C92.1012 16.3314 92.2697 16.4694 92.4773 16.6138C92.9991 16.9004 93.5828 17.5818 95.7768 17.1378C96 17.1373 96.8552 16.9016 97.1389 16.734C98.0731 16.1571 98.6596 15.9735 99.2461 13.8761C99.5796 12.5079 99.0094 10.8464 98.3774 10.1256C97.7567 9.3734 97.269 9.1553 96.883 8.9926C95.3921 8.34461 93.6361 9.28606 93.4989 9.77623C93.4939 9.77708 93.4868 9.7797 93.4776 9.78451C93.1669 9.99064 93.0389 10.1142 93.1207 10.2873C93.2394 10.4942 93.42 10.5746 93.5736 10.6262C93.9717 10.2533 94.079 11.8273 95.3701 12.1554C96.1464 12.4141 96.4934 12.2234 96.6597 12.1799C96.8169 12.1201 96.819 12.1219 96.8666 12.1209C96.9327 12.1904 97.0095 12.274 97.0906 12.3415C97.2036 12.4375 97.3238 12.4996 97.3785 12.4933C97.4979 12.4923 97.5413 12.153 97.4347 11.5449C97.4162 11.4488 97.3927 11.3494 97.365 11.2504C97.3785 10.715 97.0472 9.58986 95.8976 8.97163C95.8137 8.97234 95.7547 8.99047 95.7142 9.01625C94.7395 9.15771 94.308 9.31128 93.9994 9.421C93.8693 9.47398 93.7861 9.52718 93.7534 9.60233C93.6887 9.69271 93.9113 9.74903 94.0087 9.87228C94.0421 9.90486 94.0719 9.93603 94.0968 9.96068C94.1814 10.0462 94.1011 9.9407 93.9873 9.837C93.8437 9.69746 93.6525 9.55508 93.8544 9.64016C94.5212 9.86916 94.1508 9.5344 93.806 9.44657C93.7072 9.41533 93.6155 9.39493 93.5622 9.39238C93.393 9.34322 93.506 9.71658 93.7449 9.7826C93.9219 9.91378 93.7776 10.5375 94.0335 11.2299C94.1203 11.4834 94.3954 11.7663 94.7679 11.973C95.159 12.1902 95.6047 12.315 96.0967 12.3987C97.2249 12.5742 97.6678 12.2459 97.9003 12.197C97.9721 12.1715 98.0326 12.1483 98.0916 12.1258C98.2778 12.0547 98.4435 11.9507 98.5828 11.8507C98.7542 11.7233 98.8793 11.6344 99.0279 11.5352C99.0186 11.1533 98.816 11.2421 98.6738 11.4495C98.5956 11.5585 98.1748 11.7096 97.483 11.8422C96.7906 11.9747 95.8877 12.0641 94.9507 12.07C94.0143 12.076 93.11 12.0078 92.4162 11.8628C91.723 11.7179 91.3014 11.4954 91.2346 11.2225C91.113 10.6668 90.9637 10.0149 91.194 8.9195C91.4919 7.75216 91.9462 6.33164 94.1686 5.31504C95.7618 4.56565 98.6553 5.0207 99.918 7.06254C100.045 7.25711 100.155 7.45785 100.246 7.65675C101.237 9.23811 101.122 10.5553 101.091 11.1119C101.039 11.6128 100.817 11.8545 100.634 12.0444C100.507 12.1741 100.394 12.2769 100.346 12.407C100.32 12.4773 100.291 12.5744 100.253 12.6893C100.091 13.1672 99.822 13.8926 98.9945 14.4654C98.6681 14.6739 98.1698 14.8701 97.6593 14.9967C96.9313 15.1856 96.1806 15.2128 95.7988 15.3845C95.2059 15.7106 93.7385 15.6277 92.8505 14.9952C91.6853 14.2531 91.3697 13.2763 91.0561 12.8766C90.6822 12.3679 90.6957 11.8504 90.8315 11.3074C90.9225 10.9472 91.113 10.4657 91.2694 10.1343C91.5026 9.60106 91.7521 9.45131 91.9704 9.29116C92.2782 9.081 92.4944 8.97843 92.5477 8.57418C92.6088 8.12418 92.8171 7.70747 93.152 7.53669C93.3368 7.43398 93.4115 7.36818 93.5935 7.23607C93.8451 7.05748 94.079 6.91598 94.384 6.87479C94.6307 6.84321 94.8888 6.9458 95.1042 7.05089C95.1717 7.08371 95.2357 7.11608 95.2962 7.1447C95.4846 7.09646 95.6886 7.05785 95.9111 7.03652C95.9453 7.00486 95.9829 6.97038 96.0227 6.93546C96.2239 6.76145 96.5289 6.55543 96.9662 6.53989C97.6742 6.51624 98.2473 6.95528 98.5288 7.31257C98.7698 7.60334 98.9419 7.89454 99.2021 8.17143C99.3798 8.36126 99.6066 8.56646 99.8184 8.82281C100.133 9.19468 100.405 9.72728 100.385 10.1844C100.378 10.3396 100.274 10.5614 100.158 10.7019L100.155 10.7039C100.148 10.7135 100.14 10.7228 100.132 10.7319C100.189 11.3231 100.225 11.6773 100.214 12.1772C100.233 12.2237 100.251 12.2712 100.268 12.3188C100.352 12.5511 100.419 12.7912 100.554 12.9895C100.701 13.2034 100.677 13.6343 100.571 14.1233C100.502 14.4432 100.396 14.7857 100.32 15.0981C100.275 15.2813 100.075 15.3512 99.8725 15.4094C99.6819 15.4646 99.4893 15.5103 99.3862 15.661C99.3336 15.7373 99.3037 15.8372 99.2483 15.9632C99.1999 16.0727 99.1416 16.1918 99.0805 16.2845C98.9994 16.3877 98.9248 16.3804 98.543 16.5577C98.3368 16.6427 98.1193 16.7153 97.8733 16.7968C97.3266 17.1805 96.6157 17.5117 95.7903 17.6542C95.6275 17.7729 95.4774 17.9126 95.3495 18.0854C95.2585 18.2094 95.1746 18.3553 95.0822 18.5028C94.9521 18.7026 94.8355 18.91 94.5845 19.0548C94.3876 19.1677 94.212 19.1939 94.1508 19.1282C94.121 19.0974 94.1061 19.0463 94.0876 18.9991C94.067 18.945 94.0463 18.8964 94.0065 18.8903C93.9781 18.8859 93.9397 18.9144 93.8878 18.9472C93.8075 19 93.6759 19.0618 93.5302 19.028C93.0489 18.9173 92.5491 18.7102 92.0351 18.4127C91.4649 18.0837 90.8677 17.6297 90.3146 17.0901C89.7345 16.5243 88.72 15.0797 88.8266 12.8832C88.8757 11.988 89.3897 10.6706 89.694 10.2262C90.0125 9.69144 90.2698 9.23045 90.5492 8.81927C90.8819 8.33031 91.2616 7.91728 91.7244 7.74883C91.8183 7.71519 91.9967 7.76945 92.2128 7.84899C92.3664 7.90538 92.5391 7.9743 92.7169 8.03316C93.1633 7.78673 94.1124 7.51735 94.539 7.49433C94.5603 7.47237 94.5838 7.44999 94.6094 7.42725L94.6101 7.42569C95.2947 6.90161 96.3206 6.32183 97.3429 7.07996C97.5875 7.27057 97.6771 7.50425 97.7453 7.71009C97.8122 7.91338 97.8584 8.09209 98.0006 8.20953C98.1627 8.34327 98.415 8.39689 98.6959 8.4867C99.0862 8.60903 99.5447 8.82125 99.7296 9.28698C99.7424 9.31857 99.7552 9.35278 99.7687 9.38827C99.8867 9.70398 100.099 10.3206 99.9962 10.9098C100.5 12.2907 100.239 13.8229 99.7232 14.7477C98.8459 16.3732 97.3934 17.0357 96.236 17.2119C95.7369 17.138 94.352 17.8074 92.8456 15.162C92.7389 13.1684 94.1402 13.9407 94.9627 13.7819C95.7711 13.5898 97.247 14.7079 97.0479 12.4689C95.1383 9.49481 94.0854 10.4021 93.8721 10.181C93.378 10.2033 92.9366 10.1546 92.1815 10.9181C92.1403 10.9446 92.0998 10.973 92.0607 11.0033C91.7699 11.2278 91.3789 11.4482 91.0128 11.8398C90.9289 11.9295 90.8471 12.028 90.7703 12.1362Z" fill="#2E160C"/>
<path d="M116.052 14.822C116.511 15.24 116.371 16.095 116.297 16.5658C116.295 16.5745 116.294 16.5831 116.293 16.5918C116.275 16.7036 116.275 16.8086 116.274 16.9313C116.273 17.2248 116.272 17.6203 116.037 18.4596C116.061 18.6982 116.081 18.938 116.094 19.1764C116.232 21.7862 116.118 24.1818 115.916 27.0152C115.921 27.0499 115.926 27.0854 115.931 27.1211C116.032 27.8101 116.144 28.6932 116.007 29.2688C115.834 29.9989 115.651 30.5035 115.488 30.9163C115.084 33.3994 114.725 35.0256 114.62 37.1799C114.584 37.829 114.57 38.4813 114.578 39.1353C114.586 39.7373 114.609 40.341 114.644 40.946C114.744 41.2971 114.863 41.6316 114.972 41.9419C115.126 42.3788 115.262 42.7678 115.308 43.0919C115.421 43.8714 115.263 44.7632 115.141 45.4291C115.121 45.5388 115.103 45.6422 115.087 45.7373C115.147 46.2666 115.2 46.8291 115.274 47.2239C115.239 47.2522 115.201 47.2807 115.163 47.3099C114.684 47.6812 114.709 48.1693 114.788 48.9578C114.822 49.3033 114.867 49.7143 114.884 50.218C114.895 50.5403 114.72 50.7297 114.577 50.8846C114.536 50.9308 114.496 50.9717 114.465 51.0136C114.359 51.1567 114.503 51.2846 114.672 51.4336C114.892 51.6301 115.156 51.8665 114.973 52.2301C114.39 53.3926 114.888 53.831 115.267 54.1788C115.378 54.2785 115.478 54.3706 115.537 54.4695C115.727 54.7847 115.589 55.2599 115.379 55.6271C115.212 55.909 115.42 56.4623 115.665 56.8717C115.758 57.0262 115.769 57.2453 115.78 57.5044C115.791 57.7773 115.803 58.1001 115.908 58.4453C116.185 59.2645 116.268 59.9174 116.34 60.2808C116.36 60.3931 116.377 60.5012 116.395 60.6061C116.452 60.9416 116.479 61.3647 116.509 61.7282C116.545 62.1634 116.597 62.5078 116.693 62.7532C116.536 63.4251 116.383 64.2526 116.238 65.0743C116.162 65.4982 115.744 65.9119 115.053 66.2245C114.362 66.5354 113.46 66.7198 112.523 66.7252C111.587 66.7328 110.682 66.5635 109.986 66.2544C109.292 65.9439 108.869 65.5139 108.796 65.059C108.651 64.14 108.504 63.2228 108.452 62.1604C108.405 60.7979 108.446 59.8514 108.443 59.136C108.431 58.4314 108.434 57.8102 108.444 57.0625C108.446 56.9901 108.447 56.9126 108.448 56.8376C108.191 56.2447 107.948 55.6569 107.846 55.2359C107.763 54.8965 107.867 54.6324 107.955 54.4055C108.016 54.2511 108.07 54.1137 108.049 53.9795C108.038 53.9072 108.016 53.8143 107.989 53.6939C107.879 53.2166 107.683 52.403 107.826 51.6036C107.889 51.2449 108.041 50.8178 108.188 50.3949C108.397 49.7928 108.598 49.2097 108.501 48.928C108.328 48.4291 108.411 47.8329 108.503 47.271C108.592 46.7362 108.686 46.3724 108.53 46.1514C108.344 45.8918 108.421 45.6749 108.533 45.3443C108.611 45.1168 108.706 44.8345 108.742 44.449C108.783 44.0064 108.911 43.6891 109.02 43.42C109.172 43.0418 109.287 42.7544 109.066 42.3331C108.82 41.8637 108.66 41.3728 108.73 40.9819C108.762 40.8039 108.751 40.6008 108.739 40.3893C108.724 40.1094 108.707 39.8145 108.79 39.5436C108.858 39.3203 109.037 39.1344 109.197 38.9694C109.246 38.9179 109.293 38.8686 109.334 38.821C109.33 38.6442 109.324 38.4662 109.317 38.2891C109.288 38.2607 109.255 38.231 109.221 38.1999C109.051 38.0431 108.843 37.851 108.739 37.6099C108.572 37.2282 108.672 36.8925 108.778 36.535C108.86 36.2579 108.946 35.9706 108.915 35.6381C108.893 35.4125 108.819 35.1536 108.747 34.8987C108.639 34.5156 108.535 34.1389 108.606 33.8752C108.633 33.7763 108.749 33.6931 108.864 33.6116L108.866 33.6105C108.874 33.605 108.882 33.5994 108.889 33.5939C108.812 32.9639 108.738 32.2448 108.659 31.6683C108.631 31.6186 108.604 31.5697 108.577 31.5221C108.442 31.2906 108.309 31.0768 108.116 30.9273C107.908 30.7686 107.783 30.371 107.64 29.9443C107.547 29.6652 107.446 29.3739 107.318 29.1377C107.242 28.9996 107.352 28.8578 107.464 28.7097C107.568 28.5715 107.675 28.4279 107.636 28.2807C107.616 28.207 107.561 28.1299 107.503 28.0473C107.452 27.9747 107.397 27.8979 107.361 27.8158C107.327 27.7394 107.377 27.5596 107.44 27.3261C107.478 27.1819 107.521 27.0171 107.553 26.8442C107.441 26.4043 107.329 25.9593 107.221 25.5078C107.109 25.4219 106.968 25.3514 106.791 25.3013C106.663 25.2654 106.513 25.2387 106.359 25.2113C106.149 25.1739 105.933 25.1349 105.757 25.0694C105.62 25.0184 105.56 24.9483 105.611 24.8931C105.633 24.8671 105.68 24.8447 105.721 24.8243C105.77 24.8009 105.812 24.7801 105.809 24.7597C105.807 24.745 105.77 24.7328 105.726 24.7178C105.655 24.6939 105.564 24.6626 105.555 24.6029C105.522 24.3794 105.528 24.1238 105.533 23.8627C105.539 23.5727 105.545 23.2865 105.502 23.073C105.453 22.8362 105.557 22.4628 105.662 22.0963C105.736 21.8486 105.811 21.5989 105.834 21.3865C105.857 21.1815 105.771 20.9726 105.688 20.7744C105.588 20.5326 105.491 20.3029 105.594 20.0956C105.616 20.0541 105.754 19.9957 105.928 19.9224C106.052 19.8704 106.193 19.8106 106.322 19.7441C106.307 19.491 106.299 19.2367 106.295 18.9831C106.275 18.9752 106.255 18.9671 106.235 18.9589L106.233 18.9586C105.77 18.7742 105.136 18.5234 105.483 18.103C105.571 17.9959 105.741 17.9229 105.894 17.8573C106.044 17.7928 106.179 17.7352 106.204 17.6597C106.232 17.5739 106.133 17.4792 106.025 17.3763C105.874 17.2317 105.705 17.0694 105.846 16.8917C105.856 16.8796 105.866 16.8665 105.876 16.8529C105.977 16.7242 106.125 16.5335 106.433 16.3368C106.491 15.7937 106.566 15.2491 106.651 14.705C106.793 13.7965 106.964 12.8861 107.143 11.9716C107.231 11.5233 107.653 11.085 108.338 10.7578C109.024 10.4336 109.912 10.2496 110.831 10.2459C111.75 10.2381 112.639 10.4001 113.334 10.6778C114.029 10.9595 114.47 11.3429 114.583 11.7608C114.765 12.4374 114.952 13.1221 115.131 13.8071C115.151 13.8426 115.171 13.8783 115.19 13.914C115.329 14.1787 115.599 14.4177 115.868 14.6564C115.93 14.7113 115.992 14.7665 116.052 14.822Z" fill="#2E160C"/>
<path d="M110.05 8.37243C110.159 7.67458 111.102 7.1179 111.658 6.82483C111.669 6.81906 111.679 6.81329 111.69 6.80751C111.825 6.73445 111.943 6.65372 112.076 6.56535C112.292 6.42246 112.163 6.50431 112.84 6.10999C113.608 5.67512 114.698 5.31271 115.781 5.27824C116.402 5.16295 116.956 5.13252 117.45 5.13998C120.198 5.29755 120.812 5.71011 122.957 6.57073C125.121 7.6104 126.373 9.01063 127.375 10.3111C127.406 10.3389 127.438 10.3674 127.469 10.3962C128.076 10.9484 128.74 11.6364 129 12.2175C129.288 12.9004 129.45 13.4437 129.58 13.9312C130.832 16.4119 131.355 19.0485 131.413 21.5449C131.434 22.3252 131.417 23.0876 131.381 23.8319C131.349 24.5172 131.297 25.1882 131.234 25.8462C131.277 26.2398 131.333 26.6159 131.379 26.9643C131.445 27.4524 131.493 27.8862 131.466 28.2275C131.402 29.0528 131.033 29.8932 130.758 30.4971C130.714 30.596 130.671 30.689 130.633 30.775C130.566 31.2902 130.502 31.7968 130.443 32.2971C130.399 32.3205 130.354 32.3438 130.307 32.3674C129.731 32.6568 129.559 33.3476 129.213 34.2823C129.06 34.6923 128.868 35.1627 128.576 35.6804C128.387 36.0165 128.122 36.0982 127.909 36.1617C127.846 36.1803 127.787 36.1973 127.735 36.2184C127.558 36.2907 127.595 36.4901 127.632 36.7279C127.681 37.0376 127.726 37.4227 127.33 37.6294C126.072 38.2681 126.108 38.9127 126.103 39.4688C126.102 39.6291 126.1 39.7725 126.061 39.894C125.939 40.2855 125.444 40.5623 124.998 40.675C124.646 40.7646 124.31 41.3169 124.071 41.8058C123.984 41.9889 123.783 42.1528 123.541 42.335C123.297 42.5198 122.954 42.7629 122.677 43.0516C120.226 44.5061 120.64 44.1146 119.966 44.3997C119.829 44.4471 119.7 44.4883 119.57 44.5284C119.159 44.6556 118.638 44.7533 118.107 44.8127C117.472 44.8856 116.83 44.9028 116.336 44.9377C115.193 44.6453 113.728 44.1251 112.651 43.3234C112.104 42.9338 111.866 42.2541 111.994 41.4957C112.119 40.7338 112.534 39.9177 113.088 39.1657C113.643 38.4133 114.329 37.8006 114.955 37.399C115.583 36.9999 116.046 36.8054 116.283 36.8516C116.704 36.934 117.076 36.8311 117.63 36.8073C118.245 36.7502 118.761 36.6112 119.186 36.5011C119.041 36.6043 119.011 36.552 119.54 36.2011C119.585 36.1693 119.627 36.139 119.671 36.1069C119.858 35.6442 120.015 35.1891 120.166 34.9147C120.29 34.6896 120.502 34.6302 120.685 34.5737C120.811 34.5342 120.923 34.4974 120.976 34.412C121.005 34.3659 121.038 34.3003 121.076 34.2196C121.238 33.8892 121.468 33.3383 121.925 32.9638C122.13 32.7963 122.434 32.6285 122.721 32.4457C123.131 32.1892 123.507 31.889 123.491 31.6937C123.466 31.351 123.675 31.0444 123.893 30.5887C124.094 30.1908 124.269 29.8461 124.169 29.602C124.051 29.3108 124.177 29.1211 124.363 28.8406C124.491 28.646 124.647 28.4076 124.767 28.0647C124.905 27.67 125.095 27.4152 125.255 27.1964C125.48 26.8901 125.648 26.6547 125.505 26.2397C125.345 25.7801 125.26 25.3363 125.379 25.0178C125.433 24.8726 125.446 24.6993 125.456 24.5226C125.47 24.2871 125.479 24.0452 125.579 23.8304C125.662 23.6539 125.851 23.5127 126.016 23.3833C126.068 23.343 126.117 23.3039 126.16 23.2658C126.161 23.1182 126.159 22.9711 126.153 22.8256C126.124 22.8023 126.091 22.7779 126.057 22.7527C125.888 22.6257 125.678 22.4778 125.566 22.2983C125.388 22.015 125.467 21.7633 125.539 21.4854C125.596 21.2705 125.648 21.0409 125.568 20.8054C125.514 20.6456 125.399 20.4766 125.28 20.3188C125.104 20.0823 124.921 19.8694 124.923 19.6742C124.924 19.6014 125.01 19.5065 125.095 19.4096L125.096 19.4081C125.102 19.4016 125.108 19.395 125.114 19.3885C124.865 18.9891 124.58 18.6182 124.263 18.2717C124.218 18.252 124.174 18.2343 124.131 18.2171C123.921 18.1342 123.717 18.0673 123.497 18.0823C123.258 18.0981 122.991 17.9147 122.626 17.6584C122.386 17.4871 122.172 17.3633 121.947 17.275C121.817 17.2257 121.832 17.0633 121.845 16.8954C121.858 16.7386 121.869 16.5768 121.765 16.5069C121.714 16.4722 121.633 16.4565 121.548 16.4429C121.474 16.4309 121.394 16.4181 121.328 16.3928C121.266 16.3689 121.218 16.2283 121.154 16.0547C121.114 15.9466 121.069 15.826 121.012 15.712C120.728 15.5553 120.458 15.4296 120.218 15.3416C120.117 15.3966 120.006 15.4835 119.887 15.61C119.801 15.7008 119.705 15.8145 119.611 15.9324C119.482 16.0928 119.353 16.2611 119.245 16.3932C119.162 16.4964 119.12 16.5331 119.137 16.4799C119.145 16.4551 119.166 16.4114 119.184 16.3717C119.204 16.3262 119.222 16.2856 119.218 16.2843C119.214 16.2835 119.194 16.3126 119.169 16.3481C119.131 16.4047 119.083 16.4787 119.073 16.4768C119.036 16.4707 119.01 16.4298 119.037 16.4104C119.166 16.4221 118.991 16.3308 118.785 16.2987C118.578 16.2685 118.347 16.0652 118.144 15.8769C118.003 15.7453 117.874 15.6208 117.767 15.5591C117.661 15.4983 117.542 15.549 117.454 15.6061C117.345 15.6744 117.289 15.7516 117.282 15.6361C117.28 15.6127 117.286 15.471 117.29 15.2936C117.293 15.1679 117.295 15.0242 117.293 14.8916C117.278 14.8911 117.317 14.889 117.425 14.8596C117.433 14.8778 117.44 14.8963 117.448 14.9152L117.449 14.9165C117.631 15.329 118.013 15.9479 118.562 15.2144C118.626 15.0637 118.565 14.8873 118.428 14.7945C118.302 14.696 118.189 14.6081 118.125 14.6184C118.052 14.6299 118.047 14.7505 118.048 14.8768C118.048 15.0551 118.067 15.241 117.881 15.1964C117.868 15.1934 117.854 15.1901 117.84 15.187C117.704 15.1579 117.504 15.1168 117.197 14.9591C116.83 15.1506 116.453 15.3519 116.071 15.5664C115.435 15.9243 114.787 16.3163 114.135 16.7685C113.818 16.9856 113.251 17.0018 112.526 16.8034C111.8 16.6048 110.994 16.1891 110.288 15.603C109.58 15.0195 108.98 14.3533 108.628 13.6892C108.276 13.0257 108.221 12.4089 108.453 11.9802C108.832 11.2816 109.256 10.574 109.73 9.88791C109.747 9.84399 109.765 9.80028 109.784 9.75736C109.921 9.44116 109.961 9.04605 110.012 8.64698C110.025 8.55475 110.036 8.46345 110.05 8.37243Z" fill="#2E160C"/>
<path d="M145.832 22.2266C143.993 20.9512 143.448 21.7986 144.007 21.6276C144.014 21.6266 144.022 21.6256 144.029 21.6246C144.122 21.6131 144.22 21.5796 144.349 21.5309C144.461 21.4907 144.897 21.3136 144.889 21.3491C144.924 21.3481 144.555 21.6974 144.678 21.799C144.65 21.8142 144.659 21.801 144.693 21.7439C144.927 21.4291 145.424 19.886 145.693 18.1838C145.841 17.319 145.969 16.3799 146.12 15.3318C146.228 14.8498 146.32 14.9204 146.283 14.5308C146.274 14.5167 146.264 14.5021 146.254 14.487C146.073 14.2047 145.571 13.6574 145.259 13.1206C144.959 12.4925 144.111 11.6237 144.994 12.0087C145.678 12.2004 145.584 11.9113 145.09 11.9618C144.388 12.1029 145.43 11.5352 144.998 11.7811C144.509 12.1602 143.876 13.5285 143.515 14.8699C143.276 15.7286 143.095 16.6418 142.962 17.5765C142.839 18.4406 142.754 19.3047 142.691 20.2071C142.735 20.7358 142.824 21.1422 142.91 21.5782C143.033 22.1769 143.162 22.7085 143.21 23.1491C143.323 24.2086 143.237 25.4369 143.209 26.3604C143.204 26.5109 143.2 26.6538 143.198 26.785C143.338 27.5 143.503 28.2192 143.685 28.8944C143.657 28.9483 143.628 29.0036 143.598 29.0602C143.234 29.7929 143.385 30.6464 143.621 31.8894C143.724 32.4303 143.844 33.0464 143.963 33.7339C144.041 34.1754 143.911 34.4341 143.806 34.6526C143.776 34.7168 143.747 34.7768 143.727 34.8353C143.658 35.0352 143.838 35.1842 144.045 35.3268C144.314 35.5129 144.639 35.7259 144.582 36.1286C144.462 37.5129 145.307 37.7813 145.824 37.8691C145.982 37.8994 146.126 37.924 146.24 37.9755C146.605 38.1409 146.864 38.6438 147.016 39.0934C147.492 39.6568 146.176 38.7683 146.722 38.696C146.845 38.6129 147.079 38.5979 147.597 38.5899C147.836 38.5858 148.333 38.5992 148.687 38.6382C148.713 38.6157 148.377 38.5881 148.354 38.5532C148.107 38.3833 148.588 38.0247 148.755 37.7619C148.816 37.6836 148.875 37.6069 148.936 37.5263C149.147 37.2594 149.361 36.9585 149.215 37.0101C149.387 36.6609 149.61 36.1698 149.725 35.7656C150.371 34.929 151.084 33.8467 151.68 32.9125C151.98 32.4562 152.485 32.2596 153.252 32.1102C154.013 31.9661 154.96 31.874 155.869 32.1009C156.776 32.3269 157.611 32.7618 158.121 33.505C158.631 34.2423 158.73 35.23 158.46 35.9741C157.937 37.4303 157.446 38.7342 156.712 40.1625C156.251 40.9949 155.807 42.0213 154.628 43.1022C153.796 43.8716 153.053 44.5283 151.73 45.1964C150.812 45.6311 149.564 46.1426 147.746 45.9262C147.839 45.9028 147.399 45.9278 146.361 45.8847C146.147 45.8718 145.905 45.8504 145.631 45.809C144.665 45.9925 141.993 44.4143 142.008 44.3828C141.515 44.0478 141.105 43.7326 140.771 43.427C140.224 42.9254 139.965 42.4071 139.762 41.9635C139.621 41.657 139.505 41.3816 139.331 41.1393C139.238 41.0087 139.106 40.8325 138.953 40.6121C138.311 39.7484 137.396 37.9031 137.262 36.4588C137.186 35.8024 137.218 35.0571 137.272 34.3843C137.349 33.419 137.459 32.5826 137.31 32.1932C137.052 31.5016 137.032 30.7439 136.999 29.9617C136.968 29.1986 136.968 28.5626 136.767 28.2182C136.528 27.8082 136.56 27.4253 136.619 26.8648C136.661 26.4758 136.714 26.0004 136.712 25.3615C136.711 24.6234 136.825 24.0961 136.926 23.6512C137.069 23.0237 137.185 22.5621 136.986 21.8518C136.765 21.0753 136.675 20.1545 136.813 19.5641C136.875 19.2916 136.9 18.97 136.929 18.6314C136.967 18.1817 137.011 17.7149 137.153 17.2964C137.27 16.9523 137.492 16.6845 137.691 16.4506C137.752 16.3777 137.812 16.3075 137.864 16.2392C137.905 15.9585 137.949 15.6762 137.993 15.3939C137.971 15.3431 137.949 15.2892 137.925 15.2331C137.804 14.9513 137.661 14.6008 137.642 14.1865C137.612 13.5329 137.844 12.9943 138.112 12.4354C138.321 11.9962 138.549 11.5457 138.726 10.9758C138.848 10.5851 138.96 10.1132 139.116 9.62902C139.343 8.90985 139.714 8.12558 140.198 7.66573C140.374 7.49658 140.613 7.40917 140.846 7.34075C140.847 7.34061 140.848 7.3404 140.849 7.34025C140.865 7.33558 140.881 7.33076 140.897 7.32623C141.39 6.74863 142.58 6.00283 143.304 5.81446C143.872 5.62386 144.528 5.43139 145.367 5.3617C145.511 5.32964 145.665 5.30239 145.825 5.28174C146.602 5.16935 147.582 5.28722 148.281 5.43369C149.234 5.65057 150.139 6.38031 150.796 6.82359C151.265 7.1592 151.764 7.55098 152.21 7.88843C152.472 8.08578 152.582 8.40389 152.686 8.73772C152.782 9.04953 152.873 9.37267 153.093 9.65735C153.203 9.80001 153.35 9.94189 153.503 10.1028C153.64 10.2446 153.782 10.4015 153.909 10.584C154.025 10.7531 154.177 11.1956 154.309 11.792C154.391 12.16 154.462 12.5859 154.516 13.0325C154.865 14.093 154.902 15.7216 154.926 16.205C155.021 16.3537 155.149 16.4883 155.316 16.5971C155.435 16.6757 155.579 16.7459 155.726 16.819C155.926 16.9178 156.133 17.0191 156.295 17.1575C156.422 17.2662 156.467 17.3879 156.408 17.4662C156.38 17.5026 156.331 17.5291 156.286 17.5531C156.234 17.5807 156.189 17.6054 156.188 17.6388C156.187 17.6631 156.221 17.6896 156.262 17.7228C156.327 17.7756 156.412 17.8447 156.408 17.9434C156.397 18.3108 156.339 18.7356 156.274 19.1625C156.201 19.6383 156.12 20.115 156.096 20.5108C156.07 20.9536 155.848 21.5771 155.588 22.2204C155.406 22.6689 155.207 23.125 155.056 23.536C154.91 23.9371 154.843 24.3969 154.748 24.8641C154.635 25.424 154.476 25.997 154.133 26.4131C154.064 26.4968 153.878 26.5464 153.642 26.6057C153.475 26.6473 153.284 26.6921 153.092 26.753C152.753 27.3167 152.334 27.887 151.818 28.4237C151.813 28.456 151.809 28.4893 151.805 28.5229V28.5248C151.757 29.237 151.246 30.5634 149.839 30.8907C149.524 30.9501 149.287 30.8654 149.125 30.7685C148.98 30.6666 148.849 30.5759 148.718 30.6027C148.569 30.6341 148.446 30.791 148.294 30.966C148.083 31.2111 147.809 31.4956 147.38 31.4893C147.351 31.4888 147.319 31.488 147.286 31.4876C146.975 31.4829 146.481 31.4783 145.895 31.2826C145.129 31.4002 144.13 31.5016 142.876 31.1837C142.306 31.0501 141.403 30.6387 141.013 30.3379C140.778 30.1552 140.609 30.009 140.382 29.8135C138.982 28.5856 137.927 27.201 137.088 25.7305C136.68 25.0146 136.631 24.1217 136.966 23.3178C137.302 22.5127 137.976 21.8676 138.796 21.4558C139.615 21.0404 140.517 20.863 141.305 20.8485C142.095 20.84 142.704 20.9979 143.07 21.3194C143.665 21.848 144.295 22.2755 144.922 22.6002C144.963 22.6088 145.002 22.6174 145.041 22.6264C145.348 22.7069 145.604 22.5753 145.994 22.5245C146.132 22.5464 146.021 22.3876 145.832 22.2266Z" fill="#2E160C"/>
<path d="M170.15 10.0732C170.611 10.4421 170.475 11.211 170.402 11.6365C170.401 11.6443 170.4 11.6521 170.399 11.6599C170.381 11.7608 170.381 11.8551 170.381 11.9659C170.382 12.2303 170.383 12.5867 170.153 13.3488C170.178 13.5655 170.198 13.7817 170.213 13.9974C170.368 16.3895 170.228 18.4782 170.065 21.0214C170.071 21.0519 170.076 21.0831 170.082 21.1147C170.191 21.7242 170.321 22.4896 170.203 22.9894C170.053 23.6232 169.896 24.0568 169.758 24.4089C169.559 26.4431 169.286 28.2121 169.389 29.9811C169.417 30.5352 169.475 31.0854 169.567 31.6283C169.652 32.1275 169.76 32.6225 169.891 33.1091C170.045 33.375 170.218 33.6209 170.38 33.8432C170.605 34.1483 170.82 34.4565 170.918 34.6436C171.126 35.0044 171.165 35.5254 171.228 35.8863C171.239 35.946 171.249 36.0022 171.261 36.0532C171.454 36.2618 171.661 36.4393 171.876 36.5892C171.86 36.6258 171.842 36.6637 171.824 36.7028C171.61 37.1935 171.829 37.4222 172.221 37.7033C172.331 37.7578 171.947 37.5649 172.038 37.6417C172.069 37.6704 172.125 37.8681 172.178 38.0269C172.195 38.0737 172.212 38.1172 172.23 38.1524C172.294 38.2727 172.373 38.1418 172.459 37.9839C172.574 37.7789 172.697 37.5299 172.973 37.7124C171.993 38.8897 172.615 38.0437 172.316 37.7287C172.27 37.6203 172.227 37.522 172.217 37.4478C172.184 37.2086 172.473 37.0729 172.793 36.9822C173.047 36.9135 173.086 36.4721 173.021 36.0919C172.997 35.9474 173.066 35.8047 173.147 35.6298C173.231 35.4488 173.327 35.2343 173.342 34.962C173.377 34.2729 173.397 33.8993 173.415 33.5991C173.42 33.514 173.425 33.4344 173.43 33.3539C173.442 33.1009 173.489 32.7955 173.536 32.4843C173.591 32.1126 173.649 31.7235 173.654 31.3922C174.035 30.6804 174.542 29.8494 175.029 29.1282C175.285 28.7496 175.847 28.5507 176.598 28.5916C177.349 28.6319 178.229 28.8908 179.07 29.3015C179.911 29.7124 180.65 30.2545 181.152 30.8035C181.654 31.3531 181.881 31.8489 181.801 32.2034C181.632 32.9359 181.524 33.5612 181.36 34.3618C181.161 35.3124 180.876 36.341 180.46 37.3279C180.167 38.0214 179.828 38.7219 179.416 39.4373C179.375 39.5105 179.33 39.5844 179.286 39.6586C179.166 40.3836 178.949 41.1534 178.669 41.687C178.439 42.1267 178.095 42.3653 177.793 42.5584C177.584 42.6927 177.385 42.818 177.209 43.0117C177.114 43.1155 176.992 43.2556 176.86 43.3984C176.923 43.3724 175.937 44.2999 174.882 44.583C173.384 44.9327 174.107 44.7564 173.71 44.8289C173.265 44.8907 172.681 44.9183 172.021 44.7904C171.441 44.6768 170.67 44.4059 169.905 43.9495C168.698 43.2496 168.277 42.4391 167.965 42.3046C167.415 42.0223 167.001 41.45 166.694 40.93C166.397 40.4329 166.192 39.9892 165.908 39.8417C165.568 39.664 165.479 39.3718 165.38 38.9521C165.311 38.66 165.239 38.3059 165.093 37.8623C164.925 37.3466 164.935 36.9619 164.944 36.6178C164.955 36.1205 165.019 35.8784 164.703 35.5108C164.358 35.1177 164.101 34.6771 164.097 34.289C164.095 34.1129 164.047 33.9208 163.998 33.7201C163.934 33.4555 163.87 33.176 163.91 32.9038C163.942 32.6806 164.092 32.4759 164.225 32.2964C164.267 32.2408 164.307 32.1876 164.342 32.1366C164.313 31.97 164.283 31.8038 164.254 31.6389C164.221 31.6162 164.185 31.5926 164.147 31.5677C163.959 31.4424 163.729 31.2872 163.597 31.0721C163.387 30.7305 163.449 30.398 163.519 30.0507C163.573 29.7814 163.632 29.5004 163.572 29.1942C163.531 28.9834 163.435 28.7502 163.343 28.5159C163.206 28.1708 163.074 27.8159 163.127 27.5669C163.147 27.4732 163.257 27.3888 163.366 27.3064L163.368 27.3052C163.376 27.2996 163.383 27.294 163.39 27.2884C163.273 26.7095 163.147 26.1932 163.01 25.6516C162.977 25.6062 162.945 25.5607 162.914 25.5158C162.759 25.294 162.609 25.0814 162.406 24.9485C162.187 24.807 162.036 24.4196 161.873 24.0172C161.767 23.75 161.657 23.4812 161.52 23.2601C161.44 23.1326 161.546 22.9945 161.654 22.8518C161.755 22.7199 161.858 22.5803 161.815 22.4464C161.794 22.38 161.738 22.3082 161.678 22.2341C161.625 22.1688 161.569 22.1001 161.531 22.0247C161.497 21.955 161.544 21.7875 161.603 21.5715C161.639 21.4385 161.679 21.286 161.709 21.1261C161.591 20.727 161.475 20.3223 161.364 19.911C161.252 19.8352 161.11 19.7737 160.933 19.7319C160.806 19.7018 160.655 19.681 160.501 19.6592C160.291 19.6299 160.075 19.5986 159.898 19.5421C159.76 19.498 159.701 19.4348 159.751 19.3823C159.774 19.3579 159.819 19.3361 159.861 19.3164C159.909 19.2937 159.952 19.2736 159.948 19.2548C159.946 19.2413 159.909 19.2308 159.865 19.2178C159.794 19.1972 159.702 19.1702 159.694 19.1151C159.66 18.9094 159.664 18.6694 159.668 18.4312C159.673 18.1663 159.679 17.9062 159.634 17.6932C159.583 17.4559 159.687 17.1111 159.794 16.7978C159.869 16.5749 159.942 16.3502 159.965 16.1598C159.988 15.974 159.902 15.7897 159.818 15.6119C159.717 15.3964 159.62 15.1894 159.722 15.0025C159.743 14.9645 159.881 14.9094 160.056 14.8401C160.179 14.7911 160.319 14.734 160.448 14.6728C160.432 14.4448 160.422 14.2152 160.417 13.9848C160.397 13.9781 160.378 13.9711 160.357 13.9641L160.356 13.9639C159.891 13.8068 159.256 13.5879 159.601 13.2014C159.689 13.1032 159.859 13.0341 160.011 12.9719C160.161 12.9106 160.294 12.8565 160.319 12.7877C160.347 12.7095 160.247 12.6252 160.139 12.5334C159.987 12.4045 159.817 12.2598 159.957 12.0961C159.967 12.0849 159.977 12.0729 159.987 12.0603C160.087 11.9419 160.234 11.7664 160.54 11.5829C160.597 11.0882 160.668 10.5925 160.751 10.0949C160.889 9.26703 161.057 8.43333 161.234 7.59367C161.322 7.18368 161.743 6.77921 162.429 6.47916C163.115 6.1815 164.003 6.01504 164.923 6.0105C165.841 6.00342 166.73 6.14906 167.425 6.39568C168.12 6.64588 168.559 6.98422 168.673 7.35446C168.855 7.9557 169.045 8.56586 169.224 9.17722C169.245 9.20853 169.265 9.24005 169.284 9.2715C169.424 9.50631 169.694 9.71796 169.965 9.92784C170.027 9.97608 170.089 10.0245 170.15 10.0732Z" fill="#2E160C"/>
<path d="M165.593 15.9215C165.56 15.4723 165.805 15.5836 165.944 15.643C165.946 15.6439 165.948 15.6449 165.951 15.6458C165.984 15.6597 166.01 15.6579 166.041 15.6552C166.113 15.6485 166.213 15.6395 166.494 15.8426C166.549 15.8142 166.604 15.7907 166.662 15.7719C167.284 15.5701 168.04 15.7037 168.826 15.904C168.833 15.8992 168.84 15.8943 168.848 15.8892C168.998 15.7916 169.167 15.6765 169.379 15.7753C169.642 15.9026 169.845 16.034 170.002 16.1533C170.739 16.292 171.414 16.4838 171.954 16.4796C172.129 16.479 172.299 16.4603 172.464 16.4202C172.616 16.3833 172.765 16.3327 172.911 16.2702C172.976 16.1561 173.034 16.0252 173.087 15.9042C173.16 15.7343 173.228 15.5828 173.297 15.5218C173.468 15.3742 173.725 15.4791 173.919 15.5566C173.95 15.5693 173.98 15.5813 174.007 15.5915C174.122 15.5017 174.236 15.4079 174.351 15.3125C174.369 15.3459 174.386 15.3807 174.404 15.4164C174.63 15.8621 174.766 15.8227 174.977 15.7618C175.07 15.7352 175.176 15.7049 175.313 15.708C175.4 15.71 175.488 15.8872 175.56 16.0315C175.581 16.074 175.601 16.1137 175.619 16.1454C175.68 16.2536 175.684 16.1194 175.688 15.961C175.694 15.7555 175.702 15.5082 175.837 15.6969C176.27 16.2972 176.275 15.8168 176.281 15.4529C176.283 15.3462 176.285 15.2498 176.296 15.1936C176.334 15.0114 176.487 15.1453 176.627 15.3464C176.738 15.5057 176.829 15.2983 176.875 15.0516C176.893 14.9583 176.949 14.9423 177.018 14.9231C177.09 14.9032 177.18 14.8791 177.252 14.7613C177.409 14.4645 177.642 14.3058 177.775 14.187C177.809 14.1538 177.837 14.1244 177.866 14.0937C177.96 13.9966 178.083 13.9109 178.213 13.8264C178.369 13.7251 178.531 13.6258 178.653 13.5051C179.003 13.5904 179.337 13.7195 179.623 13.8566C179.77 13.9277 179.9 14.3451 179.991 15.0343C180.082 15.7242 180.132 16.6243 180.139 17.5575C180.146 18.4907 180.105 19.3913 180.033 20.0826C179.962 20.7732 179.871 21.1934 179.786 21.2696C179.612 21.4215 179.484 21.5769 179.372 21.7057C179.254 21.8593 179.03 21.9952 179.063 21.9913C178.907 22.0275 178.785 22.0356 178.579 22.0448C178.558 22.0456 178.538 22.0461 178.517 22.0466C178.411 22.3093 178.302 22.5512 178.206 22.6514C178.128 22.7338 178.03 22.6315 177.947 22.5438C177.89 22.4834 177.839 22.43 177.806 22.4487C177.788 22.4587 177.764 22.4789 177.737 22.5032C177.625 22.6021 177.433 22.7706 177.18 22.6015C177.067 22.5266 176.917 22.3612 176.774 22.2032C176.57 21.9774 176.379 21.7669 176.331 21.8575C176.246 22.0167 176.086 21.9384 175.945 21.8689C175.809 21.8028 175.691 21.7449 175.673 21.9096C175.65 22.1064 175.575 22.0465 175.464 21.9582C175.386 21.8969 175.292 21.8221 175.185 21.8088C175.061 21.7935 174.951 21.6863 174.856 21.5954C174.723 21.4674 174.624 21.3709 174.568 21.6064C174.506 21.8678 174.418 22.0462 174.302 21.9965C174.249 21.9739 174.199 21.9945 174.149 22.016C174.081 22.0443 174.01 22.074 173.922 22.007C173.85 21.9517 173.761 21.7869 173.682 21.641C173.657 21.5956 173.634 21.5521 173.612 21.5143C173.568 21.5273 173.525 21.5415 173.481 21.5574C173.481 21.5874 173.481 21.6206 173.481 21.6549C173.482 21.827 173.482 22.0381 173.447 22.152C173.39 22.3322 173.282 22.2542 173.169 22.1713C173.08 22.1066 172.988 22.0391 172.913 22.0896C172.863 22.1239 172.817 22.2113 172.772 22.2979C172.702 22.4269 172.645 22.5513 172.574 22.4986C172.547 22.4789 172.502 22.3728 172.456 22.2674L172.456 22.2654C172.452 22.2583 172.449 22.2513 172.446 22.2442C172.335 22.3604 172.237 22.4833 172.131 22.6142C172.129 22.6452 172.124 22.676 172.121 22.7063C172.104 22.8567 172.092 23.0025 172.116 23.1959C172.141 23.4058 172.095 23.5475 172.049 23.6969C172.017 23.7952 171.98 23.8981 171.956 24.0273C171.941 24.1031 171.866 24.0043 171.791 23.9018C171.72 23.8062 171.649 23.708 171.619 23.7481C171.604 23.7682 171.598 23.8213 171.592 23.878C171.587 23.928 171.581 23.9809 171.569 24.0163C171.557 24.0491 171.492 24.0033 171.408 23.9457C171.356 23.91 171.297 23.8698 171.239 23.8396C171.149 23.9465 171.058 24.0505 170.964 24.1502C170.973 24.2556 170.995 24.389 171.032 24.5569C171.06 24.6773 171.096 24.82 171.134 24.9659C171.184 25.1644 171.236 25.3696 171.27 25.5361C171.295 25.6661 171.293 25.722 171.264 25.6742C171.25 25.652 171.231 25.6079 171.213 25.568C171.192 25.5223 171.174 25.4817 171.169 25.4845C171.167 25.4867 171.174 25.5214 171.183 25.5633C171.196 25.6304 171.215 25.7169 171.201 25.7247C171.152 25.7535 171.079 25.7477 171.01 25.7413C170.933 25.734 170.857 25.7278 170.813 25.77C170.764 25.8172 170.636 25.7214 170.511 25.6251C170.422 25.5583 170.335 25.4918 170.272 25.4731C170.211 25.4549 170.181 25.5409 170.152 25.6244C170.119 25.7245 170.084 25.822 169.999 25.729C169.981 25.7102 169.925 25.5794 169.854 25.4159C169.804 25.2999 169.746 25.1676 169.69 25.0464C169.626 25.0672 169.561 25.0818 169.493 25.0925C169.497 25.1115 169.501 25.1309 169.504 25.1507V25.152C169.591 25.5982 169.708 26.209 169.492 25.8915C169.438 25.8106 169.369 25.6512 169.306 25.5078C169.245 25.367 169.19 25.241 169.162 25.2197C169.131 25.1956 169.133 25.2931 169.137 25.399C169.142 25.5478 169.145 25.7146 169.056 25.5865C169.049 25.5777 169.043 25.5682 169.036 25.5586C168.972 25.4676 168.877 25.3331 168.735 25.047C168.57 25.0102 168.397 24.9605 168.223 24.9011C167.93 24.8024 167.627 24.6788 167.318 24.5531C167.168 24.4905 166.93 24.1098 166.668 23.4676C166.403 22.8249 166.138 21.9787 165.909 21.0919C165.68 20.2053 165.498 19.3386 165.385 18.6561C165.27 17.9746 165.238 17.538 165.299 17.4164C165.399 17.2196 165.505 17.0193 165.614 16.8298C165.617 16.8092 165.62 16.7892 165.623 16.7702C165.645 16.6295 165.627 16.3656 165.606 16.102C165.601 16.0415 165.596 15.9807 165.593 15.9215Z" fill="#2E160C"/>
<path d="M36.4374 19.5736C36.2225 19.3103 36.1141 18.7062 36.0552 18.3788C36.0541 18.3729 36.0529 18.3668 36.0518 18.3608C36.0378 18.283 36.0192 18.2092 35.9974 18.123C35.9474 17.9252 35.8767 17.6453 35.8024 17.057C35.7524 16.8912 35.7047 16.7284 35.6579 16.5627C35.1557 14.773 34.7402 12.9898 34.3305 11.1571C34.3231 11.1348 34.3155 11.1119 34.3079 11.0889C34.1596 10.6439 33.9768 10.0885 33.9227 9.7217C33.8535 9.25505 33.8236 8.9312 33.8027 8.666C33.5164 7.17631 33.1868 5.75261 33.112 4.04792C33.1335 3.71195 32.994 3.70206 33.2638 2.94999C33.8335 1.92061 34.7929 2.27948 35.0356 2.3537C35.6341 2.57472 35.9939 2.83493 36.3848 3.09137C36.628 3.22572 36.8447 3.3443 37.0465 3.45841C37.3369 3.62438 37.579 3.76809 37.7689 3.90709C38.227 4.24219 38.6706 4.69467 38.9973 5.03438C39.0497 5.08903 39.0996 5.14112 39.1462 5.18935C39.4395 5.42526 39.7231 5.65456 40.0109 5.8894C40.0215 5.91454 40.0319 5.94019 40.0425 5.96638C40.1712 6.29041 40.4563 6.54954 40.9033 6.96206C41.0967 7.14061 41.3213 7.34886 41.5768 7.60428C41.7424 7.76982 41.7851 7.89314 41.8224 7.99606C41.8333 8.02624 41.8435 8.0545 41.8557 8.08113C41.8978 8.17244 41.9976 8.21104 42.1142 8.25538C42.2656 8.31325 42.4488 8.38394 42.5759 8.59751C42.9848 9.28183 43.3386 9.41811 43.6056 9.51969C43.6841 9.54972 43.7554 9.57713 43.8185 9.61474C44.0245 9.7205 44.2207 10.0565 44.3292 10.2964C44.4107 10.4836 44.6981 10.7474 44.9376 10.9338C45.0282 11.0041 45.122 11.1215 45.2318 11.2607C45.3453 11.4046 45.4755 11.5714 45.6375 11.7332C46.0465 12.142 46.2569 12.3652 46.4266 12.5448C46.4746 12.5956 46.5197 12.644 46.5645 12.6915C46.7066 12.8425 46.873 13.036 47.0407 13.2343C47.2412 13.471 47.4431 13.7139 47.6084 13.8922C47.9324 14.425 48.2458 14.9695 48.5446 15.5527C48.6975 15.8515 48.7434 16.2075 48.6578 16.5109C48.5725 16.815 48.3742 17.0494 48.1138 17.1823C47.8531 17.3152 47.5443 17.3289 47.2542 17.241C46.9642 17.1529 46.7185 16.9789 46.5491 16.7427C46.2077 16.2653 45.8268 15.7838 45.448 15.3023C44.9846 14.7144 44.5193 14.1253 44.0697 13.5275C43.755 13.1093 43.4408 12.6914 43.1253 12.2762C43.0928 12.2335 43.0604 12.1907 43.0279 12.148C42.6895 11.8439 42.3977 11.5857 42.1986 11.4028C42.0027 11.2414 41.9001 11.0901 41.8115 10.9601C41.75 10.8701 41.6956 10.7906 41.624 10.7268C41.5856 10.6925 41.5316 10.6473 41.4667 10.5929C41.2023 10.3714 40.735 9.9784 40.3751 9.54214C40.2165 9.34961 40.048 9.10666 39.8886 8.87694C39.6594 8.54714 39.4451 8.241 39.2922 8.13206C39.0261 7.94272 38.7792 7.66676 38.5556 7.42004C38.3453 7.18736 38.1586 6.9837 38.0116 6.91725C37.838 6.83965 37.73 6.71148 37.5813 6.53325C37.4733 6.40551 37.3479 6.25563 37.1474 6.06671C36.9208 5.85296 36.7764 5.67817 36.6586 5.53486C36.485 5.3271 36.3547 5.17305 36.0861 5.04673C35.7814 4.9017 35.4963 4.74764 35.2963 4.57955C35.2112 4.50693 35.0942 4.43122 34.9874 4.367C34.832 4.27303 34.6876 4.195 34.5739 4.11223C34.4869 4.04697 34.4375 3.97181 34.4173 3.91659C34.4118 3.89946 34.409 3.88416 34.4108 3.87117C34.3941 3.87316 34.597 3.88489 34.7343 3.68613C34.7609 3.66289 34.784 3.63789 34.8011 3.62116C34.8836 3.51494 34.9074 3.61958 34.9447 3.76875C34.9955 3.98327 34.9778 4.1618 34.97 4.39564C34.9633 4.5687 34.9635 4.76378 35.0086 4.97246C35.0401 5.11814 35.0936 5.28029 35.1495 5.44246C35.2317 5.68021 35.3197 5.92192 35.3374 6.09382C35.3441 6.15905 35.3222 6.22224 35.3007 6.28546C35.3005 6.28575 35.3003 6.28604 35.3002 6.28634C35.2988 6.29063 35.2973 6.29492 35.2959 6.29921C35.4203 6.70745 35.5575 7.12035 35.6998 7.52799C35.7184 7.56185 35.7371 7.59628 35.7555 7.63049C35.8453 7.79518 35.9341 7.95795 36.0229 8.05266C36.1191 8.156 36.2414 8.45131 36.3727 8.76233C36.4584 8.96549 36.548 9.17614 36.6351 9.34444C36.6862 9.44333 36.6798 9.55142 36.6736 9.66411C36.6678 9.76916 36.6621 9.87704 36.7024 9.98095C36.7226 10.0331 36.7544 10.0865 36.7885 10.1436C36.8185 10.1939 36.8501 10.2469 36.877 10.3042C36.9019 10.3574 36.9201 10.4877 36.9437 10.6544C36.9582 10.7574 36.9749 10.8747 36.9963 10.9967C37.112 11.3013 37.2272 11.6066 37.3408 11.9133C37.3913 11.9692 37.4484 12.0138 37.5133 12.0432C37.5599 12.0643 37.6122 12.0785 37.6658 12.0931C37.7387 12.1132 37.8141 12.134 37.8811 12.1736C37.9335 12.2046 37.9644 12.2504 37.9581 12.2891C37.9551 12.3071 37.9443 12.3236 37.9346 12.3384C37.9234 12.3554 37.9134 12.3706 37.9179 12.3842C37.9212 12.394 37.9348 12.4011 37.9515 12.41C37.9779 12.424 38.0123 12.4426 38.0252 12.4825C38.0735 12.6312 38.1153 12.8025 38.1567 12.973C38.2024 13.1616 38.2472 13.3472 38.2974 13.4897C38.3536 13.6491 38.3809 13.8905 38.4084 14.1349C38.4277 14.3054 38.4445 14.4673 38.4737 14.6118C38.5018 14.7519 38.5637 14.8862 38.6232 15.0142C38.696 15.1732 38.7656 15.3244 38.7682 15.4656C38.7686 15.4939 38.7356 15.5403 38.6941 15.5982C38.6648 15.6391 38.6312 15.6861 38.6023 15.7366C38.6506 15.9074 38.6964 16.0766 38.7414 16.2492C38.7489 16.2535 38.7565 16.2581 38.7644 16.2626C38.7642 16.2626 38.7645 16.2627 38.7644 16.2626C38.9393 16.3623 39.1815 16.5073 39.1442 16.8028C39.1348 16.8785 39.0952 16.9382 39.0591 16.9901C39.0236 17.0413 38.9918 17.0869 38.997 17.1389C39.003 17.1986 39.0488 17.2533 39.1006 17.3203C39.1729 17.4126 39.2531 17.5138 39.2391 17.6384C39.2382 17.6469 39.2371 17.6562 39.2362 17.6662C39.2278 17.7601 39.2147 17.8972 39.1525 18.0433C39.2283 18.4172 39.2981 18.7874 39.3646 19.1579C39.4769 19.7798 39.5783 20.3988 39.6836 21.0127C39.7345 21.3103 39.6824 21.6164 39.5377 21.8674C39.4308 22.1432 38.9985 22.1624 39.034 22.4794C38.7152 22.729 38.3212 22.4822 38.0532 22.35C37.7708 22.1799 37.5588 21.9283 37.4441 21.6372C37.2582 21.163 37.079 20.6984 36.9022 20.231C36.8896 20.2074 36.877 20.1834 36.8648 20.1593C36.7747 19.9827 36.6493 19.8305 36.524 19.6801C36.4951 19.6451 36.4661 19.6096 36.4374 19.5736Z" fill="#2E160C"/>
<path d="M56.5452 9.11281C56.6504 8.7925 57.0861 8.38875 57.3235 8.16577C57.3278 8.16159 57.3321 8.15748 57.3365 8.1533C57.3931 8.1001 57.4432 8.04606 57.5021 7.98209C57.6393 7.83306 57.8275 7.62942 58.2721 7.24805C58.3789 7.1192 58.4887 6.98854 58.5972 6.86162C59.7775 5.47935 61.0205 4.14642 62.2294 2.79556C62.2427 2.77704 62.2562 2.75823 62.2698 2.73927C62.5414 2.36371 62.8048 1.96705 63.1349 1.62023C63.5392 1.21292 63.8918 0.962518 64.2353 0.777402C65.0579 -0.0406826 67.4284 0.607983 67.676 1.66082C68.1144 2.59226 68.1681 3.38109 68.2461 4.16715C68.2871 4.65588 68.3079 5.13666 68.3219 5.6135C68.3347 6.0531 68.3398 6.48695 68.3407 6.92099C68.3664 7.17367 68.3951 7.41429 68.42 7.63756C68.4551 7.95107 68.4827 8.23051 68.4837 8.45972C68.4863 9.01322 68.3902 9.63017 68.314 10.0879C68.3017 10.1626 68.2899 10.2317 68.2793 10.2969C68.2663 10.6674 68.2534 11.0224 68.2362 11.404C68.2223 11.4279 68.208 11.4507 68.1932 11.476C68.0073 11.777 67.9821 12.219 67.8346 12.8315C67.7734 13.1002 67.6949 13.4108 67.5802 13.7632C67.506 13.9905 67.4112 14.089 67.3347 14.168C67.3122 14.1913 67.2909 14.2135 67.272 14.2366C67.2079 14.3142 67.2156 14.4219 67.2245 14.5476C67.2354 14.7124 67.2482 14.9082 67.1053 15.113C66.6499 15.761 66.6688 16.1171 66.6844 16.3921C66.6892 16.4713 66.6925 16.5458 66.6836 16.6152C66.6543 16.8424 66.4933 17.1182 66.341 17.3152C66.2209 17.47 66.1373 17.8435 66.1015 18.1344C66.0875 18.2456 66.0353 18.3824 65.9743 18.5414C65.9104 18.7081 65.837 18.8991 65.7858 19.1152C65.6563 19.6612 65.585 19.9484 65.5273 20.1802C65.5106 20.2469 65.4955 20.3074 65.4804 20.3689C65.4322 20.5642 65.3636 20.8002 65.2937 21.0409C65.2106 21.3273 65.1252 21.6216 65.0758 21.8468C64.8285 22.3909 64.5744 22.9328 64.322 23.475C64.1922 23.7531 63.9662 23.9821 63.687 24.1106C63.4086 24.2369 63.1007 24.2548 62.8263 24.1532C62.552 24.0517 62.3306 23.8374 62.2034 23.5595C62.0773 23.2792 62.0581 22.9565 62.1449 22.66C62.3207 22.0623 62.4983 21.4647 62.6858 20.8717C62.9141 20.1494 63.1578 19.4324 63.431 18.7277C63.6219 18.2351 63.8196 17.7457 64.0211 17.2592C64.0417 17.2096 64.0626 17.1593 64.0835 17.109C64.1757 16.6707 64.2714 16.238 64.3588 15.9414C64.431 15.6967 64.5315 15.5379 64.6176 15.4006C64.6774 15.3047 64.7294 15.2217 64.7596 15.1302C64.7754 15.0819 64.7963 15.0122 64.8199 14.9311C64.9193 14.5935 65.081 14.0283 65.3057 13.5491C65.4057 13.3366 65.5413 13.0982 65.6645 12.8683C65.8407 12.5428 65.9923 12.2183 65.9997 12.0613C66.013 11.8378 66.0711 11.4415 66.1356 11.1461C66.1947 10.8549 66.2466 10.5807 66.2115 10.4263C66.1696 10.2405 66.207 10.086 66.2609 9.85882C66.2984 9.69945 66.3436 9.50707 66.3748 9.24031C66.4105 8.93431 66.4647 8.71869 66.5102 8.53523C66.574 8.27747 66.6209 8.08239 66.5656 7.7878C66.5041 7.46076 66.4657 7.1226 66.4935 6.85886C66.5063 6.73933 66.5052 6.59988 66.5028 6.45758C66.4997 6.26898 66.4943 6.07035 66.5178 5.88876C66.5371 5.7381 66.5902 5.61637 66.6364 5.50425C66.6509 5.46939 66.6645 5.43598 66.6763 5.40373C66.6706 5.28449 66.6637 5.16837 66.6547 5.04886C66.6444 5.03021 66.6331 5.01073 66.6213 4.99048C66.5621 4.88913 66.4889 4.76639 66.4428 4.6125C66.37 4.37303 66.3763 4.15641 66.3756 3.92907C66.3753 3.75558 66.3712 3.57531 66.3157 3.37942C66.2788 3.24983 66.2163 3.10754 66.1509 2.98474C66.0516 2.79352 65.9458 2.65298 65.9116 2.55763C65.8996 2.52259 65.9117 2.47719 65.9229 2.43304C65.923 2.43281 65.9231 2.43258 65.9232 2.43235C65.9239 2.42935 65.9247 2.42639 65.9254 2.42341C65.7528 2.26407 65.7629 2.34788 65.7021 2.38278C65.6964 2.39375 65.69 2.40519 65.6829 2.41721C65.6487 2.47492 65.5958 2.55567 65.5815 2.64024C65.5676 2.72897 65.4472 2.87486 65.3128 3.09207C65.2229 3.23491 65.1499 3.38022 65.0592 3.56406C65.0112 3.66441 64.9178 3.72849 64.823 3.79205C64.735 3.85077 64.644 3.91154 64.5825 4.00778C64.5518 4.05589 64.526 4.11498 64.5 4.17608C64.4769 4.2302 64.4522 4.28764 64.4209 4.34395C64.392 4.39585 64.294 4.49105 64.1723 4.60707C64.0967 4.67933 64.0103 4.7618 63.9222 4.85117C63.7402 5.12204 63.5551 5.39236 63.3672 5.66098C63.3497 5.73461 63.346 5.80625 63.3588 5.87613C63.368 5.92623 63.3862 5.97716 63.4046 6.02936C63.4297 6.1004 63.4555 6.17393 63.4609 6.25143C63.4651 6.312 63.4448 6.36345 63.4091 6.38041C63.3926 6.3883 63.3728 6.38883 63.355 6.38922C63.3346 6.3897 63.3165 6.39016 63.3078 6.40153C63.3016 6.40976 63.3035 6.425 63.3056 6.44362C63.309 6.47336 63.3132 6.51193 63.2878 6.54502C63.1929 6.66815 63.0742 6.80035 62.9582 6.92874C62.8291 7.07171 62.7023 7.21129 62.6135 7.33206C62.514 7.46735 62.3299 7.62573 62.1453 7.78348C62.0167 7.89341 61.8875 8.0037 61.7864 8.10591C61.6875 8.20614 61.6108 8.33222 61.5361 8.45491C61.4465 8.60196 61.361 8.74235 61.2429 8.82558C61.2191 8.84229 61.1625 8.84024 61.0918 8.83762C61.0416 8.83571 60.9841 8.83372 60.9262 8.83762C60.8124 8.97072 60.6944 9.10544 60.5773 9.23613C60.5778 9.24477 60.5783 9.25355 60.5789 9.26248C60.5789 9.26234 60.5789 9.26262 60.5789 9.26248C60.5926 9.46286 60.6072 9.74216 60.3372 9.87667C60.2679 9.91152 60.1975 9.90982 60.1341 9.90834C60.072 9.90678 60.0164 9.90529 59.9757 9.93809C59.9293 9.97556 59.9071 10.0455 59.8803 10.1244C59.8433 10.2344 59.8023 10.3566 59.6892 10.4143C59.6814 10.4182 59.673 10.4224 59.6645 10.4268C59.5831 10.4687 59.4592 10.5344 59.3013 10.563C59.0317 10.8262 58.7553 11.0869 58.4751 11.3437C58.0083 11.7709 57.53 12.1904 57.0322 12.604C56.7909 12.8036 56.4707 12.9275 56.1575 12.9207C55.8326 12.9248 55.5558 12.7857 55.3846 12.5561C55.2106 12.3283 55.1075 12.0607 55.1056 11.7709C55.0961 11.489 55.1962 11.2042 55.3748 10.9784C55.6678 10.6094 55.9643 10.2202 56.2536 9.838C56.2666 9.81519 56.2798 9.79231 56.2933 9.76972C56.3888 9.6068 56.4509 9.41909 56.5054 9.23889C56.5185 9.19696 56.5315 9.15488 56.5452 9.11281Z" fill="#2E160C"/>
</svg>
