<svg width="256" height="96" viewBox="0 0 256 96" fill="none" xmlns="http://www.w3.org/2000/svg">
<path d="M29.8479 27.7565C28.7114 26.9515 27.76 24.9285 27.0447 23.6703C27.0316 23.6474 27.0185 23.6245 27.0052 23.6015C26.9153 23.4218 27.0643 23.6435 27.237 23.7961C27.3751 23.9995 28.1768 24.0883 26.7736 23.3347C26.3222 23.2541 25.7392 23.1744 25.0461 23.0896C24.2255 22.9925 22.4781 22.7756 21.7986 22.6549C21.6493 22.7085 22.5926 22.5816 22.4105 22.5667C22.3214 22.4974 21.2216 23.1769 20.2082 24.3034C18.0927 26.5889 15.9701 30.0307 13.8523 33.6379C13.8074 33.736 13.7619 33.8357 13.7161 33.9361C12.6193 36.1841 12.7654 36.5927 12.351 37.925C11.9231 39.3446 11.7321 40.6081 11.5756 41.6037C11.3808 43.5321 12.3279 45.6711 14.0657 48.0733C16.0394 50.8034 16.4929 50.6961 19.4876 51.1283C21.1842 51.2716 23.1096 51.1423 25.0942 50.8864C26.9266 50.6505 28.8223 50.3117 30.7958 49.9752C31.9313 49.667 33.0366 49.3501 34.1132 49.0825C35.5866 48.7068 37.2234 48.4276 38.4185 48.3932C40.1468 48.1726 43.8761 49.5643 45.2923 51.203C46.9156 52.8384 47.6504 54.4418 48.1825 55.6877C48.3534 56.0983 48.4957 56.4777 48.6194 56.8227C49.5121 58.7058 50.0413 60.1689 50.7195 61.9094C50.7107 62.056 50.7014 62.2132 50.6897 62.373C50.5438 64.4567 51.025 66.5748 50.7062 70.076C50.5563 71.5782 50.2094 73.2981 49.515 75.1338C49.0632 76.3162 48.5503 76.7767 48.1447 77.1469C48.0256 77.253 47.9113 77.3562 47.8087 77.46C47.4558 77.8186 47.405 78.339 47.334 78.9493C47.2193 79.7343 47.2381 80.6854 45.8357 81.965C41.5681 85.26 39.921 85.5963 38.6491 86.6388C38.2755 86.8943 37.9275 87.1147 37.5602 87.27C36.3579 87.7837 34.5894 87.7668 33.3421 87.5221C32.3437 87.3412 30.4611 87.6392 29.0587 87.9353C28.5283 88.0498 27.8168 88.0363 27.0018 88.0122C26.1558 87.9877 25.1982 87.9511 24.208 88.0559C23.5832 88.1224 23.0794 88.1859 22.6169 88.2474C22.1864 88.2658 22.9894 88.3607 21.3707 88.302C19.8621 88.1559 19.0339 87.5949 18.9606 87.6117C18.0292 87.244 17.331 86.915 16.7379 86.625C16.3983 86.4582 16.0857 86.2968 15.7777 86.1345C14.8006 85.6206 13.6628 84.9006 12.5726 84.1318C11.2642 83.2124 10.019 82.2252 9.05319 81.5037C6.93257 79.2833 5.03852 76.5304 3.52707 74.3979C2.71921 73.2569 2.31434 71.8623 2.41038 70.4772C2.50641 69.0908 3.09787 67.8355 4.09103 66.9695C5.08696 66.1075 6.41734 65.6983 7.82409 65.8418C9.22777 65.9829 10.5862 66.6733 11.59 67.722C13.6802 69.9113 15.2827 71.653 17.3262 73.3369C18.5292 74.3489 19.7434 75.2844 20.9514 76.1065C21.5549 76.5172 22.1562 76.8989 22.7507 77.2453C23.0435 77.4161 23.3603 77.592 23.6196 77.7285C23.7522 77.7985 23.8956 77.8729 24.0607 77.9557C24.8224 78.2011 21.8154 77.3295 22.1051 77.499C24.853 77.5049 27.2568 77.707 29.5114 77.7808C29.7427 77.7889 29.9727 77.7963 30.2005 77.8022C32.0667 77.48 33.6972 77.0483 34.6665 76.7669C35.4704 76.5384 35.9933 76.5611 36.4262 76.5665C36.7219 76.5696 36.967 76.5621 37.1463 76.4573C37.2423 76.4011 37.36 76.3157 37.4744 76.2156C37.9791 75.7787 38.0372 75.4522 39.4045 73.2954C39.9022 72.5371 40.5062 71.7197 40.9913 70.9016C41.6931 69.7419 42.1195 68.5473 42.0032 67.9452C41.8098 66.8848 41.8016 65.7811 41.6032 64.6667C41.3065 63.3441 41.0065 62.0598 40.5892 61.5762C40.083 60.9694 39.9638 60.3783 39.7501 59.608C39.6068 59.0878 39.3836 58.4511 39.0546 58.0304C38.7117 57.5824 38.6049 57.4465 38.6536 57.2755C38.3843 56.9809 37.0416 56.8544 35.9537 57.2556C34.606 57.71 33.1349 58.1407 31.8972 58.2208C31.3348 58.2571 30.6925 58.37 30.0167 58.4883C29.1208 58.6452 28.1604 58.811 27.2481 58.8174C26.4962 58.8229 25.8437 58.649 25.2685 58.4887C25.0883 58.4387 24.9158 58.3904 24.7496 58.349C24.1516 58.4175 23.544 58.4795 22.9257 58.5313C22.8287 58.5796 22.7266 58.6322 22.6196 58.6862C22.0824 58.9565 21.3962 59.2824 20.5047 59.429C19.0836 59.6577 17.7669 59.4302 16.3722 59.0278C15.2808 58.7078 14.1474 58.2947 12.7941 57.7373C11.8876 57.3649 10.7488 56.8287 9.70363 56.0817C8.1858 54.9712 7.45021 54.1767 6.88649 53.3634C6.69269 53.0668 6.63049 52.727 6.57529 52.3915C6.57526 52.3898 6.57523 52.3882 6.5752 52.3865C6.57146 52.3637 6.56748 52.341 6.56372 52.3182C5.08495 50.5628 3.6574 48.5589 2.6913 46.002C2.58086 45.7891 2.4741 45.5686 2.37302 45.3448C1.87188 44.2858 1.53882 42.899 1.23867 42.4356C0.894918 41.7749 0.596127 40.1147 0.509183 38.1553C0.449233 36.8781 0.497185 35.4857 0.58104 34.2937C0.628645 33.5962 0.957437 32.9793 1.32531 32.3716C1.67334 31.7943 2.03045 31.2761 2.31424 30.5187C2.44697 30.1599 2.57489 29.7405 2.62241 29.4807C2.67792 29.2225 2.74061 28.9405 2.8291 28.6663C2.91249 28.4098 3.26074 27.9057 3.71288 27.2559C3.99376 26.8516 4.31638 26.3879 4.64183 25.8964C5.25977 24.4626 5.92303 23.0085 6.67407 21.5432C6.72186 21.1744 6.71513 20.8189 6.63289 20.488C6.57397 20.2505 6.47419 20.0163 6.37492 19.7736C6.23974 19.4436 6.10276 19.0997 6.0666 18.7138C6.03838 18.4122 6.13387 18.129 6.30443 18.0102C6.38393 17.9548 6.47863 17.9345 6.56434 17.9163C6.66258 17.8953 6.74973 17.8772 6.79239 17.8105C6.82297 17.7624 6.81484 17.6854 6.80608 17.591C6.79208 17.4404 6.77558 17.2439 6.90532 17.0492C7.39069 16.3213 8.02437 15.5271 8.72544 14.7354C9.49855 13.86 10.3548 12.9999 11.0797 12.266C11.8915 11.4438 13.3432 10.4274 15.2264 9.60645C16.5344 9.03204 18.0529 8.59443 19.448 8.37128C20.7482 8.13037 22.807 7.99473 23.8579 8.07129C24.9716 8.12295 25.1301 8.01328 25.8317 8.25997C25.9545 8.30732 26.0903 8.52442 26.2705 8.79764C26.397 8.99118 26.5475 9.21329 26.7269 9.42379C27.6097 9.53294 28.5917 9.67547 29.6738 9.92167C29.7177 9.9033 29.7633 9.88488 29.8093 9.86608C29.81 9.86558 29.8108 9.86508 29.8116 9.86459C30.8252 9.45254 32.5281 8.88563 34.5637 10.4987C35.0687 10.9127 35.2981 11.344 35.4864 11.7285C35.6721 12.1089 35.8212 12.4474 36.1707 12.7733C36.5748 13.1534 37.0973 13.4247 37.7863 13.9535C38.8024 14.7606 39.3452 15.2481 39.4898 15.8178C39.5006 15.8594 39.5121 15.9043 39.5245 15.9508C39.6427 16.3923 39.8269 17.0703 39.8074 17.8699C40.743 19.5623 41.5663 21.2778 42.3001 23.0685C43.5128 26.0556 44.4876 29.1514 44.9661 32.6235C45.1943 34.3028 44.7793 36.2072 43.7265 37.5009C42.6734 38.8363 41.1815 39.1498 39.9776 38.7034C38.761 38.2612 37.657 37.6541 36.7087 37.1132C35.7691 36.5571 35.0987 35.833 34.7388 34.8552C34.1537 33.2538 33.2752 31.5164 32.2776 29.8398C32.211 29.7587 32.1445 29.6766 32.0791 29.5939C31.5941 28.9829 30.9493 28.5121 30.2973 28.0638C30.1464 27.9588 29.9974 27.8596 29.8479 27.7565Z" fill="#E8C7AA"/>
<path d="M72.7514 30.5776C72.6232 31.1992 72.7326 30.9202 72.3915 30.8073C72.3864 30.8055 72.3812 30.8037 72.376 30.802C72.3074 30.7761 72.2349 30.777 72.1386 30.7842C71.8937 30.8142 71.6014 30.7951 70.3052 30.8892C69.9733 31.0409 69.618 31.2095 69.2413 31.3919C65.1294 33.2238 63.7776 34.9898 62.1879 39.3826C62.1844 39.4259 62.1816 39.4676 62.179 39.5094C62.1098 40.3709 62.1823 41.6261 62.042 42.4379C61.855 43.4856 61.756 44.2875 61.6817 44.961C62.2 48.976 63.1349 51.6063 66.4487 54.0829C67.4223 54.8192 68.6324 55.6183 69.3089 55.8433C70.1151 56.1488 71.1247 56.3391 72.2096 56.4127C72.8546 56.3435 73.4834 56.2133 74.0706 56.0743C74.8951 55.8787 75.638 55.6667 76.2609 55.5714C77.719 55.3493 79.7894 55.34 80.0266 55.3523C80.1166 55.3504 80.2395 55.3312 80.3376 55.3135C80.8135 55.0155 81.2388 54.6235 81.6544 54.1096C81.7214 54.1174 81.7911 54.1252 81.8629 54.1322C82.7619 54.2098 83.3631 53.5504 84.1109 52.2577C84.4379 51.6896 84.7961 50.9895 85.2289 50.1196C85.507 49.558 85.8778 49.349 86.1841 49.1734C86.2739 49.1216 86.358 49.0721 86.4314 49.0172C86.6831 48.8283 86.6086 48.4988 86.5136 48.1148C86.3909 47.6146 86.2323 47.0285 86.7246 46.4575C88.2921 44.6055 87.8871 43.3988 87.5889 42.5474C87.5001 42.2967 87.4206 42.065 87.3984 41.8432C87.3755 40.3816 87.6327 43.0138 87.7201 41.5452C87.8393 40.9835 87.3012 40.0527 86.7333 39.4216C86.5199 39.1828 86.3812 38.812 86.2049 38.38C86.0228 37.9333 85.7988 37.4186 85.4225 36.9457C84.4662 35.7526 83.9184 35.2063 83.4837 34.7623C83.3594 34.6378 83.2427 34.5223 83.1245 34.4106C82.7516 34.0573 82.3177 33.6144 81.8661 33.2048C81.3265 32.7128 80.7604 32.2729 80.2861 32.0265C79.3229 30.8957 79.0737 30.4118 77.6767 29.5738C77.0531 29.1857 76.5359 28.3744 76.2271 27.2433C75.9224 26.1132 75.9258 24.7802 76.3367 23.528C76.747 22.2766 77.496 21.1805 78.4973 20.4874C79.4944 19.7949 80.7286 19.5976 81.8671 19.9811C84.0335 20.6208 86.8441 22.3209 88.5964 23.9006C90.8819 25.8995 92.712 28.2487 94.0866 30.785C95.0484 32.5627 95.8132 34.4111 96.4039 36.2999C96.4643 36.4934 96.5229 36.6881 96.5802 36.884C96.9881 37.6088 97.3836 38.4171 97.6995 39.1329C97.8779 39.5915 97.9087 39.3881 98.1741 40.4215C98.4027 41.4222 98.2923 42.7938 98.1528 43.3729C98.1399 43.5097 98.1253 43.642 98.1089 43.7685C98.0012 44.6027 97.6799 45.1898 97.4046 45.6792C97.2149 46.0166 97.0446 46.318 96.9726 46.6493C96.9338 46.8279 96.8893 47.0745 96.8332 47.3728C96.6065 48.5876 96.161 50.7199 95.1214 52.542C94.6636 53.3475 93.9888 54.241 93.2937 55.0682C92.3034 56.2581 91.251 57.2977 90.9227 57.9685C90.3518 59.1598 89.2098 60.3056 88.04 61.1759C86.9274 62.0163 85.8163 62.5916 85.2907 63.1355C84.6491 63.7901 83.9391 64.018 82.7599 64.239C81.9249 64.3956 80.8889 64.4888 79.917 64.5358C78.865 64.5939 78.0508 64.4777 77.3965 64.367C76.4626 64.2096 75.7759 64.078 74.7249 64.3914C73.5573 64.739 72.2582 64.8935 71.2363 64.6737C70.7742 64.5751 70.2324 64.5153 69.6569 64.426C68.8977 64.309 68.0741 64.1341 67.3595 63.785C66.771 63.4978 66.3479 63.0617 66.0004 62.6648C65.89 62.5401 65.7758 62.4144 65.6686 62.2982C65.1529 62.0592 64.7466 61.8268 64.3916 61.6274C64.3117 61.6281 64.2259 61.6303 64.1356 61.6313C63.6801 61.6345 63.1153 61.6296 62.5311 61.4217C61.6045 61.0902 60.9781 60.4694 60.353 59.7862C59.8653 59.2519 59.3769 58.6809 58.7143 58.1125C58.2623 57.7244 57.707 57.3053 57.1682 56.8428C56.3676 56.1612 55.6107 55.3637 55.2926 54.6672C55.1728 54.4072 55.1866 54.1137 55.2091 53.8278C55.2094 53.8264 55.2097 53.825 55.2101 53.8236C55.2116 53.8042 55.2129 53.7848 55.2144 53.7654C54.1292 52.0215 53.621 50.8624 52.9605 49.3458C52.8787 49.2259 52.7983 49.106 52.719 48.9841C52.3314 48.3915 51.9744 47.7879 51.6065 47.4174C51.2063 47.0166 50.7606 45.8433 50.4079 44.5242C50.1744 43.6618 49.9811 42.739 49.7952 41.9681C49.686 41.517 49.8493 41.0781 50.0294 40.6387C50.1977 40.229 50.3799 39.8173 50.3746 39.3542C50.372 39.1222 50.3262 38.8655 50.2825 38.5898C50.2438 38.3484 50.2076 38.0815 50.2067 37.7913C50.2052 37.5231 50.3866 36.9437 50.6242 36.3728C50.767 36.034 50.9505 35.5842 51.1414 35.1093C51.3634 33.8396 51.6737 32.5843 52.1009 31.325C52.0732 31.0154 51.9992 30.7161 51.8589 30.4394C51.7584 30.2405 51.6209 30.0439 51.4827 29.8394C51.2946 29.5617 51.1033 29.2704 51.004 28.9365C50.9261 28.676 50.9692 28.4306 51.112 28.3251C51.1785 28.2761 51.2652 28.2575 51.3434 28.2413C51.4331 28.2225 51.5129 28.2062 51.5419 28.1491C51.5627 28.1079 51.5422 28.0419 51.5183 27.9606C51.4801 27.8311 51.4327 27.6606 51.5234 27.4935C51.8617 26.8692 52.331 26.1961 52.8299 25.5581C53.3842 24.8465 53.9758 24.1789 54.4233 23.6155C54.9224 22.9824 55.8665 22.2715 56.8651 21.661C57.5665 21.2285 58.259 20.8633 58.8875 20.4963C59.5257 20.1202 60.1121 19.6483 60.559 19.2898C61.0165 18.9023 61.51 18.5101 62.0506 18.4171C62.1598 18.3985 62.3685 18.5173 62.6278 18.6681C62.8117 18.7749 63.023 18.897 63.2425 18.9986C63.8449 18.707 64.4789 18.4285 65.1499 18.1714C65.1631 18.1367 65.1769 18.1013 65.1907 18.0653C65.1909 18.0645 65.191 18.0637 65.1911 18.063C65.4949 17.2557 66.0265 16.1063 67.447 16.2417C67.8057 16.2781 68.0732 16.4623 68.31 16.63C68.543 16.7951 68.7455 16.9456 68.9927 16.934C69.2731 16.9211 69.571 16.7279 69.9182 16.5266C70.4034 16.244 71.0022 15.945 71.6527 16.1191C71.6968 16.1309 71.7443 16.1442 71.7936 16.1576C72.2599 16.2836 72.9638 16.4972 73.6126 16.9901C75.5399 17.2019 77.9919 18.1462 79.2985 19.1001C80.9218 20.2881 82.5163 21.5287 83.9974 22.6359C84.7166 23.1746 85.1206 24.0422 85.1621 25.0913C85.1875 26.1376 85.0186 27.3587 85.1327 28.657C85.2445 29.9682 84.0183 31.1536 82.7171 31.6808C81.4084 32.2293 80.1344 32.2688 79.1337 31.9054C77.5063 31.307 76.028 30.7337 74.5563 30.1579C74.4722 30.1418 74.3879 30.1246 74.3043 30.1059C73.7156 29.9855 72.8716 29.9319 72.7873 30.3187C72.7568 30.3989 72.7535 30.4904 72.7514 30.5776Z" fill="#E8C7AA"/>
<path d="M121.028 18.5687C121.679 18.837 121.502 19.5058 121.412 19.8858C121.411 19.8927 121.409 19.8995 121.408 19.9064C121.387 19.9958 121.389 20.079 121.392 20.175C121.401 20.4042 121.411 20.7123 121.119 21.4215C121.162 21.6076 121.2 21.7972 121.23 21.9866C121.58 24.1493 121.383 25.7511 121.383 28.6557C121.393 28.6891 121.403 28.7232 121.413 28.7577C121.606 29.4226 121.813 30.2004 121.662 30.7157C121.473 31.3879 121.262 31.8276 121.078 32.1911C120.838 34.1853 120.575 36.0759 120.545 37.9379C120.536 38.5233 120.55 39.1078 120.592 39.679C120.631 40.2111 120.687 40.7366 120.759 41.2692C120.914 41.5656 121.093 41.8491 121.258 42.1148C121.49 42.4833 121.695 42.8109 121.773 43.0921C121.958 43.7581 121.771 44.5396 121.63 45.1213C121.608 45.2171 121.586 45.3052 121.567 45.3871C121.675 45.8313 121.788 46.2843 121.902 46.7286C121.852 46.7612 121.8 46.7941 121.747 46.8277C121.079 47.2482 121.11 47.7144 121.156 48.4635C121.176 48.7847 121.198 49.1592 121.167 49.606C121.146 49.8898 120.88 50.0471 120.663 50.1752C120.599 50.213 120.539 50.2484 120.491 50.2837C120.327 50.4048 120.514 50.5181 120.736 50.6528C121.023 50.8276 121.367 51.0328 121.075 51.3373C120.143 52.3106 120.813 52.6883 121.32 52.9848C121.469 53.0711 121.604 53.1472 121.68 53.2283C121.926 53.4907 121.704 53.8829 121.391 54.1853C121.143 54.4221 121.411 54.8687 121.745 55.2025C121.871 55.3294 121.879 55.5036 121.888 55.7111C121.898 55.9256 121.908 56.175 122.053 56.437C122.435 57.0653 122.628 57.3141 122.782 57.5699C122.826 57.6411 122.867 57.7155 122.909 57.7847C123.042 58.0019 123.162 58.2848 123.283 58.5685C123.429 58.9109 123.579 59.2636 123.761 59.5343C123.662 60.3326 123.576 60.9582 123.37 62.4618C123.211 63.1143 122.76 65.206 119.95 66.4047C117.185 67.0623 117.098 65.0679 117.021 63.8827C116.94 62.6589 117.308 60.8709 115.43 60.8947C113.482 61.3444 113.027 62.3946 112.904 62.2509C112.704 62.1346 112.422 61.2762 112.185 60.5628C111.892 59.6332 111.667 58.7259 111.587 57.5988C111.523 56.8294 111.559 56.2108 111.59 55.5287C111.594 55.4592 111.598 55.3898 111.602 55.3205C111.261 54.771 110.947 54.2215 110.829 53.8372C110.731 53.5203 110.896 53.2847 111.037 53.0817C111.134 52.9422 111.22 52.8191 111.201 52.6986C111.191 52.6339 111.168 52.5459 111.14 52.4401C111.026 52.007 110.832 51.2721 111.121 50.5794C111.249 50.2732 111.511 49.915 111.761 49.5683C112.119 49.0754 112.451 48.6157 112.332 48.395C112.125 48.0099 112.264 47.5503 112.388 47.1443C112.505 46.7593 112.607 46.4176 112.378 46.2396C112.104 46.0258 112.202 45.834 112.344 45.5352C112.443 45.3294 112.564 45.0776 112.6 44.7461C112.641 44.3588 112.809 44.0764 112.951 43.8391C113.152 43.5067 113.302 43.2447 112.976 42.9039C112.614 42.5258 112.372 42.1129 112.457 41.7804C112.496 41.6249 112.472 41.4524 112.448 41.2746C112.415 41.0394 112.381 40.7933 112.485 40.5554C112.571 40.3603 112.815 40.1876 113.031 40.0349C113.098 39.9871 113.162 39.9423 113.218 39.8975C113.204 39.7463 113.187 39.5963 113.168 39.4477C113.125 39.4267 113.078 39.4049 113.029 39.3821C112.783 39.2673 112.482 39.1312 112.322 38.9381C112.068 38.6339 112.188 38.3524 112.313 38.0396C112.411 37.7974 112.514 37.5561 112.444 37.2825C112.397 37.0973 112.273 36.8955 112.15 36.6993C111.967 36.4008 111.786 36.1119 111.86 35.893C111.888 35.8088 112.04 35.7234 112.192 35.6388C112.193 35.6384 112.194 35.638 112.195 35.6376C112.205 35.6318 112.215 35.6261 112.226 35.6203C112.05 35.117 111.858 34.6248 111.655 34.1289C111.608 34.09 111.563 34.0508 111.517 34.0123C111.297 33.8263 111.081 33.6379 110.796 33.541C110.487 33.4372 110.269 33.0919 110.038 32.7532C109.885 32.5197 109.729 32.3016 109.535 32.1223C109.423 32.0201 109.568 31.8851 109.718 31.7466C109.857 31.6174 109.999 31.4764 109.938 31.3684C109.908 31.3141 109.829 31.2642 109.746 31.214C109.672 31.1684 109.593 31.1195 109.54 31.0661C109.491 31.0145 109.557 30.8805 109.635 30.6902C109.683 30.5731 109.737 30.44 109.774 30.3025C109.599 29.9947 109.408 29.6102 109.228 29.1945C109.067 29.1356 108.866 29.097 108.617 29.0853C108.438 29.0769 108.227 29.082 108.012 29.0864C107.718 29.0921 107.415 29.0971 107.166 29.068C106.971 29.0453 106.884 28.9889 106.95 28.926C106.981 28.8967 107.044 28.8662 107.101 28.8386C107.166 28.8071 107.224 28.7791 107.218 28.7606C107.214 28.7473 107.162 28.7432 107.1 28.738C107 28.7299 106.871 28.7185 106.856 28.6653C106.799 28.4684 106.793 28.2359 106.788 28.0049C106.782 27.7495 106.776 27.4992 106.703 27.3133C106.621 27.1058 106.745 26.7624 106.869 26.4189C106.956 26.1796 107.043 25.9415 107.062 25.7465C107.081 25.5562 106.947 25.3833 106.818 25.2159C106.662 25.0161 106.512 24.8182 106.643 24.6114C106.669 24.5697 106.859 24.4915 107.097 24.3942C107.266 24.3252 107.458 24.2464 107.635 24.1641C107.598 23.9354 107.57 23.7026 107.55 23.4711C107.522 23.4671 107.494 23.463 107.464 23.4589C107.464 23.4588 107.463 23.4588 107.462 23.4588C106.804 23.3646 105.902 23.2266 106.364 22.7808C106.482 22.6681 106.715 22.5755 106.925 22.4916C107.131 22.4093 107.316 22.3363 107.347 22.2626C107.382 22.1789 107.238 22.1065 107.082 22.0251C106.863 21.9103 106.618 21.7815 106.807 21.5964C106.82 21.5836 106.834 21.5699 106.848 21.5557C106.982 21.421 107.18 21.2246 107.602 21.0025C107.66 20.4884 107.744 19.9725 107.846 19.4521C108.017 18.5875 108.241 17.7155 108.489 16.8449C108.611 16.4196 109.205 15.9933 110.17 15.6861C111.136 15.3783 112.386 15.2186 113.678 15.2106C114.971 15.2018 116.22 15.3342 117.197 15.5457C118.172 15.7593 118.788 16.0369 118.945 16.3496C119.198 16.8591 119.464 17.3704 119.721 17.8836C119.751 17.9089 119.779 17.9345 119.806 17.9602C120.005 18.1519 120.385 18.3094 120.767 18.463C120.855 18.4981 120.943 18.5332 121.028 18.5687Z" fill="#E8C7AA"/>
<path d="M141.631 33.3854C142.254 33.6519 142.01 34.1592 141.876 34.4533C141.874 34.4584 141.872 34.4636 141.87 34.4687C141.838 34.5356 141.831 34.599 141.823 34.6742C141.804 34.8547 141.778 35.0994 141.394 35.6074C141.412 35.7536 141.423 35.9036 141.426 36.0477C141.461 37.6379 140.988 39.2326 140.42 40.8467C140.424 40.8666 140.428 40.8867 140.432 40.9071C140.508 41.3036 140.603 41.7945 140.387 42.1169C140.113 42.5187 139.856 42.802 139.633 43.0287C139.19 44.2986 138.744 45.6469 138.676 46.6597C138.65 46.9844 138.661 47.3869 138.705 47.7491C138.745 48.0893 138.809 48.4256 138.893 48.7638C139.053 48.9436 139.239 49.1125 139.412 49.2677C139.655 49.4859 139.872 49.6813 139.96 49.858C140.173 50.2829 140.029 50.8427 139.923 51.2695C139.906 51.3392 139.889 51.4052 139.876 51.4661C140.009 51.7728 140.149 52.0855 140.289 52.4045C140.241 52.4342 140.192 52.4644 140.14 52.4951C139.502 52.8781 139.561 53.2229 139.645 53.7825C139.681 54.0233 139.723 54.318 139.711 54.6626C139.703 54.8847 139.442 55.0166 139.23 55.1269C139.168 55.159 139.109 55.1888 139.062 55.218C138.902 55.3177 139.093 55.389 139.317 55.4755C139.609 55.5863 139.96 55.7317 139.675 55.9822C138.767 56.7625 139.438 57.0048 139.949 57.2076C140.099 57.2662 140.234 57.3199 140.311 57.3787C140.56 57.5688 140.341 57.874 140.03 58.1078C139.784 58.2932 140.053 58.6238 140.387 58.8713C140.513 58.9649 140.521 59.0984 140.53 59.2553C140.54 59.4175 140.549 59.6049 140.693 59.8008C141.055 60.2956 141.23 60.561 141.369 60.7734C141.409 60.8342 141.445 60.8907 141.483 60.947C141.602 61.1248 141.702 61.348 141.802 61.5731C141.922 61.8422 142.042 62.1161 142.2 62.3222C142.045 62.8672 141.849 63.4088 141.652 63.9432C141.549 64.2192 140.96 64.4835 139.988 64.6825C139.014 64.88 137.744 64.9959 136.426 65.0048C135.109 65.0148 133.837 64.9163 132.861 64.7346C131.885 64.5513 131.291 64.3018 131.184 64.0369C130.97 63.5058 130.755 62.9775 130.58 62.455C130.366 61.8191 130.213 61.1872 130.194 60.5588C130.18 60.1188 130.196 59.6805 130.234 59.2442C130.238 59.1993 130.242 59.1544 130.247 59.1095C129.906 58.7598 129.593 58.4186 129.473 58.1754C129.375 57.9751 129.538 57.8161 129.678 57.6788C129.774 57.5843 129.859 57.5008 129.839 57.4237C129.828 57.3821 129.804 57.326 129.775 57.259C129.656 56.9748 129.457 56.5687 129.728 56.0892C129.847 55.8734 130.1 55.6306 130.339 55.3993C130.681 55.0689 130.992 54.7257 130.865 54.5955C130.643 54.3655 130.761 54.0484 130.862 53.7603C130.959 53.4865 131.042 53.2408 130.805 53.1448C130.522 53.0299 130.607 52.8812 130.732 52.6566C130.819 52.5007 130.924 52.3088 130.94 52.0639C130.959 51.7816 131.11 51.5565 131.238 51.3658C131.419 51.0969 131.555 50.8945 131.215 50.6722C130.836 50.4246 130.578 50.1358 130.649 49.8719C130.682 49.7507 130.652 49.6224 130.622 49.4869C130.582 49.3078 130.54 49.1184 130.639 48.93C130.721 48.7737 130.961 48.6249 131.173 48.4943C131.24 48.4535 131.303 48.4144 131.359 48.3773C131.342 48.2633 131.325 48.1525 131.305 48.0385C131.262 48.0245 131.214 48.0095 131.166 47.9946C130.92 47.9191 130.619 47.8263 130.459 47.6786C130.206 47.4426 130.324 47.1746 130.453 46.9155C130.555 46.7163 130.659 46.5118 130.61 46.3107C130.574 46.1711 130.464 46.0165 130.354 45.8632C130.192 45.6375 130.032 45.4027 130.122 45.2348C130.155 45.1716 130.314 45.1116 130.472 45.0527C130.473 45.0524 130.474 45.0521 130.474 45.0518C130.485 45.0478 130.496 45.0438 130.506 45.0398C130.37 44.6514 130.22 44.2562 130.065 43.8779C130.022 43.8459 129.981 43.8137 129.939 43.7817C129.738 43.6256 129.542 43.4753 129.269 43.3827C128.972 43.2846 128.793 43.003 128.603 42.7162C128.48 42.5297 128.352 42.3285 128.184 42.1709C128.086 42.0785 128.249 41.983 128.416 41.8853C128.573 41.7953 128.733 41.6975 128.69 41.601C128.668 41.5524 128.598 41.5015 128.523 41.4474C128.457 41.3998 128.387 41.3496 128.343 41.2963C128.303 41.2464 128.389 41.1328 128.5 40.9809C128.568 40.8877 128.645 40.7824 128.707 40.6734C128.596 40.3962 128.489 40.1083 128.389 39.8306C128.242 39.7762 128.052 39.7301 127.809 39.6954C127.635 39.6706 127.427 39.6512 127.215 39.6312C126.925 39.6041 126.626 39.576 126.387 39.5326C126.201 39.4987 126.125 39.4549 126.202 39.422C126.237 39.4067 126.305 39.3939 126.366 39.3822C126.435 39.3689 126.498 39.357 126.495 39.3447C126.494 39.3358 126.444 39.3278 126.383 39.318C126.287 39.3024 126.162 39.282 126.157 39.2461C126.137 39.1145 126.172 38.9532 126.207 38.8022C126.247 38.6336 126.285 38.4703 126.244 38.3384C126.199 38.1903 126.378 37.9851 126.557 37.766C126.682 37.6155 126.806 37.4671 126.856 37.3426C126.904 37.2194 126.799 37.0902 126.696 36.9695C126.574 36.8247 126.455 36.6848 126.614 36.558C126.646 36.5325 126.846 36.4974 127.095 36.4536C127.272 36.4226 127.474 36.387 127.66 36.3477C127.657 36.1961 127.662 36.0376 127.674 35.8832C127.647 35.8784 127.619 35.8734 127.591 35.8683C127.59 35.8683 127.589 35.8682 127.589 35.8681C126.949 35.7563 126.075 35.5971 126.589 35.3429C126.72 35.2786 126.964 35.2354 127.182 35.1966C127.397 35.1591 127.59 35.1227 127.629 35.0761C127.674 35.023 127.541 34.9643 127.396 34.901C127.192 34.8115 126.964 34.7168 127.172 34.6051C127.187 34.5976 127.202 34.5896 127.218 34.5812C127.366 34.5019 127.585 34.3858 128.029 34.2694C128.142 33.933 128.276 33.6063 128.423 33.2718C128.668 32.7198 128.95 32.1653 129.233 31.6101C129.372 31.3458 129.977 31.0782 130.946 30.8834C131.917 30.6829 133.166 30.5741 134.459 30.5665C135.751 30.5556 137.001 30.6478 137.974 30.8283C138.947 31.0034 139.556 31.25 139.7 31.5024C139.934 31.9205 140.168 32.3474 140.386 32.7625C140.413 32.7847 140.439 32.8071 140.464 32.8297C140.647 32.9859 141.013 33.1438 141.38 33.2846C141.464 33.3178 141.548 33.3514 141.631 33.3854Z" fill="#E8C7AA"/>
<path d="M127.676 17.1335C126.621 18.2042 128.025 22.1339 129.228 22.7894C129.247 22.8066 129.267 22.8237 129.287 22.8406C129.549 23.0562 129.785 23.251 130.078 23.4548C130.811 23.8594 131.633 24.8215 134.718 24.1946C135.032 24.1938 136.235 23.8612 136.635 23.6245C137.948 22.8101 138.773 22.5509 139.598 19.5898C140.068 17.6583 139.265 15.3126 138.377 14.2949C137.504 13.2331 136.818 12.9252 136.274 12.6955C134.177 11.7807 131.707 13.1098 131.515 13.8018C131.508 13.803 131.498 13.8067 131.484 13.8134C131.047 14.1044 130.868 14.279 130.983 14.5233C131.149 14.8154 131.403 14.9289 131.62 15.0017C132.179 14.4752 132.331 16.6974 134.147 17.1606C135.239 17.5258 135.726 17.2566 135.961 17.1951C136.182 17.1107 136.184 17.1132 136.252 17.1119C136.344 17.21 136.453 17.328 136.567 17.4233C136.726 17.5589 136.894 17.6465 136.972 17.6377C137.139 17.6362 137.2 17.1572 137.05 16.2986C137.025 16.163 136.991 16.0228 136.952 15.883C136.971 15.127 136.505 13.5386 134.889 12.6659C134.771 12.6669 134.688 12.6925 134.631 12.7289C133.26 12.9286 132.652 13.1454 132.218 13.3003C132.036 13.3751 131.919 13.4502 131.873 13.5563C131.782 13.6838 132.094 13.7634 132.232 13.9374C132.278 13.9834 132.321 14.0274 132.356 14.0621C132.474 14.183 132.361 14.034 132.202 13.8876C132 13.6906 131.731 13.4896 132.014 13.6097C132.953 13.933 132.432 13.4604 131.947 13.3363C131.808 13.2923 131.679 13.2634 131.604 13.2598C131.365 13.1904 131.524 13.7175 131.861 13.8108C132.109 13.996 131.907 14.8765 132.267 15.8539C132.389 16.2119 132.775 16.6113 133.3 16.9031C133.849 17.2097 134.476 17.3859 135.168 17.5041C136.755 17.7519 137.379 17.2884 137.706 17.2193C137.806 17.1833 137.892 17.1506 137.975 17.1188C138.237 17.0184 138.469 16.8717 138.666 16.7304C138.906 16.5506 139.083 16.4251 139.292 16.2851C139.279 15.7459 138.994 15.8712 138.793 16.1641C138.683 16.3179 138.092 16.5313 137.118 16.7185C136.144 16.9055 134.874 17.0318 133.557 17.0401C132.239 17.0485 130.967 16.9521 129.991 16.7474C129.017 16.543 128.423 16.2288 128.33 15.8436C128.158 15.0591 127.948 14.1388 128.273 12.5923C128.691 10.9443 129.33 8.93883 132.456 7.50363C134.698 6.44567 138.768 7.08808 140.543 9.97069C140.722 10.2454 140.876 10.5287 141.005 10.8096C142.399 13.0421 142.236 14.9015 142.193 15.6874C142.121 16.3946 141.809 16.7359 141.551 17.0039C141.372 17.187 141.212 17.3322 141.146 17.5158C141.11 17.615 141.068 17.752 141.015 17.9144C140.787 18.5889 140.408 19.6132 139.245 20.4217C138.785 20.7161 138.084 20.9931 137.367 21.1718C136.343 21.4385 135.286 21.477 134.749 21.7194C133.916 22.1797 131.852 22.0627 130.603 21.1698C128.964 20.1221 128.52 18.7431 128.079 18.1787C127.553 17.4605 127.572 16.7301 127.763 15.9633C127.891 15.455 128.159 14.7752 128.378 14.3072C128.706 13.5544 129.058 13.3431 129.365 13.1169C129.798 12.8202 130.101 12.6755 130.176 12.1048C130.262 11.4694 130.556 10.8812 131.027 10.64C131.286 10.495 131.391 10.4022 131.648 10.2157C132.001 9.96355 132.331 9.76379 132.759 9.70563C133.107 9.66105 133.47 9.80589 133.773 9.95425C133.867 10.0005 133.958 10.0462 134.042 10.0866C134.307 10.0185 134.594 9.96407 134.908 9.93395C134.955 9.88927 135.008 9.84058 135.065 9.79129C135.348 9.54563 135.776 9.25478 136.392 9.23283C137.388 9.19945 138.193 9.81926 138.59 10.3236C138.928 10.7342 139.171 11.1453 139.537 11.5361C139.786 11.8042 140.105 12.0939 140.404 12.4558C140.847 12.9808 141.228 13.7326 141.2 14.3781C141.19 14.597 141.045 14.9103 140.881 15.1087C140.88 15.1096 140.879 15.1105 140.878 15.1114C140.867 15.125 140.856 15.1382 140.845 15.151C140.925 15.9856 140.976 16.4856 140.96 17.1914C140.986 17.2571 141.012 17.3241 141.036 17.3913C141.154 17.7193 141.249 18.0581 141.438 18.3382C141.645 18.6401 141.612 19.2485 141.461 19.9389C141.365 20.3903 141.217 20.8739 141.109 21.315C141.045 21.5737 140.765 21.6723 140.479 21.7545C140.212 21.8324 139.94 21.8968 139.795 22.1097C139.721 22.2175 139.68 22.3584 139.601 22.5363C139.534 22.691 139.452 22.8591 139.365 22.9899C139.252 23.1356 139.147 23.1253 138.609 23.3757C138.32 23.4957 138.013 23.5982 137.668 23.7132C136.899 24.2549 135.899 24.7223 134.738 24.9237C134.508 25.0911 134.298 25.2883 134.118 25.5324C133.989 25.7074 133.871 25.9135 133.742 26.1216C133.559 26.4037 133.395 26.6965 133.041 26.901C132.765 27.0603 132.517 27.0973 132.432 27.0046C132.389 26.961 132.369 26.889 132.343 26.8223C132.314 26.746 132.285 26.6774 132.229 26.6687C132.189 26.6625 132.135 26.7027 132.062 26.749C131.948 26.8236 131.764 26.9108 131.559 26.8631C130.882 26.7068 130.179 26.4144 129.455 25.9945C128.654 25.53 127.814 24.8891 127.036 24.1272C126.219 23.3284 124.793 21.289 124.942 18.1881C125.011 16.9243 125.735 15.0645 126.162 14.4371C126.61 13.6821 126.972 13.0313 127.366 12.4508C127.833 11.7605 128.367 11.1774 129.019 10.9396C129.15 10.8921 129.402 10.9686 129.706 11.081C129.921 11.1606 130.164 11.2579 130.414 11.341C131.042 10.9931 132.378 10.6127 132.978 10.5803C133.008 10.5493 133.041 10.5177 133.076 10.4856C133.077 10.4848 133.077 10.4841 133.078 10.4834C134.04 9.7435 135.483 8.92498 136.921 9.99528C137.265 10.2643 137.391 10.5942 137.487 10.8849C137.582 11.1718 137.647 11.4242 137.847 11.59C138.074 11.7788 138.429 11.8544 138.824 11.9813C139.373 12.154 140.018 12.4535 140.278 13.1111C140.296 13.1557 140.314 13.204 140.333 13.2541C140.499 13.6998 140.797 14.5703 140.654 15.4021C141.362 17.3515 140.996 19.5146 140.269 20.8203C139.035 23.1152 136.993 24.0504 135.364 24.2992C134.663 24.1948 132.714 25.1399 130.595 21.4051C130.446 18.5906 132.417 19.681 133.574 19.4567C134.711 19.1856 136.787 20.7641 136.506 17.6032C133.821 13.4045 132.339 14.6853 132.039 14.3733C131.344 14.4046 130.724 14.336 129.662 15.4138C129.604 15.4513 129.547 15.4913 129.491 15.5342C129.082 15.8511 128.533 16.1623 128.017 16.715C127.9 16.8417 127.784 16.9808 127.676 17.1335Z" fill="#E8C7AA"/>
<path d="M163.238 20.9248C163.884 21.515 163.687 22.7221 163.581 23.3868C163.58 23.399 163.578 23.4111 163.576 23.4233C163.551 23.5813 163.55 23.7295 163.55 23.9027C163.548 24.317 163.546 24.8755 163.216 26.0604C163.25 26.3972 163.277 26.7357 163.297 27.0723C163.491 30.7567 163.331 34.1387 163.046 38.1389C163.053 38.1879 163.06 38.2378 163.068 38.2883C163.209 39.261 163.366 40.5078 163.174 41.3204C162.931 42.3511 162.674 43.0635 162.445 43.6462C161.876 47.1518 161.372 49.4477 161.223 52.4889C161.173 53.4054 161.152 54.3263 161.164 55.2496C161.175 56.0994 161.207 56.9517 161.256 57.8057C161.398 58.3016 161.564 58.7738 161.719 59.2117C161.935 59.8286 162.127 60.3778 162.192 60.8353C162.349 61.9358 162.127 63.1949 161.957 64.135C161.929 64.2898 161.902 64.4358 161.879 64.5701C161.965 65.3173 162.038 66.1114 162.144 66.6688C162.093 66.7087 162.04 66.7489 161.986 66.7902C161.313 67.3144 161.349 68.0034 161.459 69.1167C161.507 69.6044 161.571 70.1846 161.595 70.8957C161.61 71.3507 161.364 71.6181 161.163 71.8367C161.104 71.9019 161.049 71.9597 161.005 72.0189C160.856 72.2209 161.058 72.4016 161.296 72.6118C161.606 72.8893 161.977 73.2229 161.72 73.7364C160.9 75.3775 161.599 75.9964 162.133 76.4874C162.289 76.6281 162.43 76.7583 162.513 76.8978C162.781 77.3429 162.586 78.0137 162.291 78.532C162.056 78.9301 162.348 79.7112 162.693 80.2892C162.824 80.5073 162.839 80.8166 162.854 81.1824C162.87 81.5676 162.886 82.0234 163.036 82.5107C163.425 83.6673 163.541 84.589 163.642 85.1021C163.67 85.2605 163.694 85.4131 163.72 85.5613C163.8 86.0349 163.838 86.6322 163.88 87.1455C163.931 87.7598 164.004 88.246 164.139 88.5925C163.918 89.5411 163.704 90.7093 163.499 91.8693C163.393 92.4678 162.804 93.0519 161.833 93.4931C160.86 93.932 159.591 94.1924 158.274 94.1999C156.956 94.2107 155.683 93.9717 154.706 93.5353C153.729 93.097 153.134 92.4899 153.031 91.8478C152.827 90.5502 152.621 89.2554 152.547 87.7556C152.481 85.832 152.538 84.4958 152.535 83.4858C152.517 82.4912 152.523 81.6141 152.537 80.5585C152.538 80.4563 152.54 80.3469 152.542 80.241C152.181 79.4039 151.839 78.5741 151.695 77.9798C151.577 77.5007 151.724 77.1277 151.849 76.8075C151.935 76.5895 152.01 76.3956 151.98 76.2061C151.964 76.1039 151.934 75.9729 151.895 75.8029C151.741 75.129 151.466 73.9804 151.666 72.8519C151.755 72.3454 151.97 71.7425 152.176 71.1455C152.469 70.2954 152.753 69.4723 152.616 69.0745C152.373 68.3703 152.49 67.5285 152.62 66.7353C152.744 65.9802 152.876 65.4667 152.657 65.1547C152.396 64.7881 152.504 64.482 152.662 64.0152C152.771 63.6939 152.904 63.2955 152.955 62.7513C153.014 62.1263 153.194 61.6785 153.346 61.2986C153.561 60.7645 153.722 60.3589 153.41 59.7641C153.064 59.1015 152.839 58.4084 152.939 57.8564C152.984 57.6053 152.968 57.3185 152.951 57.02C152.929 56.6247 152.907 56.2085 153.023 55.826C153.118 55.5106 153.371 55.2482 153.594 55.0153C153.664 54.9427 153.73 54.8731 153.789 54.8058C153.782 54.5562 153.775 54.3049 153.764 54.055C153.722 54.0149 153.676 53.9729 153.629 53.929C153.39 53.7077 153.098 53.4364 152.95 53.0961C152.717 52.5571 152.856 52.0833 153.005 51.5784C153.121 51.1873 153.243 50.7816 153.198 50.3124C153.168 49.9939 153.064 49.6283 152.962 49.2684C152.81 48.7277 152.664 48.1958 152.765 47.8235C152.803 47.6839 152.965 47.5665 153.127 47.4514C153.128 47.4509 153.129 47.4504 153.13 47.4498C153.141 47.442 153.151 47.4342 153.162 47.4264C153.053 46.537 152.949 45.5218 152.839 44.7079C152.8 44.6377 152.761 44.5687 152.722 44.5015C152.534 44.1746 152.345 43.8729 152.075 43.6617C151.782 43.4378 151.607 42.8765 151.405 42.2741C151.274 41.88 151.133 41.4688 150.952 41.1353C150.846 40.9404 150.999 40.74 151.157 40.531C151.304 40.336 151.454 40.1332 151.399 39.9255C151.371 39.8214 151.295 39.7125 151.213 39.596C151.14 39.4934 151.063 39.385 151.012 39.269C150.965 39.1612 151.036 38.9074 151.123 38.5778C151.177 38.3741 151.238 38.1415 151.282 37.8974C151.125 37.2764 150.967 36.6481 150.815 36.0107C150.658 35.8894 150.46 35.7899 150.21 35.7192C150.031 35.6685 149.82 35.6308 149.603 35.592C149.308 35.5392 149.004 35.4843 148.757 35.3919C148.563 35.3197 148.48 35.2209 148.55 35.1428C148.583 35.1063 148.648 35.0745 148.707 35.0457C148.774 35.0127 148.834 34.9833 148.83 34.9546C148.826 34.9338 148.775 34.9167 148.713 34.8955C148.613 34.8616 148.484 34.8175 148.472 34.7333C148.427 34.4177 148.434 34.0568 148.441 33.6882C148.449 33.2787 148.458 32.8747 148.398 32.5734C148.329 32.239 148.475 31.712 148.624 31.1945C148.728 30.8447 148.832 30.4922 148.865 30.1925C148.898 29.903 148.777 29.6081 148.659 29.3283C148.518 28.9869 148.383 28.6626 148.528 28.3699C148.557 28.3114 148.753 28.229 148.998 28.1255C149.171 28.0521 149.369 27.9676 149.551 27.8737C149.53 27.5165 149.518 27.1575 149.513 26.7994C149.486 26.7883 149.457 26.7768 149.428 26.7653C149.428 26.7651 149.427 26.7649 149.426 26.7648C148.774 26.5044 147.882 26.1504 148.371 25.5568C148.496 25.4057 148.735 25.3027 148.95 25.21C149.161 25.119 149.35 25.0377 149.385 24.931C149.425 24.8099 149.285 24.6763 149.134 24.531C148.921 24.3269 148.683 24.0977 148.882 23.8468C148.895 23.8297 148.91 23.8112 148.925 23.7921C149.066 23.6104 149.274 23.3412 149.707 23.0635C149.79 22.2967 149.894 21.5278 150.014 20.7598C150.214 19.4772 150.454 18.1918 150.706 16.9008C150.831 16.268 151.423 15.6492 152.387 15.1872C153.352 14.7294 154.601 14.4697 155.894 14.4645C157.186 14.4536 158.436 14.6822 159.415 15.0742C160.392 15.472 161.011 16.0133 161.17 16.6032C161.427 17.5584 161.691 18.5251 161.941 19.4921C161.97 19.5422 161.998 19.5926 162.024 19.643C162.221 20.0167 162.599 20.3542 162.978 20.6911C163.066 20.7687 163.153 20.8466 163.238 20.9248Z" fill="#E8C7AA"/>
<path d="M154.796 11.8195C154.948 10.8343 156.274 10.0484 157.058 9.63469C157.072 9.62655 157.087 9.6184 157.101 9.61024C157.291 9.5071 157.458 9.39312 157.645 9.26838C157.95 9.06663 157.768 9.18219 158.72 8.6255C159.801 8.01157 161.333 7.49994 162.857 7.45127C163.73 7.28851 164.509 7.24555 165.204 7.25607C169.069 7.47854 169.934 8.06098 172.951 9.27597C175.995 10.7437 177.755 12.7205 179.165 14.5565C179.208 14.5958 179.252 14.6359 179.297 14.6766C180.151 15.4562 181.084 16.4276 181.45 17.2479C181.856 18.2121 182.083 18.9789 182.267 19.6672C184.027 23.1694 184.763 26.8917 184.844 30.416C184.874 31.5175 184.85 32.594 184.8 33.6448C184.754 34.6122 184.68 35.5594 184.592 36.4883C184.653 37.044 184.731 37.5751 184.797 38.067C184.889 38.7561 184.958 39.3683 184.92 39.8502C184.829 41.0153 184.31 42.2017 183.924 43.0544C183.861 43.1939 183.801 43.3252 183.747 43.4467C183.653 44.174 183.564 44.8892 183.479 45.5955C183.418 45.6286 183.354 45.6614 183.289 45.6947C182.478 46.1033 182.237 47.0787 181.75 48.3983C181.535 48.977 181.265 49.6411 180.855 50.3719C180.587 50.8464 180.215 50.9617 179.915 51.0515C179.827 51.0777 179.744 51.1017 179.671 51.1315C179.422 51.2335 179.473 51.5151 179.526 51.8508C179.594 52.288 179.657 52.8317 179.101 53.1236C177.332 54.0253 177.382 54.9352 177.375 55.7202C177.373 55.9466 177.371 56.149 177.317 56.3206C177.145 56.8732 176.448 57.2641 175.82 57.4232C175.327 57.5497 174.853 58.3293 174.517 59.0196C174.395 59.2781 174.111 59.5094 173.772 59.7667C173.429 60.0275 172.947 60.3708 172.556 60.7784C169.109 62.8318 169.69 62.2791 168.744 62.6817C168.55 62.7485 168.369 62.8066 168.186 62.8632C167.609 63.0428 166.874 63.1808 166.129 63.2646C165.235 63.3675 164.332 63.3919 163.637 63.4412C162.029 63.0283 159.968 62.2939 158.454 61.162C157.685 60.6121 157.35 59.6525 157.529 58.5819C157.705 57.5061 158.29 56.3541 159.069 55.2923C159.849 54.2303 160.814 53.3651 161.694 52.7983C162.578 52.2349 163.229 51.9602 163.563 52.0254C164.155 52.1417 164.679 51.9965 165.458 51.9629C166.323 51.8823 167.048 51.6861 167.645 51.5305C167.443 51.6762 167.4 51.6025 168.144 51.107C168.206 51.0622 168.267 51.0193 168.329 50.9741C168.591 50.3208 168.812 49.6784 169.025 49.2909C169.199 48.9732 169.497 48.8894 169.754 48.8097C169.932 48.7538 170.088 48.7019 170.164 48.5813C170.204 48.5162 170.25 48.4236 170.305 48.3097C170.532 47.8432 170.856 47.0654 171.498 46.5367C171.787 46.3002 172.214 46.0633 172.618 45.8053C173.195 45.4432 173.723 45.0194 173.702 44.7436C173.667 44.2598 173.96 43.8271 174.266 43.1837C174.549 42.6219 174.795 42.1353 174.656 41.7908C174.489 41.3796 174.667 41.1118 174.927 40.7158C175.108 40.441 175.328 40.1046 175.496 39.6203C175.69 39.0632 175.957 38.7034 176.183 38.3945C176.499 37.9621 176.735 37.6298 176.534 37.0439C176.309 36.3951 176.19 35.7685 176.357 35.3189C176.433 35.1138 176.452 34.8692 176.466 34.6198C176.485 34.2873 176.498 33.9457 176.639 33.6425C176.755 33.3933 177.02 33.1941 177.253 33.0114C177.326 32.9545 177.395 32.8993 177.455 32.8454C177.457 32.6372 177.455 32.4294 177.445 32.2241C177.404 32.1911 177.358 32.1567 177.311 32.1211C177.072 31.9419 176.777 31.733 176.62 31.4796C176.37 31.0797 176.48 30.7244 176.582 30.3321C176.662 30.0285 176.735 29.7044 176.623 29.372C176.547 29.1464 176.384 28.9078 176.218 28.685C175.97 28.3511 175.713 28.0506 175.716 27.7749C175.717 27.6722 175.839 27.5383 175.957 27.4015C175.958 27.4008 175.959 27.4001 175.96 27.3994C175.968 27.3901 175.975 27.3809 175.983 27.3716C175.635 26.8077 175.233 26.2841 174.788 25.795C174.724 25.7672 174.663 25.7421 174.602 25.7179C174.305 25.6008 174.019 25.5065 173.709 25.5275C173.373 25.5498 172.998 25.291 172.485 24.9291C172.146 24.6873 171.847 24.5126 171.529 24.3879C171.347 24.3183 171.368 24.0891 171.387 23.852C171.404 23.6305 171.419 23.4021 171.274 23.3034C171.201 23.2545 171.087 23.2323 170.968 23.2132C170.863 23.1961 170.751 23.1782 170.658 23.1424C170.571 23.1086 170.504 22.9103 170.415 22.6652C170.359 22.5125 170.295 22.3423 170.215 22.1813C169.815 21.96 169.436 21.7826 169.097 21.6584C168.955 21.7361 168.8 21.8588 168.632 22.0374C168.511 22.1656 168.377 22.326 168.244 22.4924C168.063 22.719 167.88 22.9566 167.729 23.143C167.611 23.2887 167.553 23.3405 167.577 23.2655C167.589 23.2305 167.617 23.1687 167.643 23.1126C167.672 23.0484 167.697 22.991 167.69 22.9893C167.685 22.9881 167.657 23.0292 167.623 23.0793C167.568 23.1592 167.501 23.2636 167.486 23.2609C167.436 23.2525 167.399 23.1946 167.436 23.1672C167.617 23.1837 167.371 23.0548 167.081 23.0096C166.791 22.967 166.465 22.6799 166.181 22.414C165.982 22.2282 165.801 22.0526 165.65 21.9654C165.502 21.8797 165.334 21.9512 165.209 22.0318C165.057 22.1281 164.978 22.2372 164.967 22.0742C164.965 22.041 164.974 21.841 164.979 21.5906C164.983 21.4132 164.985 21.2102 164.984 21.0231C164.963 21.0223 165.018 21.0194 165.17 20.9778C165.18 21.0036 165.19 21.0298 165.202 21.0564C165.202 21.057 165.202 21.0576 165.202 21.0583C165.458 21.6406 165.995 22.5143 166.768 21.4788C166.858 21.266 166.772 21.0169 166.58 20.886C166.402 20.747 166.243 20.6228 166.154 20.6373C166.052 20.6537 166.043 20.8238 166.044 21.0022C166.044 21.2539 166.072 21.5163 165.81 21.4533C165.792 21.4491 165.773 21.4445 165.753 21.4401C165.562 21.399 165.279 21.3409 164.848 21.1184C164.332 21.3888 163.802 21.6729 163.265 21.9757C162.369 22.4809 161.459 23.0345 160.541 23.6728C160.095 23.9793 159.298 24.0021 158.278 23.7222C157.257 23.4417 156.122 22.8548 155.129 22.0274C154.133 21.2036 153.289 20.2631 152.794 19.3255C152.3 18.3889 152.222 17.5181 152.548 16.9128C153.082 15.9265 153.678 14.9276 154.346 13.959C154.37 13.897 154.395 13.8353 154.421 13.7747C154.614 13.3283 154.67 12.7705 154.742 12.2071C154.759 12.077 154.776 11.9481 154.796 11.8195Z" fill="#E8C7AA"/>
<path d="M205.125 31.3784C202.539 29.5777 201.773 30.7742 202.56 30.5326C202.569 30.5313 202.579 30.5299 202.589 30.5284C202.721 30.5122 202.858 30.4649 203.04 30.3963C203.197 30.3394 203.81 30.0895 203.799 30.1396C203.849 30.1382 203.33 30.6312 203.503 30.7748C203.464 30.7961 203.476 30.7775 203.524 30.6969C203.852 30.2525 204.553 28.0741 204.931 25.6709C205.139 24.4501 205.318 23.1242 205.531 21.6446C205.683 20.964 205.813 21.0637 205.76 20.5138C205.747 20.4939 205.734 20.4732 205.719 20.4518C205.466 20.0534 204.759 19.2806 204.32 18.5228C203.898 17.6361 202.706 16.4095 203.948 16.9531C204.909 17.2237 204.777 16.8157 204.083 16.887C203.096 17.0861 204.56 16.2846 203.954 16.6319C203.266 17.167 202.374 19.0988 201.866 20.9924C201.531 22.2047 201.276 23.4939 201.089 24.8134C200.916 26.0335 200.797 27.2534 200.709 28.5272C200.77 29.2738 200.895 29.8475 201.017 30.4629C201.189 31.3083 201.37 32.0587 201.437 32.6806C201.596 34.1765 201.477 35.9105 201.437 37.2144C201.43 37.4268 201.424 37.6286 201.422 37.8138C201.617 38.8232 201.849 39.8386 202.105 40.7917C202.066 40.8678 202.025 40.946 201.983 41.0258C201.471 42.0603 201.685 43.2651 202.015 45.02C202.161 45.7837 202.329 46.6534 202.498 47.6239C202.607 48.2472 202.424 48.6126 202.276 48.921C202.233 49.0116 202.193 49.0963 202.165 49.1789C202.068 49.461 202.321 49.6715 202.612 49.8727C202.992 50.1355 203.447 50.4362 203.368 51.0046C203.2 52.959 204.388 53.338 205.115 53.4619C205.337 53.5046 205.539 53.5394 205.699 53.6121C206.213 53.8457 206.577 54.5555 206.791 55.1904C207.461 55.9858 205.61 54.7314 206.377 54.6294C206.551 54.512 206.881 54.4907 207.608 54.4796C207.945 54.4737 208.645 54.4926 209.142 54.5477C209.179 54.5159 208.706 54.4769 208.674 54.4278C208.325 54.1878 209.003 53.6815 209.238 53.3106C209.323 53.2 209.406 53.0918 209.491 52.978C209.788 52.6012 210.09 52.1763 209.885 52.2493C210.126 51.7562 210.44 51.0629 210.603 50.4922C211.51 49.3111 212.513 47.7831 213.353 46.4644C213.774 45.8202 214.484 45.5426 215.562 45.3317C216.634 45.1283 217.965 44.9983 219.245 45.3186C220.52 45.6375 221.694 46.2516 222.412 47.3007C223.129 48.3418 223.269 49.7362 222.888 50.7865C222.153 52.8425 221.462 54.6831 220.429 56.6997C219.782 57.8748 219.157 59.3237 217.498 60.8499C216.328 61.9359 215.283 62.8632 213.422 63.8064C212.131 64.4201 210.375 65.1422 207.819 64.8367C207.949 64.8037 207.331 64.8389 205.871 64.778C205.569 64.7598 205.229 64.7296 204.844 64.6712C203.484 64.9303 199.725 62.7022 199.747 62.6577C199.053 62.1848 198.477 61.7398 198.008 61.3084C197.238 60.6001 196.873 59.8684 196.587 59.2422C196.39 58.8095 196.227 58.4208 195.982 58.0787C195.85 57.8943 195.665 57.6456 195.449 57.3344C194.548 56.115 193.259 53.5099 193.072 51.4708C192.965 50.5442 193.009 49.492 193.086 48.5421C193.194 47.1793 193.348 45.9985 193.14 45.4489C192.775 44.4725 192.748 43.4029 192.701 42.2984C192.658 41.2212 192.658 40.3233 192.376 39.8372C192.039 39.2583 192.084 38.7177 192.167 37.9264C192.225 37.3773 192.3 36.7061 192.298 35.8042C192.296 34.762 192.456 34.0176 192.598 33.3895C192.8 32.5037 192.963 31.852 192.684 30.8493C192.372 29.753 192.246 28.453 192.441 27.6195C192.527 27.2348 192.562 26.7808 192.603 26.3029C192.656 25.668 192.719 25.0089 192.919 24.418C193.084 23.9323 193.396 23.5543 193.674 23.2241C193.761 23.1211 193.844 23.022 193.919 22.9256C193.977 22.5293 194.037 22.1308 194.099 21.7323C194.07 21.6605 194.037 21.5845 194.004 21.5051C193.835 21.1074 193.632 20.6125 193.606 20.0277C193.564 19.105 193.891 18.3445 194.266 17.5556C194.561 16.9354 194.883 16.2994 195.131 15.4949C195.302 14.9432 195.46 14.2771 195.679 13.5935C195.998 12.5783 196.521 11.4711 197.201 10.8218C197.45 10.583 197.785 10.4596 198.113 10.3631C198.114 10.3628 198.116 10.3626 198.118 10.3624C198.14 10.3558 198.162 10.349 198.185 10.3425C198.878 9.52712 200.552 8.47423 201.57 8.2083C202.369 7.93922 203.293 7.66749 204.471 7.5691C204.675 7.52384 204.892 7.48537 205.116 7.45623C206.208 7.29755 207.587 7.46396 208.572 7.67074C209.911 7.97692 211.184 9.00715 212.108 9.63294C212.769 10.1067 213.47 10.6599 214.098 11.1362C214.466 11.4148 214.62 11.8639 214.766 12.3353C214.902 12.7755 215.029 13.2316 215.34 13.6336C215.495 13.835 215.7 14.0352 215.917 14.2623C216.108 14.4627 216.308 14.6842 216.486 14.9417C216.651 15.1806 216.864 15.8053 217.05 16.6472C217.164 17.1667 217.265 17.768 217.34 18.3985C217.832 19.8956 217.884 22.1949 217.917 22.8774C218.052 23.0873 218.231 23.2772 218.465 23.4309C218.633 23.5418 218.836 23.6409 219.043 23.744C219.325 23.8837 219.616 24.0266 219.843 24.222C220.021 24.3754 220.086 24.5472 220.003 24.6578C219.964 24.7091 219.894 24.7465 219.83 24.7805C219.758 24.8194 219.693 24.8543 219.692 24.9015C219.692 24.9358 219.739 24.9733 219.797 25.02C219.889 25.0946 220.007 25.1922 220.003 25.3316C219.987 25.8502 219.905 26.4499 219.813 27.0526C219.711 27.7243 219.597 28.3973 219.563 28.9561C219.527 29.5813 219.215 30.4614 218.848 31.3695C218.593 32.0027 218.313 32.6466 218.101 33.227C217.894 33.7931 217.801 34.4422 217.668 35.1019C217.509 35.8924 217.284 36.7013 216.803 37.2887C216.706 37.4068 216.444 37.4769 216.112 37.5606C215.877 37.6194 215.607 37.6826 215.338 37.7686C214.862 38.5644 214.272 39.3695 213.545 40.1273C213.54 40.1729 213.534 40.2198 213.527 40.2673C213.528 40.2682 213.528 40.2691 213.528 40.27C213.46 41.2755 212.741 43.148 210.762 43.61C210.32 43.6939 209.986 43.5743 209.758 43.4376C209.554 43.2937 209.369 43.1656 209.186 43.2035C208.975 43.2477 208.802 43.4693 208.59 43.7164C208.293 44.0623 207.907 44.464 207.303 44.455C207.262 44.4544 207.218 44.4533 207.171 44.4527C206.734 44.4462 206.038 44.4396 205.214 44.1633C204.138 44.3294 202.732 44.4726 200.968 44.0238C200.166 43.835 198.897 43.2542 198.348 42.8295C198.016 42.5718 197.779 42.3652 197.46 42.0893C195.491 40.3558 194.007 38.401 192.826 36.325C192.253 35.3144 192.184 34.0539 192.655 32.919C193.127 31.7823 194.076 30.8715 195.229 30.2902C196.382 29.7038 197.65 29.4533 198.758 29.4328C199.869 29.4207 200.727 29.6438 201.24 30.0977C202.077 30.8439 202.963 31.4473 203.846 31.9058C203.903 31.918 203.959 31.93 204.013 31.9428C204.446 32.0564 204.806 31.8707 205.354 31.7989C205.547 31.8298 205.393 31.6056 205.125 31.3784Z" fill="#E8C7AA"/>
<path d="M239.331 14.2205C239.979 14.7414 239.788 15.8268 239.686 16.4276C239.684 16.4386 239.683 16.4496 239.681 16.4606C239.657 16.6031 239.656 16.7362 239.657 16.8927C239.658 17.2659 239.659 17.7691 239.335 18.845C239.37 19.1509 239.399 19.456 239.42 19.7605C239.638 23.1376 239.44 26.0864 239.211 29.6768C239.219 29.7199 239.227 29.7639 239.235 29.8085C239.389 30.669 239.572 31.7496 239.406 32.4552C239.195 33.3499 238.975 33.9621 238.781 34.4593C238.5 37.3309 238.116 39.8284 238.26 42.3259C238.301 43.108 238.382 43.8849 238.511 44.6512C238.63 45.356 238.783 46.0549 238.966 46.7418C239.184 47.1172 239.427 47.4643 239.654 47.7782C239.972 48.2089 240.274 48.6441 240.412 48.9082C240.704 49.4176 240.759 50.1531 240.848 50.6626C240.862 50.7468 240.877 50.8261 240.893 50.8983C241.165 51.1928 241.456 51.4433 241.76 51.6549C241.736 51.7066 241.712 51.7602 241.687 51.8154C241.385 52.5081 241.694 52.8309 242.245 53.2278C242.4 53.3047 241.859 53.0324 241.987 53.1409C242.03 53.1814 242.109 53.4604 242.185 53.6846C242.207 53.7506 242.231 53.8121 242.257 53.8617C242.348 54.0316 242.458 53.8467 242.579 53.6239C242.741 53.3344 242.914 52.9829 243.303 53.2406C241.924 54.9027 242.799 53.7083 242.379 53.2635C242.313 53.1107 242.253 52.9718 242.239 52.867C242.193 52.5293 242.599 52.3378 243.049 52.2098C243.406 52.1128 243.462 51.4895 243.37 50.9529C243.336 50.7488 243.432 50.5474 243.546 50.3005C243.665 50.0449 243.801 49.7421 243.821 49.3578C243.87 48.3849 243.898 47.8575 243.925 47.4337C243.932 47.3134 243.939 47.201 243.945 47.0875C243.963 46.7303 244.029 46.2991 244.094 45.8598C244.171 45.335 244.252 44.7857 244.26 44.318C244.796 43.3132 245.509 42.1399 246.194 41.1217C246.553 40.5872 247.345 40.3065 248.4 40.3642C249.457 40.4212 250.695 40.7867 251.877 41.3664C253.06 41.9465 254.1 42.7119 254.807 43.4869C255.512 44.2627 255.832 44.9627 255.72 45.4632C255.483 46.4974 255.329 47.3802 255.1 48.5103C254.82 49.8524 254.419 51.3045 253.833 52.6977C253.421 53.6768 252.945 54.6658 252.365 55.6758C252.306 55.7791 252.245 55.8835 252.183 55.9882C252.013 57.0117 251.708 58.0985 251.313 58.8518C250.991 59.4726 250.507 59.8093 250.082 60.082C249.788 60.2716 249.507 60.4485 249.26 60.7219C249.128 60.8684 248.956 61.0664 248.77 61.2679C248.858 61.2312 247.471 62.5406 245.988 62.9404C243.88 63.4339 244.898 63.1851 244.339 63.2874C243.713 63.3746 242.891 63.4137 241.963 63.233C241.148 63.0727 240.063 62.6903 238.987 62.046C237.288 61.0578 236.696 59.9137 236.259 59.7237C235.485 59.3251 234.901 58.5172 234.469 57.7832C234.053 57.0813 233.764 56.4549 233.365 56.2467C232.887 55.9959 232.76 55.5833 232.621 54.9907C232.526 54.5783 232.424 54.0785 232.218 53.4523C231.981 52.7241 231.996 52.181 232.008 51.6953C232.024 50.9933 232.114 50.6515 231.67 50.1324C231.184 49.5774 230.823 48.9555 230.817 48.4076C230.814 48.159 230.747 47.8878 230.678 47.6044C230.588 47.2308 230.498 46.8362 230.553 46.452C230.599 46.1369 230.81 45.8479 230.998 45.5946C231.057 45.5161 231.113 45.4408 231.161 45.3689C231.12 45.1337 231.079 44.899 231.037 44.6663C230.991 44.6343 230.94 44.6009 230.887 44.5658C230.623 44.3888 230.299 44.1698 230.113 43.8661C229.819 43.3838 229.906 42.9144 230.004 42.424C230.081 42.0438 230.163 41.6472 230.078 41.2149C230.02 40.9174 229.887 40.5881 229.756 40.2573C229.563 39.7701 229.378 39.2692 229.453 38.9175C229.481 38.7853 229.635 38.6661 229.789 38.5497C229.79 38.5492 229.791 38.5487 229.792 38.5481C229.802 38.5402 229.812 38.5323 229.823 38.5244C229.657 37.7071 229.481 36.9782 229.288 36.2136C229.243 36.1496 229.197 36.0853 229.153 36.0219C228.936 35.7087 228.723 35.4086 228.439 35.2211C228.13 35.0212 227.918 34.4743 227.69 33.9062C227.54 33.5289 227.385 33.1495 227.193 32.8374C227.081 32.6574 227.228 32.4625 227.38 32.2609C227.522 32.0747 227.667 31.8777 227.608 31.6887C227.578 31.5949 227.499 31.4935 227.415 31.389C227.34 31.2966 227.262 31.1997 227.208 31.0933C227.159 30.9949 227.225 30.7584 227.308 30.4535C227.359 30.2658 227.417 30.0504 227.458 29.8247C227.293 29.2612 227.13 28.6899 226.973 28.1092C226.815 28.0022 226.616 27.9154 226.366 27.8563C226.187 27.814 225.975 27.7844 225.759 27.7538C225.464 27.7123 225.159 27.6682 224.912 27.5885C224.718 27.5261 224.634 27.4369 224.704 27.3629C224.736 27.3284 224.801 27.2976 224.86 27.2697C224.927 27.2378 224.987 27.2093 224.982 27.1828C224.978 27.1637 224.927 27.149 224.864 27.1307C224.765 27.1015 224.636 27.0633 224.623 26.9855C224.576 26.6952 224.581 26.3563 224.587 26.0201C224.594 25.6461 224.603 25.2788 224.539 24.9781C224.468 24.6432 224.613 24.1565 224.764 23.7142C224.869 23.3994 224.973 23.0822 225.006 22.8133C225.038 22.5511 224.916 22.2909 224.798 22.0399C224.656 21.7356 224.52 21.4434 224.663 21.1796C224.693 21.126 224.888 21.0481 225.132 20.9503C225.305 20.8811 225.503 20.8005 225.684 20.7141C225.662 20.3922 225.648 20.0681 225.642 19.7429C225.614 19.7334 225.585 19.7235 225.556 19.7137C225.556 19.7135 225.555 19.7134 225.554 19.7133C224.901 19.4916 224.008 19.1825 224.493 18.6369C224.617 18.4983 224.855 18.4007 225.069 18.3128C225.28 18.2264 225.469 18.15 225.503 18.0527C225.542 17.9424 225.402 17.8234 225.25 17.6937C225.036 17.5119 224.797 17.3075 224.994 17.0764C225.007 17.0606 225.022 17.0436 225.037 17.026C225.177 16.8587 225.384 16.6109 225.815 16.3519C225.893 15.6534 225.994 14.9537 226.11 14.2511C226.304 13.0824 226.54 11.9054 226.791 10.72C226.914 10.1413 227.507 9.57024 228.471 9.14664C229.437 8.72641 230.686 8.49141 231.978 8.485C233.271 8.475 234.52 8.6806 235.499 9.02878C236.476 9.382 237.094 9.85967 237.253 10.3823C237.51 11.2312 237.776 12.0925 238.029 12.9557C238.058 12.9999 238.087 13.0443 238.113 13.0888C238.311 13.4202 238.69 13.7191 239.071 14.0154C239.158 14.0835 239.246 14.1518 239.331 14.2205Z" fill="#E8C7AA"/>
<path d="M232.922 22.4772C232.876 21.8429 233.221 22 233.416 22.0839C233.419 22.0852 233.422 22.0865 233.426 22.0878C233.472 22.1076 233.509 22.105 233.552 22.1011C233.654 22.0917 233.794 22.079 234.19 22.3658C234.267 22.3255 234.344 22.2924 234.426 22.2658C235.301 21.9809 236.364 22.1696 237.469 22.4524C237.479 22.4456 237.49 22.4386 237.5 22.4316C237.712 22.2937 237.95 22.1312 238.247 22.2708C238.618 22.4503 238.903 22.6359 239.124 22.8044C240.161 23.0001 241.11 23.2709 241.87 23.265C242.115 23.2642 242.355 23.2378 242.587 23.1811C242.801 23.129 243.01 23.0576 243.215 22.9695C243.307 22.8082 243.388 22.6236 243.463 22.4527C243.566 22.2127 243.661 21.999 243.759 21.9128C243.999 21.7044 244.361 21.8525 244.633 21.9619C244.677 21.9799 244.719 21.9969 244.757 22.0111C244.919 21.8844 245.08 21.7519 245.241 21.6174C245.266 21.6644 245.291 21.7136 245.316 21.764C245.634 22.3932 245.825 22.3375 246.122 22.2516C246.252 22.2142 246.402 22.1714 246.594 22.1756C246.717 22.1785 246.84 22.4286 246.941 22.6324C246.971 22.6924 246.999 22.7485 247.024 22.7931C247.111 22.946 247.116 22.7565 247.122 22.5328C247.13 22.2427 247.141 21.8937 247.331 22.16C247.94 23.0076 247.948 22.3293 247.956 21.8156C247.959 21.665 247.961 21.5289 247.977 21.4495C248.031 21.1922 248.245 21.3813 248.442 21.6651C248.598 21.8901 248.727 21.5973 248.792 21.2489C248.817 21.1173 248.895 21.0947 248.993 21.0675C249.094 21.0396 249.221 21.0055 249.322 20.8391C249.542 20.4201 249.87 20.1961 250.057 20.0283C250.105 19.9815 250.144 19.94 250.185 19.8967C250.317 19.7596 250.491 19.6386 250.674 19.5192C250.893 19.3763 251.121 19.2361 251.292 19.0657C251.784 19.1862 252.255 19.3684 252.656 19.5619C252.863 19.6623 253.047 20.2516 253.174 21.2247C253.302 22.1985 253.372 23.4694 253.382 24.7867C253.392 26.1041 253.335 27.3757 253.234 28.3515C253.134 29.3265 253.006 29.9197 252.886 30.0274C252.641 30.2419 252.461 30.4612 252.303 30.643C252.137 30.8599 251.822 31.0517 251.869 31.0463C251.65 31.0974 251.478 31.1088 251.188 31.1217C251.159 31.1229 251.13 31.1235 251.101 31.1242C250.952 31.4951 250.798 31.8366 250.663 31.9781C250.554 32.0944 250.416 31.95 250.299 31.8262C250.219 31.741 250.148 31.6656 250.101 31.6919C250.075 31.706 250.042 31.7347 250.004 31.7689C249.847 31.9086 249.576 32.1464 249.22 31.9077C249.061 31.802 248.85 31.5684 248.649 31.3454C248.362 31.0266 248.094 30.7294 248.026 30.8574C247.907 31.0821 247.682 30.9716 247.483 30.8735C247.292 30.7801 247.126 30.6984 247.1 30.9308C247.068 31.2087 246.963 31.1242 246.806 30.9994C246.697 30.913 246.565 30.8074 246.414 30.7885C246.24 30.767 246.085 30.6156 245.952 30.4872C245.764 30.3066 245.625 30.1703 245.546 30.5028C245.459 30.8719 245.335 31.1238 245.172 31.0536C245.098 31.0216 245.028 31.0507 244.957 31.081C244.862 31.121 244.762 31.1629 244.638 31.0684C244.536 30.9904 244.411 30.7576 244.3 30.5518C244.265 30.4875 244.232 30.4263 244.202 30.3727C244.14 30.3912 244.079 30.4111 244.018 30.4336C244.018 30.4761 244.018 30.5229 244.018 30.5713C244.019 30.8142 244.019 31.1122 243.969 31.2731C243.889 31.5276 243.738 31.4174 243.578 31.3003C243.454 31.209 243.324 31.1137 243.219 31.1849C243.148 31.2334 243.084 31.3567 243.02 31.479C242.922 31.6613 242.842 31.8368 242.741 31.7624C242.704 31.7345 242.64 31.5848 242.576 31.436C242.575 31.4351 242.575 31.4341 242.575 31.4332C242.57 31.4231 242.566 31.4133 242.562 31.4032C242.406 31.5673 242.267 31.7408 242.119 31.9256C242.115 31.9695 242.109 32.0129 242.104 32.0557C242.081 32.2679 242.064 32.4737 242.097 32.7469C242.133 33.0431 242.068 33.2432 242.003 33.4542C241.958 33.5928 241.906 33.7381 241.872 33.9207C241.851 34.0275 241.746 33.888 241.64 33.7433C241.541 33.6085 241.44 33.4699 241.398 33.5263C241.377 33.5548 241.369 33.6297 241.361 33.7098C241.353 33.7803 241.345 33.855 241.328 33.905C241.311 33.9514 241.22 33.8867 241.101 33.8054C241.028 33.755 240.945 33.6982 240.864 33.6556C240.737 33.8065 240.609 33.9534 240.477 34.094C240.49 34.2428 240.52 34.4312 240.573 34.6682C240.612 34.8383 240.663 35.0397 240.716 35.2456C240.787 35.5259 240.86 35.8157 240.907 36.0506C240.943 36.2342 240.94 36.3131 240.899 36.2457C240.879 36.2142 240.852 36.1519 240.827 36.0956C240.798 36.0311 240.773 35.9738 240.766 35.9778C240.762 35.9808 240.772 36.0298 240.785 36.0891C240.804 36.1837 240.83 36.306 240.811 36.317C240.741 36.3575 240.639 36.3494 240.542 36.3403C240.434 36.33 240.326 36.3214 240.264 36.3809C240.195 36.4474 240.015 36.3122 239.84 36.1762C239.715 36.0819 239.592 35.9881 239.504 35.9617C239.418 35.9359 239.375 36.0575 239.335 36.1753C239.288 36.3166 239.239 36.4542 239.119 36.3231C239.094 36.2964 239.015 36.1119 238.915 35.8809C238.845 35.7172 238.764 35.5303 238.685 35.3592C238.595 35.3886 238.504 35.4093 238.408 35.4244C238.413 35.4512 238.419 35.4786 238.424 35.5065C238.424 35.5071 238.424 35.5078 238.424 35.5084C238.546 36.1383 238.711 37.0006 238.407 36.5523C238.33 36.4383 238.233 36.2131 238.145 36.0107C238.059 35.812 237.981 35.634 237.942 35.604C237.898 35.5699 237.902 35.7075 237.907 35.8572C237.914 36.0671 237.919 36.3027 237.793 36.1218C237.784 36.1095 237.775 36.0959 237.765 36.0823C237.675 35.9539 237.542 35.7641 237.341 35.3601C237.11 35.3082 236.866 35.2381 236.621 35.1542C236.21 35.0148 235.783 34.8403 235.348 34.6628C235.138 34.5745 234.803 34.0371 234.434 33.1303C234.062 32.2231 233.689 31.0284 233.367 29.7765C233.045 28.5247 232.789 27.3012 232.629 26.3377C232.468 25.3757 232.423 24.7592 232.508 24.5875C232.649 24.3097 232.798 24.0269 232.952 23.7595C232.956 23.7303 232.96 23.702 232.964 23.6752C232.995 23.4766 232.97 23.104 232.94 22.7319C232.934 22.6464 232.927 22.5607 232.922 22.4772Z" fill="#E8C7AA"/>
<path d="M51.2523 27.6332C50.95 27.2617 50.7976 26.4088 50.7147 25.9466C50.7131 25.9382 50.7115 25.9297 50.7099 25.9212C50.6902 25.8114 50.6641 25.7071 50.6334 25.5854C50.5631 25.3062 50.4636 24.9111 50.3591 24.0805C50.2888 23.8464 50.2217 23.6166 50.1558 23.3827C49.4495 20.8561 48.865 18.3386 48.2888 15.7513C48.2783 15.7196 48.2677 15.6875 48.2569 15.655C48.0483 15.0266 47.7913 14.2427 47.7151 13.7247C47.6178 13.066 47.5757 12.6088 47.5463 12.2343C47.1436 10.1312 46.68 8.12136 46.5748 5.71474C46.6051 5.24042 46.4088 5.22646 46.7883 4.16472C47.5897 2.71146 48.9392 3.21812 49.2805 3.3229C50.1224 3.63492 50.6285 4.00228 51.1783 4.36431C51.5204 4.55398 51.8252 4.72139 52.1091 4.88249C52.5176 5.1168 52.858 5.31968 53.1252 5.51592C53.7695 5.989 54.3935 6.62779 54.853 7.10738C54.9268 7.18453 54.9969 7.25807 55.0625 7.32617C55.475 7.65922 55.874 7.98293 56.2787 8.31447C56.2937 8.34995 56.3083 8.38618 56.3232 8.42315C56.5043 8.88059 56.9053 9.24643 57.534 9.82882C57.806 10.0808 58.1219 10.3748 58.4813 10.7355C58.7143 10.9692 58.7743 11.1432 58.8268 11.2886C58.8421 11.3311 58.8565 11.3711 58.8737 11.4087C58.9329 11.5376 59.0733 11.592 59.2372 11.6547C59.4502 11.7363 59.7079 11.8362 59.8867 12.1377C60.4619 13.1037 60.9595 13.2962 61.335 13.4396C61.4454 13.4819 61.5457 13.5207 61.6345 13.5738C61.9243 13.7231 62.2003 14.1974 62.3529 14.5361C62.4675 14.8004 62.8718 15.1729 63.2086 15.4359C63.336 15.5352 63.468 15.701 63.6225 15.8975C63.7821 16.1006 63.9652 16.3362 64.1931 16.5646C64.7684 17.1417 65.0643 17.4567 65.303 17.7102C65.3706 17.782 65.434 17.8504 65.497 17.9174C65.6969 18.1306 65.9309 18.4038 66.1669 18.6838C66.4488 19.0179 66.7329 19.3608 66.9653 19.6126C67.4211 20.3647 67.8619 21.1334 68.2822 21.9567C68.4973 22.3787 68.5619 22.8812 68.4414 23.3095C68.3215 23.7389 68.0425 24.0698 67.6763 24.2573C67.3096 24.445 66.8752 24.4644 66.4671 24.3403C66.0592 24.2159 65.7136 23.9702 65.4753 23.6367C64.9951 22.9628 64.4594 22.283 63.9265 21.6033C63.2748 20.7733 62.6203 19.9417 61.9879 19.0977C61.5452 18.5072 61.1032 17.9172 60.6594 17.3311C60.6138 17.2708 60.5682 17.2104 60.5224 17.1501C60.0465 16.7208 59.636 16.3563 59.3559 16.098C59.0804 15.8702 58.9361 15.6566 58.8115 15.4731C58.7249 15.346 58.6484 15.2337 58.5477 15.1437C58.4937 15.0953 58.4178 15.0315 58.3265 14.9546C57.9546 14.6419 57.2973 14.0871 56.791 13.4713C56.5679 13.1995 56.331 12.8565 56.1068 12.5322C55.7844 12.0665 55.4829 11.6344 55.2679 11.4806C54.8936 11.2133 54.5463 10.8237 54.2317 10.4754C53.9359 10.1469 53.6733 9.85937 53.4666 9.76555C53.2224 9.656 53.0705 9.47505 52.8613 9.22344C52.7094 9.0431 52.533 8.8315 52.251 8.56479C51.9322 8.26303 51.7291 8.01626 51.5634 7.81394C51.3192 7.52064 51.136 7.30315 50.7582 7.12482C50.3296 6.92007 49.9285 6.70258 49.6472 6.46527C49.5275 6.36275 49.363 6.25585 49.2128 6.1652C48.9941 6.03253 48.7911 5.92238 48.6311 5.80552C48.5087 5.71339 48.4392 5.60728 48.4109 5.52933C48.4031 5.50513 48.3991 5.48355 48.4017 5.46521C48.3782 5.46801 48.6636 5.48456 48.8568 5.20397C48.8941 5.17116 48.9266 5.13587 48.9507 5.11224C49.0668 4.96229 49.1002 5.11002 49.1527 5.3206C49.2241 5.62347 49.1993 5.87551 49.1883 6.20564C49.1789 6.44996 49.1791 6.72536 49.2426 7.01997C49.2868 7.22563 49.3621 7.45455 49.4407 7.68349C49.5563 8.01914 49.6802 8.36038 49.705 8.60306C49.7145 8.69515 49.6837 8.78437 49.6534 8.8736C49.6532 8.87402 49.6529 8.87443 49.6527 8.87485C49.6507 8.8809 49.6487 8.88697 49.6467 8.89303C49.8217 9.46937 50.0146 10.0523 50.2148 10.6277C50.241 10.6756 50.2672 10.7241 50.2932 10.7724C50.4194 11.0049 50.5444 11.2348 50.6692 11.3685C50.8046 11.5144 50.9766 11.9313 51.1613 12.3704C51.2819 12.6572 51.4079 12.9546 51.5304 13.1922C51.6022 13.3318 51.5932 13.4844 51.5846 13.6435C51.5764 13.7918 51.5683 13.9441 51.625 14.0908C51.6534 14.1644 51.6982 14.2398 51.7461 14.3204C51.7883 14.3915 51.8328 14.4662 51.8707 14.5471C51.9057 14.6223 51.9312 14.8061 51.9644 15.0416C51.9848 15.187 52.0083 15.3525 52.0385 15.5247C52.2012 15.9547 52.3632 16.3858 52.523 16.8188C52.5941 16.8978 52.6744 16.9607 52.7657 17.0022C52.8312 17.032 52.9048 17.052 52.9802 17.0727C53.0827 17.101 53.1888 17.1304 53.283 17.1863C53.3567 17.2301 53.4001 17.2947 53.3913 17.3493C53.3871 17.3748 53.3719 17.3979 53.3582 17.4189C53.3425 17.4429 53.3285 17.4644 53.3348 17.4836C53.3394 17.4974 53.3586 17.5075 53.382 17.5199C53.4192 17.5398 53.4675 17.5661 53.4857 17.6224C53.5536 17.8323 53.6124 18.0741 53.6706 18.3148C53.735 18.5811 53.798 18.8432 53.8686 19.0443C53.9476 19.2693 53.986 19.6101 54.0247 19.9552C54.0518 20.1959 54.0755 20.4244 54.1165 20.6284C54.1561 20.8262 54.2432 21.0158 54.3268 21.1965C54.4293 21.421 54.5271 21.6345 54.5308 21.8339C54.5314 21.8738 54.4849 21.9393 54.4266 22.0209C54.3853 22.0788 54.3381 22.145 54.2975 22.2164C54.3654 22.4575 54.4298 22.6964 54.4931 22.94C54.5037 22.9462 54.5144 22.9526 54.5254 22.959C54.5256 22.9591 54.5258 22.9591 54.5261 22.9592C54.7722 23.1 55.1121 23.3045 55.0596 23.7217C55.0465 23.8284 54.9908 23.9128 54.9399 23.986C54.89 24.0582 54.8453 24.1227 54.8526 24.1961C54.8611 24.2804 54.9255 24.3577 54.9984 24.4523C55.1 24.5826 55.2128 24.7253 55.1932 24.9013C55.1919 24.9133 55.1903 24.9263 55.1891 24.9404C55.1772 25.0731 55.1589 25.2667 55.0713 25.4729C55.178 26.0007 55.2761 26.5234 55.3697 27.0465C55.5277 27.9243 55.6702 28.7983 55.8184 29.6649C55.89 30.0852 55.8167 30.5173 55.6131 30.8716C55.4628 31.2611 54.8547 31.2881 54.9046 31.7357C54.4562 32.0881 53.9021 31.7395 53.5251 31.553C53.1279 31.3129 52.8296 30.9577 52.6683 30.5467C52.4068 29.8771 52.1548 29.2213 51.9061 28.5614C51.8883 28.5281 51.8706 28.4943 51.8535 28.4603C51.7267 28.2108 51.5503 27.9961 51.3741 27.7837C51.3335 27.7343 51.2927 27.6842 51.2523 27.6332Z" fill="#E8C7AA"/>
<path d="M79.536 12.8647C79.684 12.4125 80.2968 11.8426 80.6308 11.5277C80.6368 11.5219 80.6429 11.516 80.649 11.5101C80.7287 11.435 80.7992 11.3588 80.882 11.2685C81.075 11.0581 81.3397 10.7705 81.9651 10.2321C82.1153 10.0502 82.2698 9.86577 82.4224 9.68658C84.0826 7.73515 85.831 5.85336 87.5314 3.94627C87.5501 3.92012 87.5691 3.89358 87.5882 3.8668C87.9702 3.3366 88.3408 2.77661 88.805 2.28699C89.3738 1.71196 89.8697 1.35844 90.3529 1.09711C91.51 -0.0578392 94.8443 0.857924 95.1926 2.34428C95.8092 3.65925 95.8847 4.77291 95.9945 5.88263C96.0521 6.5726 96.0813 7.25134 96.1011 7.92453C96.1191 8.54514 96.1262 9.15765 96.1275 9.77041C96.1636 10.1271 96.204 10.4669 96.2391 10.782C96.2884 11.2246 96.3272 11.6192 96.3286 11.9427C96.3323 12.7242 96.1972 13.5951 96.09 14.2413C96.0726 14.3467 96.0561 14.4443 96.0411 14.5365C96.0229 15.0595 96.0047 15.5607 95.9805 16.0993C95.961 16.1331 95.9409 16.1653 95.9201 16.2011C95.6585 16.626 95.6231 17.2499 95.4156 18.1146C95.3296 18.494 95.2191 18.9324 95.0578 19.43C94.9534 19.7508 94.8201 19.8899 94.7125 20.0015C94.6808 20.0344 94.6509 20.0658 94.6243 20.0983C94.5341 20.2078 94.545 20.36 94.5574 20.5375C94.5728 20.77 94.5908 21.0465 94.3898 21.3356C93.7492 22.2504 93.7758 22.7531 93.7977 23.1413C93.8045 23.2533 93.8091 23.3584 93.7967 23.4563C93.7554 23.7771 93.529 24.1665 93.3148 24.4445C93.1458 24.6631 93.0282 25.1904 92.9779 25.6011C92.9582 25.758 92.8847 25.9512 92.799 26.1757C92.7091 26.411 92.6058 26.6808 92.5338 26.9858C92.3517 27.7567 92.2514 28.162 92.1702 28.4892C92.1467 28.5835 92.1254 28.6689 92.1042 28.7557C92.0364 29.0315 91.94 29.3646 91.8416 29.7043C91.7247 30.1087 91.6046 30.5242 91.5351 30.8421C91.1873 31.6104 90.8299 32.3753 90.4748 33.1408C90.2923 33.5334 89.9743 33.8566 89.5817 34.0382C89.1901 34.2163 88.7569 34.2418 88.371 34.0982C87.9851 33.955 87.6737 33.6525 87.4948 33.26C87.3175 32.8643 87.2904 32.4087 87.4125 31.9903C87.6598 31.1464 87.9096 30.3026 88.1733 29.4655C88.4945 28.4458 88.8373 27.4335 89.2215 26.4388C89.4901 25.7433 89.7681 25.0523 90.0516 24.3656C90.0806 24.2954 90.11 24.2246 90.1394 24.1536C90.269 23.5347 90.4037 22.9238 90.5266 22.5052C90.6281 22.1597 90.7695 21.9355 90.8906 21.7416C90.9747 21.6063 91.0479 21.489 91.0903 21.3598C91.1126 21.2917 91.1419 21.1932 91.1752 21.0789C91.315 20.6023 91.5424 19.8042 91.8585 19.1277C91.9991 18.8278 92.1899 18.4913 92.3632 18.1666C92.611 17.7072 92.8242 17.2489 92.8347 17.0274C92.8534 16.7118 92.9351 16.1522 93.0258 15.7353C93.109 15.3241 93.1819 14.937 93.1326 14.7191C93.0737 14.4568 93.1262 14.2386 93.2021 13.9179C93.2548 13.6929 93.3184 13.4213 93.3623 13.0448C93.4125 12.6127 93.4888 12.3083 93.5527 12.0493C93.6425 11.6854 93.7084 11.41 93.6307 10.9942C93.5442 10.5324 93.4902 10.055 93.5293 9.68269C93.5472 9.51395 93.5457 9.31707 93.5423 9.11618C93.5379 8.84992 93.5304 8.56949 93.5634 8.31314C93.5905 8.10044 93.6653 7.92859 93.7303 7.7703C93.7506 7.72109 93.7698 7.67391 93.7864 7.62839C93.7784 7.46005 93.7687 7.29613 93.756 7.1274C93.7415 7.10107 93.7256 7.07356 93.709 7.04499C93.6258 6.90189 93.5228 6.72862 93.4579 6.51136C93.3555 6.17328 93.3644 5.86747 93.3634 5.54652C93.363 5.30158 93.3572 5.0471 93.2792 4.77053C93.2272 4.5876 93.1393 4.38671 93.0473 4.21334C92.9077 3.94339 92.7589 3.74498 92.7108 3.61037C92.6938 3.5609 92.7109 3.49681 92.7266 3.43448C92.7268 3.43415 92.7269 3.43382 92.7271 3.4335C92.7281 3.42927 92.7291 3.42508 92.7302 3.42088C92.4874 3.19592 92.5016 3.31426 92.416 3.36353C92.408 3.37901 92.399 3.39515 92.389 3.41213C92.341 3.4936 92.2666 3.60759 92.2465 3.72699C92.2269 3.85226 92.0575 4.05822 91.8685 4.36488C91.742 4.56652 91.6394 4.77166 91.5118 5.03121C91.4443 5.17288 91.3129 5.26334 91.1795 5.35309C91.0557 5.43597 90.9277 5.52178 90.8412 5.65764C90.798 5.72556 90.7618 5.80898 90.7252 5.89523C90.6927 5.97164 90.658 6.05273 90.6139 6.13223C90.5733 6.2055 90.4355 6.33991 90.2643 6.5037C90.1579 6.60572 90.0364 6.72213 89.9125 6.84831C89.6565 7.23072 89.3961 7.61234 89.1318 7.99157C89.1072 8.09552 89.102 8.19665 89.12 8.29532C89.1329 8.36604 89.1585 8.43794 89.1844 8.51164C89.2197 8.61193 89.256 8.71573 89.2636 8.82514C89.2695 8.91066 89.241 8.98328 89.1908 9.00723C89.1675 9.01838 89.1397 9.01912 89.1147 9.01968C89.086 9.02036 89.0605 9.021 89.0483 9.03706C89.0395 9.04866 89.0422 9.07019 89.0452 9.09647C89.05 9.13845 89.0559 9.1929 89.0201 9.23962C88.8866 9.41346 88.7197 9.60009 88.5565 9.78134C88.3749 9.98318 88.1966 10.1802 88.0717 10.3507C87.9317 10.5418 87.6727 10.7653 87.4131 10.9881C87.2322 11.1432 87.0504 11.2989 86.9083 11.4433C86.7691 11.5847 86.6613 11.7627 86.5562 11.9359C86.4302 12.1435 86.3099 12.3417 86.1438 12.4592C86.1103 12.4828 86.0307 12.4799 85.9312 12.4762C85.8606 12.4736 85.7798 12.4707 85.6983 12.4762C85.5383 12.6641 85.3722 12.8544 85.2075 13.0388C85.2083 13.051 85.2089 13.0634 85.2098 13.076C85.2098 13.0763 85.2099 13.0765 85.2099 13.0767C85.2292 13.3597 85.2496 13.7533 84.8698 13.9431C84.7723 13.9923 84.6733 13.99 84.5842 13.9878C84.4968 13.9856 84.4186 13.9835 84.3614 14.0299C84.2961 14.0828 84.2648 14.1815 84.2272 14.2929C84.1751 14.4482 84.1175 14.6208 83.9583 14.7021C83.9474 14.7076 83.9356 14.7135 83.9236 14.7198C83.8091 14.779 83.6349 14.8717 83.4128 14.9121C83.0335 15.2836 82.6447 15.6518 82.2506 16.0143C81.594 16.6173 80.9213 17.2096 80.2211 17.7934C79.8816 18.0753 79.4312 18.2501 78.9907 18.2406C78.5337 18.2464 78.1443 18.05 77.9036 17.7259C77.6588 17.4042 77.5137 17.0265 77.5111 16.6174C77.4977 16.2194 77.6386 15.8174 77.8898 15.4986C78.3019 14.9776 78.7189 14.4281 79.1259 13.8885C79.1441 13.8563 79.1627 13.8241 79.1817 13.7921C79.316 13.5621 79.4034 13.2972 79.4801 13.0427C79.4984 12.9836 79.5168 12.9241 79.536 12.8647Z" fill="#E8C7AA"/>
</svg>
