<svg width="2553" height="1584" viewBox="0 0 2553 1584" fill="none" xmlns="http://www.w3.org/2000/svg">
<path d="M214.391 290.597C218.154 290.945 222.618 291.458 227.499 292.095C246.326 294.66 271.985 297.075 287.644 297.969C288.001 297.991 288.359 298.013 288.717 298.034C293.371 298.316 297.757 298.515 302.925 298.708C315.244 299.14 331.891 299.679 366.908 300.1C371.856 300.059 376.746 300.008 381.71 299.95C386.909 299.888 392.121 299.773 397.344 299.623C441.143 298.26 485.227 295.097 529.241 291.847C561.927 289.416 594.208 286.274 626.279 280.878C652.613 276.543 678.968 271.162 705.625 266.303C711.967 265.148 718.273 264.034 724.554 262.899C725.934 262.633 727.296 262.368 728.714 262.091C755.767 256.888 789.121 249.318 810.182 244.793C816.824 243.371 822.825 242.078 828.55 240.838C845.716 237.122 858.839 234.257 870.089 231.798C955.461 211.744 1040.52 190.351 1124.95 166.772C1125.79 166.536 1126.64 166.301 1127.48 166.065C1153.09 158.88 1178.64 151.452 1204.13 143.827C1228.37 136.573 1252.57 129.148 1276.74 121.61C1290.74 117.055 1304.07 112.64 1316.41 108.538C1333.72 102.785 1349.16 97.6362 1361.99 93.5264C1373.92 89.7066 1386.57 85.7629 1399.03 81.9928C1418.87 75.9802 1438.35 70.3991 1454.6 66.0267C1458.91 64.8635 1463.02 63.7794 1466.8 62.7944C1487.79 56.9665 1509.07 51.798 1530.37 47.291C1531.8 47.0783 1533.27 46.8627 1534.73 46.6536C1535.63 46.5249 1536.54 46.3916 1537.46 46.2534C1555.37 43.6053 1577.19 39.2491 1610.76 33.2724C1626.14 30.5507 1644 27.4898 1665.07 24.344C1678.68 22.3241 1685.71 21.7983 1691.53 21.3799C1693.27 21.2546 1694.84 21.1514 1696.47 21.0304C1697.24 20.9753 1698.11 20.8998 1698.84 20.8346C1703.6 20.3224 1709.07 19.7163 1714.9 19.1648C1723.84 18.3245 1734.58 17.4882 1748.63 17.6337C1752.45 17.6724 1755.97 17.7052 1759.48 17.7248C1796.85 17.9829 1814.64 16.8741 1828.34 15.9846C1832.74 15.7035 1836.7 15.453 1840.79 15.2953C1853.99 14.7814 1872.85 14.9995 1887.09 15.4477C1898.38 15.7933 1920.97 15.3631 1938.11 14.9639C1944.6 14.8097 1953.36 14.8664 1963.7 14.9917C1969.19 15.0585 1975.24 15.1472 1981.52 15.2361C1987.46 15.3207 1993.59 15.4056 2000.01 15.4827C2033.52 15.9101 2051.36 16.934 2065.72 17.8582C2069.8 18.1297 2073.63 18.4131 2077.43 18.7157C2089.46 19.666 2104.39 21.2367 2119.42 23.319C2129.08 24.6484 2138.78 26.167 2147.83 27.6848C2155.62 28.9903 2162.92 30.291 2169.29 31.4396C2204.75 38.7594 2239.81 47.3604 2274.7 56.541C2277.27 57.2198 2279.92 57.9378 2282.43 58.6416C2297.47 62.907 2311.31 67.2205 2322.08 72.4161C2323.01 72.8761 2323.89 73.3379 2324.72 73.7849C2335.52 79.2482 2339.68 86.126 2338.27 87.3253C2336.87 88.7586 2331.62 85.8029 2320.93 83.514C2320.05 83.3011 2319.17 83.089 2318.26 82.8779C2307.87 80.5567 2293.47 77.8354 2278.42 74.2508C2275.89 73.6581 2273.24 73.0215 2270.67 72.3928C2234.6 63.5784 2198.44 55.395 2162.09 48.5307C2156.28 47.4375 2150.47 46.3831 2144.65 45.3772C2106.19 38.5838 2067.51 34.7336 2028.45 32.9814C2012.75 32.2421 1997.01 31.7715 1981.21 31.4449C1965.44 31.121 1949.56 30.933 1933.75 30.8161C1930.47 30.7921 1927.24 30.771 1923.97 30.7533C1897.39 31.1939 1870.83 31.8241 1852.13 32.1613C1836.7 32.4397 1825.41 32.3119 1815.77 32.211C1809.15 32.1422 1803.25 32.0888 1797.32 32.205C1794.12 32.2675 1789.78 32.3692 1784.51 32.4984C1777.62 32.6674 1769.12 32.8841 1759.8 33.1211C1741.9 33.7167 1719.9 33.6506 1700.47 35.3967C1698.53 35.5875 1696.41 35.8268 1694.43 36.0508C1679.92 37.722 1662.89 39.891 1646.78 42.0972C1623.66 45.2617 1602.03 48.6246 1591.3 50.7799C1575.23 54.0008 1557.24 57.3311 1540.34 60.5497C1537.28 61.134 1534.28 61.7103 1531.32 62.2885C1513.05 65.8402 1497.2 69.4579 1488.33 72.0613C1477.72 75.1672 1468.56 77.4348 1454.99 81.0028C1445.56 83.4904 1434.04 86.6176 1418.42 91.2423C1412.87 92.8863 1407.93 94.3445 1403.24 95.7217C1392.76 98.7997 1384.27 101.242 1376.7 103.423C1361.41 107.829 1349.89 111.175 1332.93 116.982C1314.16 123.414 1294.39 129.931 1278.74 134.594C1271.58 136.728 1263.47 139.248 1254.98 141.869C1243.76 145.333 1231.93 148.957 1221.09 152.026C1212.16 154.553 1204.67 156.375 1198.06 157.974C1196 158.471 1194.02 158.95 1192.1 159.423C1185.01 161.53 1177.92 163.626 1170.8 165.721C1169.67 166.117 1168.48 166.538 1167.24 166.977C1161 169.181 1153.33 171.879 1143.74 174.864C1139.38 176.221 1135.2 177.47 1131.06 178.669C1120.77 181.642 1110.97 184.223 1100.8 186.873C1089.71 189.762 1078.16 192.738 1064.99 196.387C1056.02 198.872 1045.8 201.793 1035.68 204.659C1020.65 208.92 1005.78 213.07 995.373 215.628C991.454 216.592 988.092 217.207 984.695 217.829C984.68 217.832 984.665 217.834 984.65 217.836C984.421 217.878 984.191 217.921 983.962 217.963C958.741 224.698 933.492 231.33 908.202 237.85C906.009 238.462 903.843 239.065 901.646 239.674C890.996 242.629 880.579 245.487 873.862 247.557C867.108 249.639 850.649 253.904 832.691 258.404C831.285 258.756 829.888 259.105 828.504 259.45C815.742 262.637 802.394 265.898 791.62 268.565C785.292 270.132 779.188 271.21 772.896 272.293C767.032 273.301 760.98 274.32 754.469 275.719C751.183 276.425 747.688 277.241 743.927 278.104C740.602 278.866 737.103 279.658 733.428 280.43C730.02 281.151 722.35 282.448 712.603 284.103C711.475 284.295 710.319 284.493 709.137 284.697C704.015 285.579 698.407 286.574 692.574 287.64C673.682 291.534 654.718 295.552 635.573 299.103C633.442 299.606 631.466 300.096 629.673 300.571C628.135 300.978 626.735 301.375 625.49 301.761C623.556 302.361 621.922 302.959 620.239 303.567C617.951 304.394 615.572 305.245 612.247 306.128C609.651 306.818 606.546 307.39 604.428 307.57C603.445 307.653 602.682 307.653 601.985 307.654C601.183 307.655 600.486 307.653 599.632 307.773C599.017 307.859 598.39 308.023 597.62 308.221C596.384 308.538 594.782 308.948 592.301 309.272C583.065 310.484 572.569 311.596 562.284 312.547C550.972 313.597 539.953 314.465 531.105 315.225C531.015 315.233 530.926 315.241 530.837 315.248C520.936 316.103 506.805 316.916 492.626 317.654C482.725 318.172 472.823 318.651 464.319 319.118C455.986 319.576 447.322 320.261 438.913 320.879C428.83 321.621 419.108 322.262 410.797 322.332C409.121 322.346 407.023 322.113 404.401 321.811C402.55 321.597 400.395 321.35 397.962 321.128C392.634 321.28 387.297 321.392 381.939 321.443C376.705 321.493 371.554 321.528 366.321 321.546C365.952 321.591 365.572 321.636 365.192 321.682C365.186 321.683 365.18 321.684 365.174 321.685C356.569 322.719 344.712 324.14 328.064 323.115C323.847 322.852 321.181 322.42 318.777 322.03C316.423 321.645 314.32 321.297 311.238 321.154C307.731 320.99 303.582 321.073 299.057 321.129C292.7 321.208 285.576 321.23 278.466 320.468C277.981 320.416 277.46 320.359 276.919 320.3C271.765 319.745 264.136 318.853 256.592 317.452C245.811 316.367 235.038 314.993 224.308 313.272C212.844 311.43 201.409 309.7 189.878 307.977C171.275 305.084 152.652 302.844 133.442 297.931C115.544 293.132 97.7744 287.933 80.1348 282.37C62.7922 276.907 46.4664 270.548 34.8194 264.979C23.1559 259.399 17.0204 255.135 17.7118 253.245C18.3573 251.323 25.7981 251.907 38.3549 254.582C50.9 257.251 67.611 261.74 84.8657 266.713C102.416 271.783 120.07 276.486 137.821 280.8C147.909 283.213 158.79 284.75 169.69 286.245C171.22 286.428 172.754 286.609 174.271 286.788C185.636 288.124 196.309 288.989 207.002 289.933C209.468 290.151 211.93 290.37 214.391 290.597Z" fill="#E8C7AA"/>
<path d="M421.577 282.685C236.148 293.811 63.2634 250.235 0 227.056L2.46138e-05 313.335C5.73329e-05 417.46 8.86843e-05 517.234 0 629.935C-0.000130443 795.702 1119.93 599.725 1965.5 657C2807 714 2541.57 215.322 2386.51 92.763C2231.45 -29.7955 1750.11 0.192199 1612.81 11.9265C1475.52 23.6609 1096.75 157.519 963.488 194.461C830.231 231.402 653.363 268.778 421.577 282.685Z" fill="#E8C7AA"/>
<rect y="400" width="2552" height="1184" fill="#E8C7AA"/>
</svg>
